<mxfile modified="2023-03-15T21:56:22.090Z" host="Electron" agent="5.0 (Windows NT 10.0; Win64; x64) AppleWebKit/537.36 (KHTML, like Gecko) draw.io/20.3.0 Chrome/104.0.5112.114 Electron/20.1.3 Safari/537.36" etag="Abr6GAVXWpDyEmaZRIu6" compressed="false" version="20.3.0" type="device" pages="16">
  <diagram id="0aIIHYs0VRBmFU4zPPv2" name="Diagnostics - Errors">
    <mxGraphModel dx="782" dy="517" grid="1" gridSize="10" guides="1" tooltips="1" connect="1" arrows="1" fold="1" page="1" pageScale="1" pageWidth="827" pageHeight="1169" math="0" shadow="0">
      <root>
        <mxCell id="C51CaPQ0B-Lk0K0SkZ-6-0" />
        <mxCell id="C51CaPQ0B-Lk0K0SkZ-6-1" parent="C51CaPQ0B-Lk0K0SkZ-6-0" />
        <mxCell id="kI-nWUAVh75FRqppQIqm-4" value="" style="endArrow=block;endFill=0;endSize=12;html=1;strokeColor=#000000;fontSize=10;entryX=1;entryY=0.5;entryDx=0;entryDy=0;exitX=0;exitY=0.5;exitDx=0;exitDy=0;" parent="C51CaPQ0B-Lk0K0SkZ-6-1" source="Yy00xWdVSZUrBKmZrrDK-14" target="Yy00xWdVSZUrBKmZrrDK-16" edge="1">
          <mxGeometry width="160" relative="1" as="geometry">
            <mxPoint x="260" y="370" as="sourcePoint" />
            <mxPoint x="260" y="400" as="targetPoint" />
          </mxGeometry>
        </mxCell>
        <mxCell id="Yy00xWdVSZUrBKmZrrDK-6" style="edgeStyle=none;rounded=0;orthogonalLoop=1;jettySize=auto;html=1;entryX=0;entryY=0.5;entryDx=0;entryDy=0;endArrow=open;endFill=0;exitX=1.01;exitY=0.416;exitDx=0;exitDy=0;exitPerimeter=0;" parent="C51CaPQ0B-Lk0K0SkZ-6-1" source="Yy00xWdVSZUrBKmZrrDK-0" target="Yy00xWdVSZUrBKmZrrDK-2" edge="1">
          <mxGeometry relative="1" as="geometry" />
        </mxCell>
        <mxCell id="Yy00xWdVSZUrBKmZrrDK-0" value="&lt;p style=&quot;line-height: 100%&quot;&gt;&amp;lt;&amp;lt;actor&amp;gt;&amp;gt;&lt;br&gt;&lt;br&gt;&lt;b&gt;Maintenance &lt;br&gt;Specialist&lt;/b&gt;&lt;/p&gt;" style="text;html=1;align=center;verticalAlign=middle;dashed=0;strokeColor=#000000;strokeWidth=2;" parent="C51CaPQ0B-Lk0K0SkZ-6-1" vertex="1">
          <mxGeometry x="240" y="230" width="80" height="77" as="geometry" />
        </mxCell>
        <mxCell id="Yy00xWdVSZUrBKmZrrDK-1" value="" style="fontStyle=1;align=center;verticalAlign=top;childLayout=stackLayout;horizontal=1;horizontalStack=0;resizeParent=1;resizeParentMax=0;resizeLast=0;marginBottom=0;strokeColor=#82b366;strokeWidth=2;fillColor=none;" parent="C51CaPQ0B-Lk0K0SkZ-6-1" vertex="1">
          <mxGeometry x="380" y="280" width="120" height="83" as="geometry" />
        </mxCell>
        <mxCell id="Yy00xWdVSZUrBKmZrrDK-2" value="Retrieve Paged, &lt;br&gt;Sorted Filtered&lt;br&gt;SummaryItems of &lt;br&gt;Exceptions" style="html=1;align=left;spacingLeft=4;verticalAlign=middle;strokeColor=none;fillColor=none;fontStyle=1" parent="Yy00xWdVSZUrBKmZrrDK-1" vertex="1">
          <mxGeometry width="120" height="50" as="geometry" />
        </mxCell>
        <mxCell id="Yy00xWdVSZUrBKmZrrDK-3" value="" style="shape=ellipse;" parent="Yy00xWdVSZUrBKmZrrDK-2" vertex="1">
          <mxGeometry x="1" width="10" height="16" relative="1" as="geometry">
            <mxPoint x="-25" y="7" as="offset" />
          </mxGeometry>
        </mxCell>
        <mxCell id="Yy00xWdVSZUrBKmZrrDK-4" value="" style="line;strokeWidth=1;fillColor=none;align=left;verticalAlign=middle;spacingTop=-1;spacingLeft=3;spacingRight=3;rotatable=0;labelPosition=right;points=[];portConstraint=eastwest;" parent="Yy00xWdVSZUrBKmZrrDK-1" vertex="1">
          <mxGeometry y="50" width="120" height="8" as="geometry" />
        </mxCell>
        <mxCell id="Yy00xWdVSZUrBKmZrrDK-5" value="." style="html=1;align=center;spacingLeft=4;verticalAlign=top;strokeColor=none;fillColor=none;" parent="Yy00xWdVSZUrBKmZrrDK-1" vertex="1">
          <mxGeometry y="58" width="120" height="25" as="geometry" />
        </mxCell>
        <mxCell id="Yy00xWdVSZUrBKmZrrDK-8" style="edgeStyle=none;rounded=0;orthogonalLoop=1;jettySize=auto;html=1;entryX=0;entryY=0.75;entryDx=0;entryDy=0;endArrow=open;endFill=0;exitX=0.5;exitY=1;exitDx=0;exitDy=0;" parent="C51CaPQ0B-Lk0K0SkZ-6-1" source="Yy00xWdVSZUrBKmZrrDK-16" target="Yy00xWdVSZUrBKmZrrDK-2" edge="1">
          <mxGeometry relative="1" as="geometry">
            <mxPoint x="320" y="368.5" as="sourcePoint" />
            <Array as="points">
              <mxPoint x="160" y="318" />
            </Array>
          </mxGeometry>
        </mxCell>
        <mxCell id="Yy00xWdVSZUrBKmZrrDK-9" value="" style="fontStyle=1;align=center;verticalAlign=top;childLayout=stackLayout;horizontal=1;horizontalStack=0;resizeParent=1;resizeParentMax=0;resizeLast=0;marginBottom=0;strokeColor=#82b366;strokeWidth=2;fillColor=none;" parent="C51CaPQ0B-Lk0K0SkZ-6-1" vertex="1">
          <mxGeometry x="380" y="120" width="120" height="83" as="geometry" />
        </mxCell>
        <mxCell id="Yy00xWdVSZUrBKmZrrDK-10" value="Persist &lt;br&gt;Exception&lt;br&gt;Record" style="html=1;align=left;spacingLeft=4;verticalAlign=middle;strokeColor=none;fillColor=none;fontStyle=1" parent="Yy00xWdVSZUrBKmZrrDK-9" vertex="1">
          <mxGeometry width="120" height="50" as="geometry" />
        </mxCell>
        <mxCell id="Yy00xWdVSZUrBKmZrrDK-11" value="" style="shape=ellipse;" parent="Yy00xWdVSZUrBKmZrrDK-10" vertex="1">
          <mxGeometry x="1" width="10" height="16" relative="1" as="geometry">
            <mxPoint x="-25" y="7" as="offset" />
          </mxGeometry>
        </mxCell>
        <mxCell id="Yy00xWdVSZUrBKmZrrDK-12" value="" style="line;strokeWidth=1;fillColor=none;align=left;verticalAlign=middle;spacingTop=-1;spacingLeft=3;spacingRight=3;rotatable=0;labelPosition=right;points=[];portConstraint=eastwest;" parent="Yy00xWdVSZUrBKmZrrDK-9" vertex="1">
          <mxGeometry y="50" width="120" height="8" as="geometry" />
        </mxCell>
        <mxCell id="Yy00xWdVSZUrBKmZrrDK-13" value="." style="html=1;align=center;spacingLeft=4;verticalAlign=top;strokeColor=none;fillColor=none;" parent="Yy00xWdVSZUrBKmZrrDK-9" vertex="1">
          <mxGeometry y="58" width="120" height="25" as="geometry" />
        </mxCell>
        <mxCell id="Yy00xWdVSZUrBKmZrrDK-15" style="edgeStyle=none;rounded=0;orthogonalLoop=1;jettySize=auto;html=1;entryX=0;entryY=0.75;entryDx=0;entryDy=0;endArrow=open;endFill=0;" parent="C51CaPQ0B-Lk0K0SkZ-6-1" source="Yy00xWdVSZUrBKmZrrDK-14" target="Yy00xWdVSZUrBKmZrrDK-10" edge="1">
          <mxGeometry relative="1" as="geometry" />
        </mxCell>
        <mxCell id="Yy00xWdVSZUrBKmZrrDK-14" value="&lt;p style=&quot;line-height: 100%&quot;&gt;&amp;lt;&amp;lt;actor&amp;gt;&amp;gt;&lt;br&gt;&lt;br&gt;&lt;b&gt;System &lt;br&gt;Daemon&lt;/b&gt;&lt;/p&gt;" style="text;html=1;align=center;verticalAlign=middle;dashed=0;strokeColor=#000000;strokeWidth=2;" parent="C51CaPQ0B-Lk0K0SkZ-6-1" vertex="1">
          <mxGeometry x="240" y="120" width="80" height="77" as="geometry" />
        </mxCell>
        <mxCell id="Yy00xWdVSZUrBKmZrrDK-16" value="&lt;p style=&quot;line-height: 100%&quot;&gt;&amp;lt;&amp;lt;actor&amp;gt;&amp;gt;&lt;br&gt;&lt;br&gt;&lt;b&gt;Authenticated&lt;br&gt;User&lt;/b&gt;&lt;/p&gt;" style="text;html=1;align=center;verticalAlign=middle;dashed=0;strokeColor=#000000;strokeWidth=2;" parent="C51CaPQ0B-Lk0K0SkZ-6-1" vertex="1">
          <mxGeometry x="120" y="180" width="80" height="77" as="geometry" />
        </mxCell>
        <mxCell id="Yy00xWdVSZUrBKmZrrDK-17" value="" style="endArrow=block;endFill=0;endSize=12;html=1;strokeColor=#000000;fontSize=10;entryX=1;entryY=0.5;entryDx=0;entryDy=0;exitX=0;exitY=0.5;exitDx=0;exitDy=0;" parent="C51CaPQ0B-Lk0K0SkZ-6-1" source="Yy00xWdVSZUrBKmZrrDK-0" target="Yy00xWdVSZUrBKmZrrDK-16" edge="1">
          <mxGeometry width="160" relative="1" as="geometry">
            <mxPoint x="250" y="168.5" as="sourcePoint" />
            <mxPoint x="210" y="228.5" as="targetPoint" />
          </mxGeometry>
        </mxCell>
        <mxCell id="61ZLJjUHv4uxvvOGoFT--0" value="Title" parent="C51CaPQ0B-Lk0K0SkZ-6-0" visible="0" />
        <mxCell id="kI-nWUAVh75FRqppQIqm-5" value="&lt;font style=&quot;font-size: 12px&quot;&gt;&lt;span style=&quot;font-size: 12px&quot;&gt;Diagram: Base System Logical Module -&amp;nbsp;&lt;/span&gt;&lt;span style=&quot;font-size: 12px&quot;&gt;Functionality -&amp;nbsp;&lt;/span&gt;System Errors&lt;/font&gt;" style="text;strokeColor=none;fillColor=none;html=1;fontSize=12;fontStyle=2;verticalAlign=middle;align=left;shadow=0;glass=0;comic=0;opacity=30;fontColor=#808080;" parent="61ZLJjUHv4uxvvOGoFT--0" vertex="1">
          <mxGeometry x="120" y="380" width="520" height="20" as="geometry" />
        </mxCell>
        <mxCell id="61ZLJjUHv4uxvvOGoFT--1" value="Information" parent="C51CaPQ0B-Lk0K0SkZ-6-0" visible="0" />
        <UserObject label="" tooltip="ABOUT&#xa;&#xa;Although Diagnostic logs are a means to track down sequences of operations, Error Logs are a way to keep a record of Exceptions, in order to better find a pattern. They also happen to be useful as the basis of a visual demonstration that effort and iterative deployments are contributing to a decreasing number of unexpected errors (hopefully)." id="kI-nWUAVh75FRqppQIqm-6">
          <mxCell style="shape=image;html=1;verticalAlign=top;verticalLabelPosition=bottom;labelBackgroundColor=#ffffff;imageAspect=0;aspect=fixed;image=https://cdn1.iconfinder.com/data/icons/hawcons/32/699014-icon-28-information-128.png;shadow=0;dashed=0;fontFamily=Helvetica;fontSize=12;fontColor=#000000;align=center;strokeColor=#000000;fillColor=#505050;dashPattern=1 1;" parent="61ZLJjUHv4uxvvOGoFT--1" vertex="1">
            <mxGeometry x="660" y="380" width="20" height="20" as="geometry" />
          </mxCell>
        </UserObject>
      </root>
    </mxGraphModel>
  </diagram>
  <diagram id="EolY4kBKU89a1tHCZlCg" name="SysStatus">
    <mxGraphModel dx="1711" dy="741" grid="1" gridSize="10" guides="1" tooltips="1" connect="0" arrows="1" fold="1" page="1" pageScale="1" pageWidth="827" pageHeight="1169" math="0" shadow="0">
      <root>
        <mxCell id="32lxiAtwSbNcVohbTVrE-0" />
        <mxCell id="32lxiAtwSbNcVohbTVrE-1" parent="32lxiAtwSbNcVohbTVrE-0" />
        <mxCell id="eDF7SFJ-pdUWGWhBbYTZ-11" value="&lt;font style=&quot;font-size: 12px&quot;&gt;&lt;span style=&quot;font-size: 12px&quot;&gt;Diagram: Base&amp;nbsp;&lt;/span&gt;System&amp;nbsp;&lt;span style=&quot;font-size: 12px&quot;&gt;Logical Module -&amp;nbsp;&lt;/span&gt;&lt;span style=&quot;font-size: 12px&quot;&gt;Functionality -&amp;nbsp;&lt;/span&gt;System Status Messages&lt;/font&gt;" style="text;strokeColor=none;fillColor=none;html=1;fontSize=12;fontStyle=2;verticalAlign=middle;align=left;shadow=0;glass=0;comic=0;opacity=30;fontColor=#808080;" parent="32lxiAtwSbNcVohbTVrE-1" vertex="1">
          <mxGeometry x="120" y="437" width="520" height="28" as="geometry" />
        </mxCell>
        <mxCell id="GP0h0LNX_-3c74tFgDjU-0" value="" style="fontStyle=1;align=center;verticalAlign=top;childLayout=stackLayout;horizontal=1;horizontalStack=0;resizeParent=1;resizeParentMax=0;resizeLast=0;marginBottom=0;strokeColor=#82b366;strokeWidth=2;fillColor=none;" parent="32lxiAtwSbNcVohbTVrE-1" vertex="1">
          <mxGeometry x="380" y="160" width="120" height="93" as="geometry" />
        </mxCell>
        <mxCell id="GP0h0LNX_-3c74tFgDjU-1" value="View Paged, &lt;br&gt;Ordered, &lt;br&gt;Filtered List of&amp;nbsp;&lt;br&gt;SummaryItems of&lt;br&gt;StatusMessage" style="html=1;align=left;spacingLeft=4;verticalAlign=middle;strokeColor=none;fillColor=none;fontStyle=1" parent="GP0h0LNX_-3c74tFgDjU-0" vertex="1">
          <mxGeometry width="120" height="60" as="geometry" />
        </mxCell>
        <mxCell id="GP0h0LNX_-3c74tFgDjU-2" value="" style="shape=ellipse;" parent="GP0h0LNX_-3c74tFgDjU-1" vertex="1">
          <mxGeometry x="1" width="10" height="16" relative="1" as="geometry">
            <mxPoint x="-25" y="7" as="offset" />
          </mxGeometry>
        </mxCell>
        <mxCell id="GP0h0LNX_-3c74tFgDjU-3" value="" style="line;strokeWidth=1;fillColor=none;align=left;verticalAlign=middle;spacingTop=-1;spacingLeft=3;spacingRight=3;rotatable=0;labelPosition=right;points=[];portConstraint=eastwest;" parent="GP0h0LNX_-3c74tFgDjU-0" vertex="1">
          <mxGeometry y="60" width="120" height="8" as="geometry" />
        </mxCell>
        <mxCell id="GP0h0LNX_-3c74tFgDjU-4" value="." style="html=1;align=center;spacingLeft=4;verticalAlign=top;strokeColor=none;fillColor=none;" parent="GP0h0LNX_-3c74tFgDjU-0" vertex="1">
          <mxGeometry y="68" width="120" height="25" as="geometry" />
        </mxCell>
        <mxCell id="GP0h0LNX_-3c74tFgDjU-6" style="edgeStyle=none;rounded=0;orthogonalLoop=1;jettySize=auto;html=1;entryX=0;entryY=0.75;entryDx=0;entryDy=0;endArrow=open;endFill=0;" parent="32lxiAtwSbNcVohbTVrE-1" source="GP0h0LNX_-3c74tFgDjU-5" target="GP0h0LNX_-3c74tFgDjU-1" edge="1">
          <mxGeometry relative="1" as="geometry" />
        </mxCell>
        <mxCell id="GP0h0LNX_-3c74tFgDjU-5" value="&lt;p style=&quot;line-height: 100%&quot;&gt;&amp;lt;&amp;lt;actor&amp;gt;&amp;gt;&lt;br&gt;&lt;br&gt;&lt;b&gt;Authenticated&lt;br&gt;User&lt;/b&gt;&lt;/p&gt;" style="text;html=1;align=center;verticalAlign=middle;dashed=0;strokeColor=#000000;strokeWidth=2;" parent="32lxiAtwSbNcVohbTVrE-1" vertex="1">
          <mxGeometry x="120" y="168" width="80" height="77" as="geometry" />
        </mxCell>
        <mxCell id="GP0h0LNX_-3c74tFgDjU-13" style="edgeStyle=none;rounded=0;orthogonalLoop=1;jettySize=auto;html=1;entryX=0;entryY=0.25;entryDx=0;entryDy=0;endArrow=open;endFill=0;" parent="32lxiAtwSbNcVohbTVrE-1" source="GP0h0LNX_-3c74tFgDjU-7" target="GP0h0LNX_-3c74tFgDjU-12" edge="1">
          <mxGeometry relative="1" as="geometry" />
        </mxCell>
        <mxCell id="GP0h0LNX_-3c74tFgDjU-18" style="edgeStyle=none;rounded=0;orthogonalLoop=1;jettySize=auto;html=1;endArrow=block;endFill=0;" parent="32lxiAtwSbNcVohbTVrE-1" source="GP0h0LNX_-3c74tFgDjU-7" edge="1">
          <mxGeometry relative="1" as="geometry">
            <mxPoint x="159.99999999999977" y="239.9999999999999" as="targetPoint" />
            <Array as="points">
              <mxPoint x="160" y="399" />
            </Array>
          </mxGeometry>
        </mxCell>
        <mxCell id="GP0h0LNX_-3c74tFgDjU-7" value="&lt;p style=&quot;line-height: 100%&quot;&gt;&amp;lt;&amp;lt;actor&amp;gt;&amp;gt;&lt;br&gt;&lt;br&gt;&lt;b&gt;System &lt;br&gt;Daemon&lt;/b&gt;&lt;/p&gt;" style="text;html=1;align=center;verticalAlign=middle;dashed=0;strokeColor=#000000;strokeWidth=2;" parent="32lxiAtwSbNcVohbTVrE-1" vertex="1">
          <mxGeometry x="240" y="360" width="80" height="77" as="geometry" />
        </mxCell>
        <mxCell id="GP0h0LNX_-3c74tFgDjU-8" value="" style="fontStyle=1;align=center;verticalAlign=top;childLayout=stackLayout;horizontal=1;horizontalStack=0;resizeParent=1;resizeParentMax=0;resizeLast=0;marginBottom=0;strokeColor=#82b366;strokeWidth=2;fillColor=none;" parent="32lxiAtwSbNcVohbTVrE-1" vertex="1">
          <mxGeometry x="380" y="300" width="120" height="83" as="geometry" />
        </mxCell>
        <mxCell id="GP0h0LNX_-3c74tFgDjU-9" value="Write &lt;br&gt;Status Message" style="html=1;align=left;spacingLeft=4;verticalAlign=middle;strokeColor=none;fillColor=none;fontStyle=1" parent="GP0h0LNX_-3c74tFgDjU-8" vertex="1">
          <mxGeometry width="120" height="50" as="geometry" />
        </mxCell>
        <mxCell id="GP0h0LNX_-3c74tFgDjU-10" value="" style="shape=ellipse;" parent="GP0h0LNX_-3c74tFgDjU-9" vertex="1">
          <mxGeometry x="1" width="10" height="16" relative="1" as="geometry">
            <mxPoint x="-25" y="7" as="offset" />
          </mxGeometry>
        </mxCell>
        <mxCell id="GP0h0LNX_-3c74tFgDjU-11" value="" style="line;strokeWidth=1;fillColor=none;align=left;verticalAlign=middle;spacingTop=-1;spacingLeft=3;spacingRight=3;rotatable=0;labelPosition=right;points=[];portConstraint=eastwest;" parent="GP0h0LNX_-3c74tFgDjU-8" vertex="1">
          <mxGeometry y="50" width="120" height="8" as="geometry" />
        </mxCell>
        <mxCell id="GP0h0LNX_-3c74tFgDjU-12" value="." style="html=1;align=center;spacingLeft=4;verticalAlign=top;strokeColor=none;fillColor=none;" parent="GP0h0LNX_-3c74tFgDjU-8" vertex="1">
          <mxGeometry y="58" width="120" height="25" as="geometry" />
        </mxCell>
        <mxCell id="GP0h0LNX_-3c74tFgDjU-15" style="edgeStyle=none;rounded=0;orthogonalLoop=1;jettySize=auto;html=1;endArrow=open;endFill=0;" parent="32lxiAtwSbNcVohbTVrE-1" source="GP0h0LNX_-3c74tFgDjU-14" edge="1">
          <mxGeometry relative="1" as="geometry">
            <mxPoint x="380" y="330" as="targetPoint" />
          </mxGeometry>
        </mxCell>
        <mxCell id="GP0h0LNX_-3c74tFgDjU-16" style="edgeStyle=none;rounded=0;orthogonalLoop=1;jettySize=auto;html=1;entryX=0.5;entryY=1;entryDx=0;entryDy=0;endArrow=block;endFill=0;" parent="32lxiAtwSbNcVohbTVrE-1" source="GP0h0LNX_-3c74tFgDjU-14" target="GP0h0LNX_-3c74tFgDjU-5" edge="1">
          <mxGeometry relative="1" as="geometry">
            <Array as="points">
              <mxPoint x="160" y="299" />
            </Array>
          </mxGeometry>
        </mxCell>
        <mxCell id="GP0h0LNX_-3c74tFgDjU-14" value="&lt;p style=&quot;line-height: 100%&quot;&gt;&amp;lt;&amp;lt;actor&amp;gt;&amp;gt;&lt;br&gt;&lt;br&gt;&lt;b&gt;Customer &lt;br&gt;Support&lt;br&gt;Specialist&lt;/b&gt;&lt;/p&gt;" style="text;html=1;align=center;verticalAlign=middle;dashed=0;strokeColor=#000000;strokeWidth=2;" parent="32lxiAtwSbNcVohbTVrE-1" vertex="1">
          <mxGeometry x="240" y="260" width="80" height="77" as="geometry" />
        </mxCell>
      </root>
    </mxGraphModel>
  </diagram>
  <diagram id="q3oa4CLkm8zUHQofmj7r" name="Disclosures">
    <mxGraphModel dx="1711" dy="741" grid="1" gridSize="10" guides="1" tooltips="1" connect="1" arrows="1" fold="1" page="1" pageScale="1" pageWidth="827" pageHeight="1169" math="0" shadow="0">
      <root>
        <mxCell id="YJ2Z8KhdvcNMjBGm8vIW-0" />
        <mxCell id="YJ2Z8KhdvcNMjBGm8vIW-1" parent="YJ2Z8KhdvcNMjBGm8vIW-0" />
        <mxCell id="kb0BIKLx2f4cQ5WW09md-0" value="" style="fontStyle=1;align=center;verticalAlign=top;childLayout=stackLayout;horizontal=1;horizontalStack=0;resizeParent=1;resizeParentMax=0;resizeLast=0;marginBottom=0;strokeColor=#82b366;strokeWidth=2;fillColor=none;" parent="YJ2Z8KhdvcNMjBGm8vIW-1" vertex="1">
          <mxGeometry x="280" y="200" width="120" height="83" as="geometry" />
        </mxCell>
        <mxCell id="kb0BIKLx2f4cQ5WW09md-1" value="View Disclosure&lt;br&gt;and/or&lt;br&gt;Terms" style="html=1;align=left;spacingLeft=4;verticalAlign=middle;strokeColor=none;fillColor=none;fontStyle=1" parent="kb0BIKLx2f4cQ5WW09md-0" vertex="1">
          <mxGeometry width="120" height="50" as="geometry" />
        </mxCell>
        <mxCell id="kb0BIKLx2f4cQ5WW09md-2" value="" style="shape=ellipse;" parent="kb0BIKLx2f4cQ5WW09md-1" vertex="1">
          <mxGeometry x="1" width="10" height="16" relative="1" as="geometry">
            <mxPoint x="-25" y="7" as="offset" />
          </mxGeometry>
        </mxCell>
        <mxCell id="kb0BIKLx2f4cQ5WW09md-3" value="" style="line;strokeWidth=1;fillColor=none;align=left;verticalAlign=middle;spacingTop=-1;spacingLeft=3;spacingRight=3;rotatable=0;labelPosition=right;points=[];portConstraint=eastwest;" parent="kb0BIKLx2f4cQ5WW09md-0" vertex="1">
          <mxGeometry y="50" width="120" height="8" as="geometry" />
        </mxCell>
        <mxCell id="kb0BIKLx2f4cQ5WW09md-4" value="." style="html=1;align=center;spacingLeft=4;verticalAlign=top;strokeColor=none;fillColor=none;" parent="kb0BIKLx2f4cQ5WW09md-0" vertex="1">
          <mxGeometry y="58" width="120" height="25" as="geometry" />
        </mxCell>
        <mxCell id="kb0BIKLx2f4cQ5WW09md-20" style="edgeStyle=none;rounded=0;orthogonalLoop=1;jettySize=auto;html=1;entryX=0;entryY=0.75;entryDx=0;entryDy=0;endArrow=open;endFill=0;" parent="YJ2Z8KhdvcNMjBGm8vIW-1" source="kb0BIKLx2f4cQ5WW09md-6" target="kb0BIKLx2f4cQ5WW09md-1" edge="1">
          <mxGeometry relative="1" as="geometry" />
        </mxCell>
        <mxCell id="kb0BIKLx2f4cQ5WW09md-21" style="edgeStyle=none;rounded=0;orthogonalLoop=1;jettySize=auto;html=1;entryX=0;entryY=0.75;entryDx=0;entryDy=0;endArrow=open;endFill=0;" parent="YJ2Z8KhdvcNMjBGm8vIW-1" source="kb0BIKLx2f4cQ5WW09md-6" target="kb0BIKLx2f4cQ5WW09md-10" edge="1">
          <mxGeometry relative="1" as="geometry" />
        </mxCell>
        <mxCell id="kb0BIKLx2f4cQ5WW09md-6" value="&lt;p style=&quot;line-height: 100%&quot;&gt;&amp;lt;&amp;lt;actor&amp;gt;&amp;gt;&lt;br&gt;&lt;br&gt;&lt;b&gt;Authenticated&lt;br&gt;User&lt;/b&gt;&lt;/p&gt;" style="text;html=1;align=center;verticalAlign=middle;dashed=0;strokeColor=#000000;strokeWidth=2;" parent="YJ2Z8KhdvcNMjBGm8vIW-1" vertex="1">
          <mxGeometry x="120" y="200" width="80" height="77" as="geometry" />
        </mxCell>
        <mxCell id="kb0BIKLx2f4cQ5WW09md-19" style="edgeStyle=none;rounded=0;orthogonalLoop=1;jettySize=auto;html=1;entryX=0;entryY=0.75;entryDx=0;entryDy=0;endArrow=open;endFill=0;" parent="YJ2Z8KhdvcNMjBGm8vIW-1" source="kb0BIKLx2f4cQ5WW09md-7" target="kb0BIKLx2f4cQ5WW09md-15" edge="1">
          <mxGeometry relative="1" as="geometry" />
        </mxCell>
        <mxCell id="kb0BIKLx2f4cQ5WW09md-7" value="&lt;p style=&quot;line-height: 100%&quot;&gt;&amp;lt;&amp;lt;actor&amp;gt;&amp;gt;&lt;br&gt;&lt;br&gt;&lt;b&gt;Group Admin&lt;/b&gt;&lt;/p&gt;" style="text;html=1;align=center;verticalAlign=middle;dashed=0;strokeColor=#000000;strokeWidth=2;" parent="YJ2Z8KhdvcNMjBGm8vIW-1" vertex="1">
          <mxGeometry x="120" y="100" width="80" height="77" as="geometry" />
        </mxCell>
        <mxCell id="kb0BIKLx2f4cQ5WW09md-9" value="" style="fontStyle=1;align=center;verticalAlign=top;childLayout=stackLayout;horizontal=1;horizontalStack=0;resizeParent=1;resizeParentMax=0;resizeLast=0;marginBottom=0;strokeColor=#82b366;strokeWidth=2;fillColor=none;" parent="YJ2Z8KhdvcNMjBGm8vIW-1" vertex="1">
          <mxGeometry x="280" y="290" width="120" height="83" as="geometry" />
        </mxCell>
        <mxCell id="kb0BIKLx2f4cQ5WW09md-10" value="Accept Version of &lt;br&gt;Terms" style="html=1;align=left;spacingLeft=4;verticalAlign=middle;strokeColor=none;fillColor=none;fontStyle=1" parent="kb0BIKLx2f4cQ5WW09md-9" vertex="1">
          <mxGeometry width="120" height="50" as="geometry" />
        </mxCell>
        <mxCell id="kb0BIKLx2f4cQ5WW09md-11" value="" style="shape=ellipse;" parent="kb0BIKLx2f4cQ5WW09md-10" vertex="1">
          <mxGeometry x="1" width="10" height="16" relative="1" as="geometry">
            <mxPoint x="-25" y="7" as="offset" />
          </mxGeometry>
        </mxCell>
        <mxCell id="kb0BIKLx2f4cQ5WW09md-12" value="" style="line;strokeWidth=1;fillColor=none;align=left;verticalAlign=middle;spacingTop=-1;spacingLeft=3;spacingRight=3;rotatable=0;labelPosition=right;points=[];portConstraint=eastwest;" parent="kb0BIKLx2f4cQ5WW09md-9" vertex="1">
          <mxGeometry y="50" width="120" height="8" as="geometry" />
        </mxCell>
        <mxCell id="kb0BIKLx2f4cQ5WW09md-13" value="." style="html=1;align=center;spacingLeft=4;verticalAlign=top;strokeColor=none;fillColor=none;" parent="kb0BIKLx2f4cQ5WW09md-9" vertex="1">
          <mxGeometry y="58" width="120" height="25" as="geometry" />
        </mxCell>
        <mxCell id="kb0BIKLx2f4cQ5WW09md-14" value="" style="fontStyle=1;align=center;verticalAlign=top;childLayout=stackLayout;horizontal=1;horizontalStack=0;resizeParent=1;resizeParentMax=0;resizeLast=0;marginBottom=0;strokeColor=#82b366;strokeWidth=2;fillColor=none;" parent="YJ2Z8KhdvcNMjBGm8vIW-1" vertex="1">
          <mxGeometry x="280" y="100" width="120" height="83" as="geometry" />
        </mxCell>
        <mxCell id="kb0BIKLx2f4cQ5WW09md-15" value="Publish new &lt;br&gt;Version&amp;nbsp;of Terms" style="html=1;align=left;spacingLeft=4;verticalAlign=middle;strokeColor=none;fillColor=none;fontStyle=1" parent="kb0BIKLx2f4cQ5WW09md-14" vertex="1">
          <mxGeometry width="120" height="50" as="geometry" />
        </mxCell>
        <mxCell id="kb0BIKLx2f4cQ5WW09md-16" value="" style="shape=ellipse;" parent="kb0BIKLx2f4cQ5WW09md-15" vertex="1">
          <mxGeometry x="1" width="10" height="16" relative="1" as="geometry">
            <mxPoint x="-25" y="7" as="offset" />
          </mxGeometry>
        </mxCell>
        <mxCell id="kb0BIKLx2f4cQ5WW09md-17" value="" style="line;strokeWidth=1;fillColor=none;align=left;verticalAlign=middle;spacingTop=-1;spacingLeft=3;spacingRight=3;rotatable=0;labelPosition=right;points=[];portConstraint=eastwest;" parent="kb0BIKLx2f4cQ5WW09md-14" vertex="1">
          <mxGeometry y="50" width="120" height="8" as="geometry" />
        </mxCell>
        <mxCell id="kb0BIKLx2f4cQ5WW09md-18" value="." style="html=1;align=center;spacingLeft=4;verticalAlign=top;strokeColor=none;fillColor=none;" parent="kb0BIKLx2f4cQ5WW09md-14" vertex="1">
          <mxGeometry y="58" width="120" height="25" as="geometry" />
        </mxCell>
        <mxCell id="kb0BIKLx2f4cQ5WW09md-22" value="" style="fontStyle=1;align=center;verticalAlign=top;childLayout=stackLayout;horizontal=1;horizontalStack=0;resizeParent=1;resizeParentMax=0;resizeLast=0;marginBottom=0;strokeColor=#82b366;strokeWidth=2;fillColor=none;" parent="YJ2Z8KhdvcNMjBGm8vIW-1" vertex="1">
          <mxGeometry x="280" y="380" width="120" height="83" as="geometry" />
        </mxCell>
        <mxCell id="kb0BIKLx2f4cQ5WW09md-23" value="List Accepted &lt;br&gt;Versions" style="html=1;align=left;spacingLeft=4;verticalAlign=middle;strokeColor=none;fillColor=none;fontStyle=1" parent="kb0BIKLx2f4cQ5WW09md-22" vertex="1">
          <mxGeometry width="120" height="50" as="geometry" />
        </mxCell>
        <mxCell id="kb0BIKLx2f4cQ5WW09md-24" value="" style="shape=ellipse;" parent="kb0BIKLx2f4cQ5WW09md-23" vertex="1">
          <mxGeometry x="1" width="10" height="16" relative="1" as="geometry">
            <mxPoint x="-25" y="7" as="offset" />
          </mxGeometry>
        </mxCell>
        <mxCell id="kb0BIKLx2f4cQ5WW09md-25" value="" style="line;strokeWidth=1;fillColor=none;align=left;verticalAlign=middle;spacingTop=-1;spacingLeft=3;spacingRight=3;rotatable=0;labelPosition=right;points=[];portConstraint=eastwest;" parent="kb0BIKLx2f4cQ5WW09md-22" vertex="1">
          <mxGeometry y="50" width="120" height="8" as="geometry" />
        </mxCell>
        <mxCell id="kb0BIKLx2f4cQ5WW09md-26" value="." style="html=1;align=center;spacingLeft=4;verticalAlign=top;strokeColor=none;fillColor=none;" parent="kb0BIKLx2f4cQ5WW09md-22" vertex="1">
          <mxGeometry y="58" width="120" height="25" as="geometry" />
        </mxCell>
      </root>
    </mxGraphModel>
  </diagram>
  <diagram id="Ejtf3LYvVK-f6g9C-ugk" name="Module Management">
    <mxGraphModel dx="1711" dy="741" grid="1" gridSize="10" guides="1" tooltips="1" connect="1" arrows="1" fold="1" page="1" pageScale="1" pageWidth="827" pageHeight="1169" math="0" shadow="0">
      <root>
        <mxCell id="oZGsi7SANBZzed72GmKH-0" />
        <mxCell id="oZGsi7SANBZzed72GmKH-1" parent="oZGsi7SANBZzed72GmKH-0" />
        <mxCell id="Ah4b7YtR8JSupcsxefLh-12" value="&lt;font style=&quot;font-size: 12px&quot;&gt;&lt;i style=&quot;font-weight: normal&quot;&gt;&lt;span style=&quot;font-size: 12px&quot;&gt;Diagram: Base&amp;nbsp;&lt;/span&gt;&lt;/i&gt;&lt;span style=&quot;font-style: italic ; font-weight: 400&quot;&gt;System&lt;/span&gt;&lt;span style=&quot;font-style: italic ; font-weight: 400&quot;&gt;&amp;nbsp;&lt;/span&gt;&lt;i style=&quot;font-weight: normal&quot;&gt;&lt;span style=&quot;font-size: 12px&quot;&gt;Logical Module -&amp;nbsp;&lt;/span&gt;&lt;span style=&quot;font-size: 12px&quot;&gt;Functionality -&amp;nbsp;&lt;/span&gt;System Modules&lt;/i&gt;&lt;/font&gt;" style="text;strokeColor=none;fillColor=none;html=1;fontSize=12;fontStyle=1;verticalAlign=middle;align=left;shadow=0;glass=0;comic=0;opacity=30;fontColor=#808080;" parent="oZGsi7SANBZzed72GmKH-1" vertex="1">
          <mxGeometry x="120" y="655" width="520" height="20" as="geometry" />
        </mxCell>
        <UserObject label="" tooltip="ABOUT&#xa;&#xa;Systems that are expected to be maintainable and improvable over a long duration are expected to broken down into separate Logical Modules to keep them from growing into one un-maintainable, monolithic &quot;ball of mud&quot;. &#xa;&#xa;&#xa;&#xa;The first Logical Module (the &quot;Core&quot; module deals with issues common to just about all IT systems: diagnostics, errors, sessions, identity, authorisation, commands, system and application context and status information, tenancies, media, etc.&#xa;&#xa;&#xa;&#xa;By reusing and leveraging common Core functionality and models, other modules can remain focused on a specific business problem (Schooling, Pharmacies, Food handling, etc.) while remaining easy and cost effective to develop and extend. &#xa;&#xa;&#xa;Note:&#xa;as shown more clearly in the Development View, Logical Modules are made up of a set of Assemblies." id="Ah4b7YtR8JSupcsxefLh-13">
          <mxCell style="shape=image;html=1;verticalAlign=top;verticalLabelPosition=bottom;labelBackgroundColor=#ffffff;imageAspect=0;aspect=fixed;image=https://cdn1.iconfinder.com/data/icons/hawcons/32/699014-icon-28-information-128.png;shadow=0;dashed=0;fontFamily=Helvetica;fontSize=12;fontColor=#000000;align=center;strokeColor=#000000;fillColor=#505050;dashPattern=1 1;" parent="oZGsi7SANBZzed72GmKH-1" vertex="1">
            <mxGeometry x="660" y="665" width="20" height="20" as="geometry" />
          </mxCell>
        </UserObject>
        <mxCell id="BaTy3wc9_1nbsWXVdK0K-0" value="" style="endArrow=block;endFill=0;endSize=12;html=1;strokeColor=#000000;fontSize=10;entryX=1;entryY=0.5;entryDx=0;entryDy=0;exitX=0;exitY=0.5;exitDx=0;exitDy=0;" parent="oZGsi7SANBZzed72GmKH-1" source="BaTy3wc9_1nbsWXVdK0K-15" target="BaTy3wc9_1nbsWXVdK0K-16" edge="1">
          <mxGeometry width="160" relative="1" as="geometry">
            <mxPoint x="260" y="487" as="sourcePoint" />
            <mxPoint x="260" y="517" as="targetPoint" />
          </mxGeometry>
        </mxCell>
        <mxCell id="BaTy3wc9_1nbsWXVdK0K-1" style="edgeStyle=none;rounded=0;orthogonalLoop=1;jettySize=auto;html=1;entryX=0;entryY=0.5;entryDx=0;entryDy=0;endArrow=open;endFill=0;exitX=0.5;exitY=1;exitDx=0;exitDy=0;" parent="oZGsi7SANBZzed72GmKH-1" source="BaTy3wc9_1nbsWXVdK0K-2" target="BaTy3wc9_1nbsWXVdK0K-4" edge="1">
          <mxGeometry relative="1" as="geometry">
            <Array as="points">
              <mxPoint x="280" y="485" />
            </Array>
          </mxGeometry>
        </mxCell>
        <mxCell id="BaTy3wc9_1nbsWXVdK0K-23" style="edgeStyle=none;rounded=0;orthogonalLoop=1;jettySize=auto;html=1;entryX=0;entryY=0.5;entryDx=0;entryDy=0;endArrow=open;endFill=0;" parent="oZGsi7SANBZzed72GmKH-1" source="BaTy3wc9_1nbsWXVdK0K-2" target="BaTy3wc9_1nbsWXVdK0K-19" edge="1">
          <mxGeometry relative="1" as="geometry" />
        </mxCell>
        <mxCell id="BaTy3wc9_1nbsWXVdK0K-2" value="&lt;p style=&quot;line-height: 100%&quot;&gt;&amp;lt;&amp;lt;actor&amp;gt;&amp;gt;&lt;br&gt;&lt;br&gt;&lt;b&gt;Tenant&lt;br&gt;Admin&lt;/b&gt;&lt;/p&gt;" style="text;html=1;align=center;verticalAlign=middle;dashed=0;strokeColor=#000000;strokeWidth=2;" parent="oZGsi7SANBZzed72GmKH-1" vertex="1">
          <mxGeometry x="240" y="347" width="80" height="77" as="geometry" />
        </mxCell>
        <mxCell id="BaTy3wc9_1nbsWXVdK0K-3" value="" style="fontStyle=1;align=center;verticalAlign=top;childLayout=stackLayout;horizontal=1;horizontalStack=0;resizeParent=1;resizeParentMax=0;resizeLast=0;marginBottom=0;strokeColor=#82b366;strokeWidth=2;fillColor=none;" parent="oZGsi7SANBZzed72GmKH-1" vertex="1">
          <mxGeometry x="380" y="460" width="120" height="83" as="geometry" />
        </mxCell>
        <mxCell id="BaTy3wc9_1nbsWXVdK0K-4" value="Retrieve Paged, &lt;br&gt;Sorted Filtered&lt;br&gt;SummaryItems of &lt;br&gt;Exceptions" style="html=1;align=left;spacingLeft=4;verticalAlign=middle;strokeColor=none;fillColor=none;fontStyle=1" parent="BaTy3wc9_1nbsWXVdK0K-3" vertex="1">
          <mxGeometry width="120" height="50" as="geometry" />
        </mxCell>
        <mxCell id="BaTy3wc9_1nbsWXVdK0K-5" value="" style="shape=ellipse;" parent="BaTy3wc9_1nbsWXVdK0K-4" vertex="1">
          <mxGeometry x="1" width="10" height="16" relative="1" as="geometry">
            <mxPoint x="-25" y="7" as="offset" />
          </mxGeometry>
        </mxCell>
        <mxCell id="BaTy3wc9_1nbsWXVdK0K-6" value="" style="line;strokeWidth=1;fillColor=none;align=left;verticalAlign=middle;spacingTop=-1;spacingLeft=3;spacingRight=3;rotatable=0;labelPosition=right;points=[];portConstraint=eastwest;" parent="BaTy3wc9_1nbsWXVdK0K-3" vertex="1">
          <mxGeometry y="50" width="120" height="8" as="geometry" />
        </mxCell>
        <mxCell id="BaTy3wc9_1nbsWXVdK0K-7" value="." style="html=1;align=center;spacingLeft=4;verticalAlign=top;strokeColor=none;fillColor=none;" parent="BaTy3wc9_1nbsWXVdK0K-3" vertex="1">
          <mxGeometry y="58" width="120" height="25" as="geometry" />
        </mxCell>
        <mxCell id="BaTy3wc9_1nbsWXVdK0K-9" value="" style="fontStyle=1;align=center;verticalAlign=top;childLayout=stackLayout;horizontal=1;horizontalStack=0;resizeParent=1;resizeParentMax=0;resizeLast=0;marginBottom=0;strokeColor=#82b366;strokeWidth=2;fillColor=none;" parent="oZGsi7SANBZzed72GmKH-1" vertex="1">
          <mxGeometry x="380" y="237" width="120" height="83" as="geometry" />
        </mxCell>
        <mxCell id="BaTy3wc9_1nbsWXVdK0K-10" value="Enable/Disable&lt;br&gt;Module" style="html=1;align=left;spacingLeft=4;verticalAlign=middle;strokeColor=none;fillColor=none;fontStyle=1" parent="BaTy3wc9_1nbsWXVdK0K-9" vertex="1">
          <mxGeometry width="120" height="50" as="geometry" />
        </mxCell>
        <mxCell id="BaTy3wc9_1nbsWXVdK0K-11" value="" style="shape=ellipse;" parent="BaTy3wc9_1nbsWXVdK0K-10" vertex="1">
          <mxGeometry x="1" width="10" height="16" relative="1" as="geometry">
            <mxPoint x="-25" y="7" as="offset" />
          </mxGeometry>
        </mxCell>
        <mxCell id="BaTy3wc9_1nbsWXVdK0K-12" value="" style="line;strokeWidth=1;fillColor=none;align=left;verticalAlign=middle;spacingTop=-1;spacingLeft=3;spacingRight=3;rotatable=0;labelPosition=right;points=[];portConstraint=eastwest;" parent="BaTy3wc9_1nbsWXVdK0K-9" vertex="1">
          <mxGeometry y="50" width="120" height="8" as="geometry" />
        </mxCell>
        <mxCell id="BaTy3wc9_1nbsWXVdK0K-13" value="." style="html=1;align=center;spacingLeft=4;verticalAlign=top;strokeColor=none;fillColor=none;" parent="BaTy3wc9_1nbsWXVdK0K-9" vertex="1">
          <mxGeometry y="58" width="120" height="25" as="geometry" />
        </mxCell>
        <mxCell id="BaTy3wc9_1nbsWXVdK0K-14" style="edgeStyle=none;rounded=0;orthogonalLoop=1;jettySize=auto;html=1;entryX=0;entryY=0.75;entryDx=0;entryDy=0;endArrow=open;endFill=0;" parent="oZGsi7SANBZzed72GmKH-1" source="BaTy3wc9_1nbsWXVdK0K-15" target="BaTy3wc9_1nbsWXVdK0K-10" edge="1">
          <mxGeometry relative="1" as="geometry" />
        </mxCell>
        <mxCell id="BaTy3wc9_1nbsWXVdK0K-15" value="&lt;p style=&quot;line-height: 100%&quot;&gt;&amp;lt;&amp;lt;actor&amp;gt;&amp;gt;&lt;br&gt;&lt;br&gt;&lt;b&gt;Maintenance &lt;br&gt;Specialist&lt;/b&gt;&lt;/p&gt;" style="text;html=1;align=center;verticalAlign=middle;dashed=0;strokeColor=#000000;strokeWidth=2;" parent="oZGsi7SANBZzed72GmKH-1" vertex="1">
          <mxGeometry x="240" y="237" width="80" height="77" as="geometry" />
        </mxCell>
        <mxCell id="BaTy3wc9_1nbsWXVdK0K-16" value="&lt;p style=&quot;line-height: 100%&quot;&gt;&amp;lt;&amp;lt;actor&amp;gt;&amp;gt;&lt;br&gt;&lt;br&gt;&lt;b&gt;Authenticated&lt;br&gt;User&lt;/b&gt;&lt;/p&gt;" style="text;html=1;align=center;verticalAlign=middle;dashed=0;strokeColor=#000000;strokeWidth=2;" parent="oZGsi7SANBZzed72GmKH-1" vertex="1">
          <mxGeometry x="120" y="297" width="80" height="77" as="geometry" />
        </mxCell>
        <mxCell id="BaTy3wc9_1nbsWXVdK0K-17" value="" style="endArrow=block;endFill=0;endSize=12;html=1;strokeColor=#000000;fontSize=10;entryX=1;entryY=0.5;entryDx=0;entryDy=0;exitX=0;exitY=0.5;exitDx=0;exitDy=0;" parent="oZGsi7SANBZzed72GmKH-1" source="BaTy3wc9_1nbsWXVdK0K-2" target="BaTy3wc9_1nbsWXVdK0K-16" edge="1">
          <mxGeometry width="160" relative="1" as="geometry">
            <mxPoint x="250" y="285.5" as="sourcePoint" />
            <mxPoint x="210" y="345.5" as="targetPoint" />
          </mxGeometry>
        </mxCell>
        <mxCell id="BaTy3wc9_1nbsWXVdK0K-18" value="" style="fontStyle=1;align=center;verticalAlign=top;childLayout=stackLayout;horizontal=1;horizontalStack=0;resizeParent=1;resizeParentMax=0;resizeLast=0;marginBottom=0;strokeColor=#82b366;strokeWidth=2;fillColor=none;" parent="oZGsi7SANBZzed72GmKH-1" vertex="1">
          <mxGeometry x="380" y="347" width="120" height="83" as="geometry" />
        </mxCell>
        <mxCell id="BaTy3wc9_1nbsWXVdK0K-19" value="De/Associate &lt;br&gt;Module to &lt;br&gt;Tenancy" style="html=1;align=left;spacingLeft=4;verticalAlign=middle;strokeColor=none;fillColor=none;fontStyle=1" parent="BaTy3wc9_1nbsWXVdK0K-18" vertex="1">
          <mxGeometry width="120" height="50" as="geometry" />
        </mxCell>
        <mxCell id="BaTy3wc9_1nbsWXVdK0K-20" value="" style="shape=ellipse;" parent="BaTy3wc9_1nbsWXVdK0K-19" vertex="1">
          <mxGeometry x="1" width="10" height="16" relative="1" as="geometry">
            <mxPoint x="-25" y="7" as="offset" />
          </mxGeometry>
        </mxCell>
        <mxCell id="BaTy3wc9_1nbsWXVdK0K-21" value="" style="line;strokeWidth=1;fillColor=none;align=left;verticalAlign=middle;spacingTop=-1;spacingLeft=3;spacingRight=3;rotatable=0;labelPosition=right;points=[];portConstraint=eastwest;" parent="BaTy3wc9_1nbsWXVdK0K-18" vertex="1">
          <mxGeometry y="50" width="120" height="8" as="geometry" />
        </mxCell>
        <mxCell id="BaTy3wc9_1nbsWXVdK0K-22" value="." style="html=1;align=center;spacingLeft=4;verticalAlign=top;strokeColor=none;fillColor=none;" parent="BaTy3wc9_1nbsWXVdK0K-18" vertex="1">
          <mxGeometry y="58" width="120" height="25" as="geometry" />
        </mxCell>
        <mxCell id="BaTy3wc9_1nbsWXVdK0K-25" value="" style="fontStyle=1;align=center;verticalAlign=top;childLayout=stackLayout;horizontal=1;horizontalStack=0;resizeParent=1;resizeParentMax=0;resizeLast=0;marginBottom=0;strokeColor=#82b366;strokeWidth=2;fillColor=none;" parent="oZGsi7SANBZzed72GmKH-1" vertex="1">
          <mxGeometry x="379" y="570" width="120" height="83" as="geometry" />
        </mxCell>
        <mxCell id="BaTy3wc9_1nbsWXVdK0K-26" value="View Single &lt;br&gt;Module &lt;br&gt;Description" style="html=1;align=left;spacingLeft=4;verticalAlign=middle;strokeColor=none;fillColor=none;fontStyle=1" parent="BaTy3wc9_1nbsWXVdK0K-25" vertex="1">
          <mxGeometry width="120" height="50" as="geometry" />
        </mxCell>
        <mxCell id="BaTy3wc9_1nbsWXVdK0K-27" value="" style="shape=ellipse;" parent="BaTy3wc9_1nbsWXVdK0K-26" vertex="1">
          <mxGeometry x="1" width="10" height="16" relative="1" as="geometry">
            <mxPoint x="-25" y="7" as="offset" />
          </mxGeometry>
        </mxCell>
        <mxCell id="BaTy3wc9_1nbsWXVdK0K-28" value="" style="line;strokeWidth=1;fillColor=none;align=left;verticalAlign=middle;spacingTop=-1;spacingLeft=3;spacingRight=3;rotatable=0;labelPosition=right;points=[];portConstraint=eastwest;" parent="BaTy3wc9_1nbsWXVdK0K-25" vertex="1">
          <mxGeometry y="50" width="120" height="8" as="geometry" />
        </mxCell>
        <mxCell id="BaTy3wc9_1nbsWXVdK0K-29" value="." style="html=1;align=center;spacingLeft=4;verticalAlign=top;strokeColor=none;fillColor=none;" parent="BaTy3wc9_1nbsWXVdK0K-25" vertex="1">
          <mxGeometry y="58" width="120" height="25" as="geometry" />
        </mxCell>
        <mxCell id="BaTy3wc9_1nbsWXVdK0K-30" style="edgeStyle=none;rounded=0;orthogonalLoop=1;jettySize=auto;html=1;entryX=0.5;entryY=1;entryDx=0;entryDy=0;endArrow=open;endFill=0;" parent="oZGsi7SANBZzed72GmKH-1" source="BaTy3wc9_1nbsWXVdK0K-26" target="BaTy3wc9_1nbsWXVdK0K-2" edge="1">
          <mxGeometry relative="1" as="geometry">
            <Array as="points">
              <mxPoint x="280" y="600" />
            </Array>
          </mxGeometry>
        </mxCell>
      </root>
    </mxGraphModel>
  </diagram>
  <diagram id="6OFNXAW6JjE1FlRbkoN5" name="Command Queue">
    <mxGraphModel dx="1711" dy="741" grid="1" gridSize="10" guides="1" tooltips="1" connect="1" arrows="1" fold="1" page="1" pageScale="1" pageWidth="827" pageHeight="1169" math="0" shadow="0">
      <root>
        <mxCell id="LG1R4LiIlNsXxnt8L3_L-0" />
        <mxCell id="LG1R4LiIlNsXxnt8L3_L-1" parent="LG1R4LiIlNsXxnt8L3_L-0" />
        <mxCell id="AECcQKfykFGmC37lzjBa-16" value="&lt;font style=&quot;font-size: 12px&quot;&gt;&lt;span&gt;Diagram: Base&amp;nbsp;&lt;/span&gt;System&amp;nbsp;&lt;span&gt;Logical Module -&amp;nbsp;&lt;/span&gt;&lt;span&gt;Functionality -&amp;nbsp;&lt;/span&gt;System Commands&amp;nbsp;&lt;/font&gt;" style="text;strokeColor=none;fillColor=none;html=1;fontSize=10;fontStyle=2;verticalAlign=middle;align=left;shadow=0;glass=0;comic=0;opacity=30;fontColor=#808080;" parent="LG1R4LiIlNsXxnt8L3_L-1" vertex="1">
          <mxGeometry x="120" y="660" width="520" height="20" as="geometry" />
        </mxCell>
        <UserObject label="" tooltip="ABOUT&#xa;&#xa;In systems that manipulate Agreements (whether that be Contract statements, asset or currency transactions, etc.) the operations must be handled via an Operation Track. &#xa;This is non-negotiable, as there is a large probability that at some point an error in logic will be introduced with a new feature, discovered later, and operations have be rewound to be replayed -- this time with the correct maths. Not planning to have this functionality is reputationally damaging -- sometimes leading to organisation failure (nobody likes receiving less money than they feel entitled to). &#xa;" id="AECcQKfykFGmC37lzjBa-17">
          <mxCell style="shape=image;html=1;verticalAlign=top;verticalLabelPosition=bottom;labelBackgroundColor=#ffffff;imageAspect=0;aspect=fixed;image=https://cdn1.iconfinder.com/data/icons/hawcons/32/699014-icon-28-information-128.png;shadow=0;dashed=0;fontFamily=Helvetica;fontSize=12;fontColor=#000000;align=center;strokeColor=#000000;fillColor=#505050;dashPattern=1 1;" parent="LG1R4LiIlNsXxnt8L3_L-1" vertex="1">
            <mxGeometry x="660" y="660" width="20" height="20" as="geometry" />
          </mxCell>
        </UserObject>
        <mxCell id="Ue-xxqDdYE5qmhYY7tYk-0" value="" style="fontStyle=1;align=center;verticalAlign=top;childLayout=stackLayout;horizontal=1;horizontalStack=0;resizeParent=1;resizeParentMax=0;resizeLast=0;marginBottom=0;strokeColor=#82b366;strokeWidth=2;fillColor=none;" parent="LG1R4LiIlNsXxnt8L3_L-1" vertex="1">
          <mxGeometry x="360" y="400" width="120" height="93" as="geometry" />
        </mxCell>
        <mxCell id="Ue-xxqDdYE5qmhYY7tYk-1" value="Add a serialized &lt;br&gt;Command to &lt;br&gt;Command Queue" style="html=1;align=left;spacingLeft=4;verticalAlign=middle;strokeColor=none;fillColor=none;fontStyle=1" parent="Ue-xxqDdYE5qmhYY7tYk-0" vertex="1">
          <mxGeometry width="120" height="60" as="geometry" />
        </mxCell>
        <mxCell id="Ue-xxqDdYE5qmhYY7tYk-2" value="" style="shape=ellipse;" parent="Ue-xxqDdYE5qmhYY7tYk-1" vertex="1">
          <mxGeometry x="1" width="10" height="16" relative="1" as="geometry">
            <mxPoint x="-25" y="7" as="offset" />
          </mxGeometry>
        </mxCell>
        <mxCell id="Ue-xxqDdYE5qmhYY7tYk-3" value="" style="line;strokeWidth=1;fillColor=none;align=left;verticalAlign=middle;spacingTop=-1;spacingLeft=3;spacingRight=3;rotatable=0;labelPosition=right;points=[];portConstraint=eastwest;" parent="Ue-xxqDdYE5qmhYY7tYk-0" vertex="1">
          <mxGeometry y="60" width="120" height="8" as="geometry" />
        </mxCell>
        <mxCell id="Ue-xxqDdYE5qmhYY7tYk-4" value="." style="html=1;align=center;spacingLeft=4;verticalAlign=top;strokeColor=none;fillColor=none;" parent="Ue-xxqDdYE5qmhYY7tYk-0" vertex="1">
          <mxGeometry y="68" width="120" height="25" as="geometry" />
        </mxCell>
        <mxCell id="Ue-xxqDdYE5qmhYY7tYk-5" style="rounded=0;orthogonalLoop=1;jettySize=auto;html=1;entryX=0;entryY=0.75;entryDx=0;entryDy=0;endArrow=open;endFill=0;exitX=1;exitY=1;exitDx=0;exitDy=0;" parent="LG1R4LiIlNsXxnt8L3_L-1" source="Ue-xxqDdYE5qmhYY7tYk-6" target="Ue-xxqDdYE5qmhYY7tYk-1" edge="1">
          <mxGeometry relative="1" as="geometry" />
        </mxCell>
        <mxCell id="BTB03IHmnFTw1apKpfme-10" style="edgeStyle=none;rounded=0;orthogonalLoop=1;jettySize=auto;html=1;entryX=0.5;entryY=1;entryDx=0;entryDy=0;endArrow=block;endFill=0;" parent="LG1R4LiIlNsXxnt8L3_L-1" source="Ue-xxqDdYE5qmhYY7tYk-6" target="BTB03IHmnFTw1apKpfme-0" edge="1">
          <mxGeometry relative="1" as="geometry" />
        </mxCell>
        <mxCell id="Ue-xxqDdYE5qmhYY7tYk-6" value="&lt;p style=&quot;line-height: 100%&quot;&gt;&amp;lt;&amp;lt;actor&amp;gt;&amp;gt;&lt;br&gt;&lt;br&gt;&lt;b&gt;Authenticated&lt;br&gt;User&lt;/b&gt;&lt;/p&gt;" style="text;html=1;align=center;verticalAlign=middle;dashed=0;strokeColor=#000000;strokeWidth=2;" parent="LG1R4LiIlNsXxnt8L3_L-1" vertex="1">
          <mxGeometry x="120" y="278" width="80" height="77" as="geometry" />
        </mxCell>
        <mxCell id="Ue-xxqDdYE5qmhYY7tYk-7" style="edgeStyle=none;rounded=0;orthogonalLoop=1;jettySize=auto;html=1;entryX=0;entryY=0.75;entryDx=0;entryDy=0;endArrow=open;endFill=0;" parent="LG1R4LiIlNsXxnt8L3_L-1" source="Ue-xxqDdYE5qmhYY7tYk-9" target="Ue-xxqDdYE5qmhYY7tYk-11" edge="1">
          <mxGeometry relative="1" as="geometry" />
        </mxCell>
        <mxCell id="BTB03IHmnFTw1apKpfme-8" style="edgeStyle=none;rounded=0;orthogonalLoop=1;jettySize=auto;html=1;entryX=0;entryY=0.25;entryDx=0;entryDy=0;endArrow=open;endFill=0;exitX=1;exitY=0;exitDx=0;exitDy=0;" parent="LG1R4LiIlNsXxnt8L3_L-1" source="Ue-xxqDdYE5qmhYY7tYk-9" target="BTB03IHmnFTw1apKpfme-5" edge="1">
          <mxGeometry relative="1" as="geometry" />
        </mxCell>
        <mxCell id="BTB03IHmnFTw1apKpfme-9" style="edgeStyle=none;rounded=0;orthogonalLoop=1;jettySize=auto;html=1;entryX=1;entryY=0.5;entryDx=0;entryDy=0;endArrow=block;endFill=0;" parent="LG1R4LiIlNsXxnt8L3_L-1" source="Ue-xxqDdYE5qmhYY7tYk-9" target="Ue-xxqDdYE5qmhYY7tYk-6" edge="1">
          <mxGeometry relative="1" as="geometry" />
        </mxCell>
        <mxCell id="Ue-xxqDdYE5qmhYY7tYk-9" value="&lt;p style=&quot;line-height: 100%&quot;&gt;&amp;lt;&amp;lt;actor&amp;gt;&amp;gt;&lt;br&gt;&lt;br&gt;&lt;b&gt;System &lt;br&gt;Daemon&lt;/b&gt;&lt;/p&gt;" style="text;html=1;align=center;verticalAlign=middle;dashed=0;strokeColor=#000000;strokeWidth=2;" parent="LG1R4LiIlNsXxnt8L3_L-1" vertex="1">
          <mxGeometry x="240" y="278" width="80" height="77" as="geometry" />
        </mxCell>
        <mxCell id="Ue-xxqDdYE5qmhYY7tYk-10" value="" style="fontStyle=1;align=center;verticalAlign=top;childLayout=stackLayout;horizontal=1;horizontalStack=0;resizeParent=1;resizeParentMax=0;resizeLast=0;marginBottom=0;strokeColor=#82b366;strokeWidth=2;fillColor=none;" parent="LG1R4LiIlNsXxnt8L3_L-1" vertex="1">
          <mxGeometry x="360" y="278" width="120" height="83" as="geometry" />
        </mxCell>
        <mxCell id="Ue-xxqDdYE5qmhYY7tYk-11" value="Dequeue and&amp;nbsp;&lt;br&gt;Process Command &lt;br&gt;QUeue" style="html=1;align=left;spacingLeft=4;verticalAlign=middle;strokeColor=none;fillColor=none;fontStyle=1" parent="Ue-xxqDdYE5qmhYY7tYk-10" vertex="1">
          <mxGeometry width="120" height="50" as="geometry" />
        </mxCell>
        <mxCell id="Ue-xxqDdYE5qmhYY7tYk-12" value="" style="shape=ellipse;" parent="Ue-xxqDdYE5qmhYY7tYk-11" vertex="1">
          <mxGeometry x="1" width="10" height="16" relative="1" as="geometry">
            <mxPoint x="-25" y="7" as="offset" />
          </mxGeometry>
        </mxCell>
        <mxCell id="Ue-xxqDdYE5qmhYY7tYk-13" value="" style="line;strokeWidth=1;fillColor=none;align=left;verticalAlign=middle;spacingTop=-1;spacingLeft=3;spacingRight=3;rotatable=0;labelPosition=right;points=[];portConstraint=eastwest;" parent="Ue-xxqDdYE5qmhYY7tYk-10" vertex="1">
          <mxGeometry y="50" width="120" height="8" as="geometry" />
        </mxCell>
        <mxCell id="Ue-xxqDdYE5qmhYY7tYk-14" value="." style="html=1;align=center;spacingLeft=4;verticalAlign=top;strokeColor=none;fillColor=none;" parent="Ue-xxqDdYE5qmhYY7tYk-10" vertex="1">
          <mxGeometry y="58" width="120" height="25" as="geometry" />
        </mxCell>
        <mxCell id="BTB03IHmnFTw1apKpfme-11" style="edgeStyle=none;rounded=0;orthogonalLoop=1;jettySize=auto;html=1;entryX=0;entryY=0.75;entryDx=0;entryDy=0;endArrow=open;endFill=0;" parent="LG1R4LiIlNsXxnt8L3_L-1" source="BTB03IHmnFTw1apKpfme-0" target="BTB03IHmnFTw1apKpfme-2" edge="1">
          <mxGeometry relative="1" as="geometry" />
        </mxCell>
        <mxCell id="BTB03IHmnFTw1apKpfme-0" value="&lt;p style=&quot;line-height: 100%&quot;&gt;&amp;lt;&amp;lt;actor&amp;gt;&amp;gt;&lt;br&gt;&lt;br&gt;&lt;b&gt;Unauthenticated&lt;br&gt;User&lt;/b&gt;&lt;/p&gt;" style="text;html=1;align=center;verticalAlign=middle;dashed=0;strokeColor=#000000;strokeWidth=2;" parent="LG1R4LiIlNsXxnt8L3_L-1" vertex="1">
          <mxGeometry x="120" y="160" width="80" height="77" as="geometry" />
        </mxCell>
        <mxCell id="BTB03IHmnFTw1apKpfme-1" value="" style="fontStyle=1;align=center;verticalAlign=top;childLayout=stackLayout;horizontal=1;horizontalStack=0;resizeParent=1;resizeParentMax=0;resizeLast=0;marginBottom=0;strokeColor=#82b366;strokeWidth=2;fillColor=none;" parent="LG1R4LiIlNsXxnt8L3_L-1" vertex="1">
          <mxGeometry x="360" y="160.5" width="120" height="83" as="geometry" />
        </mxCell>
        <mxCell id="BTB03IHmnFTw1apKpfme-2" value="Add a serialized &lt;br&gt;Process Command to &lt;br&gt;Command Log" style="html=1;align=left;spacingLeft=4;verticalAlign=middle;strokeColor=none;fillColor=none;fontStyle=1" parent="BTB03IHmnFTw1apKpfme-1" vertex="1">
          <mxGeometry width="120" height="50" as="geometry" />
        </mxCell>
        <mxCell id="BTB03IHmnFTw1apKpfme-3" value="" style="shape=ellipse;" parent="BTB03IHmnFTw1apKpfme-2" vertex="1">
          <mxGeometry x="1" width="10" height="16" relative="1" as="geometry">
            <mxPoint x="-25" y="7" as="offset" />
          </mxGeometry>
        </mxCell>
        <mxCell id="BTB03IHmnFTw1apKpfme-4" value="" style="line;strokeWidth=1;fillColor=none;align=left;verticalAlign=middle;spacingTop=-1;spacingLeft=3;spacingRight=3;rotatable=0;labelPosition=right;points=[];portConstraint=eastwest;" parent="BTB03IHmnFTw1apKpfme-1" vertex="1">
          <mxGeometry y="50" width="120" height="8" as="geometry" />
        </mxCell>
        <mxCell id="BTB03IHmnFTw1apKpfme-5" value="." style="html=1;align=center;spacingLeft=4;verticalAlign=top;strokeColor=none;fillColor=none;" parent="BTB03IHmnFTw1apKpfme-1" vertex="1">
          <mxGeometry y="58" width="120" height="25" as="geometry" />
        </mxCell>
        <mxCell id="BTB03IHmnFTw1apKpfme-18" style="edgeStyle=none;rounded=0;orthogonalLoop=1;jettySize=auto;html=1;entryX=0.5;entryY=1;entryDx=0;entryDy=0;endArrow=block;endFill=0;exitX=0;exitY=0.5;exitDx=0;exitDy=0;" parent="LG1R4LiIlNsXxnt8L3_L-1" source="BTB03IHmnFTw1apKpfme-12" target="Ue-xxqDdYE5qmhYY7tYk-6" edge="1">
          <mxGeometry relative="1" as="geometry">
            <Array as="points">
              <mxPoint x="160" y="577" />
            </Array>
          </mxGeometry>
        </mxCell>
        <mxCell id="BTB03IHmnFTw1apKpfme-19" style="edgeStyle=none;rounded=0;orthogonalLoop=1;jettySize=auto;html=1;entryX=0;entryY=0.75;entryDx=0;entryDy=0;endArrow=open;endFill=0;" parent="LG1R4LiIlNsXxnt8L3_L-1" source="BTB03IHmnFTw1apKpfme-12" target="BTB03IHmnFTw1apKpfme-14" edge="1">
          <mxGeometry relative="1" as="geometry" />
        </mxCell>
        <mxCell id="BTB03IHmnFTw1apKpfme-12" value="&lt;p style=&quot;line-height: 100%&quot;&gt;&amp;lt;&amp;lt;actor&amp;gt;&amp;gt;&lt;br&gt;&lt;br&gt;&lt;b&gt;Deployment&lt;br&gt;Specialist&lt;/b&gt;&lt;/p&gt;" style="text;html=1;align=center;verticalAlign=middle;dashed=0;strokeColor=#000000;strokeWidth=2;" parent="LG1R4LiIlNsXxnt8L3_L-1" vertex="1">
          <mxGeometry x="240" y="538" width="80" height="77" as="geometry" />
        </mxCell>
        <mxCell id="BTB03IHmnFTw1apKpfme-13" value="" style="fontStyle=1;align=center;verticalAlign=top;childLayout=stackLayout;horizontal=1;horizontalStack=0;resizeParent=1;resizeParentMax=0;resizeLast=0;marginBottom=0;strokeColor=#82b366;strokeWidth=2;fillColor=none;" parent="LG1R4LiIlNsXxnt8L3_L-1" vertex="1">
          <mxGeometry x="360" y="530" width="120" height="93" as="geometry" />
        </mxCell>
        <mxCell id="BTB03IHmnFTw1apKpfme-14" value="Restore DB &amp;amp; &lt;br&gt;reprocess &#39;new&#39; &lt;br&gt;queue" style="html=1;align=left;spacingLeft=4;verticalAlign=middle;strokeColor=none;fillColor=none;fontStyle=1" parent="BTB03IHmnFTw1apKpfme-13" vertex="1">
          <mxGeometry width="120" height="60" as="geometry" />
        </mxCell>
        <mxCell id="BTB03IHmnFTw1apKpfme-15" value="" style="shape=ellipse;" parent="BTB03IHmnFTw1apKpfme-14" vertex="1">
          <mxGeometry x="1" width="10" height="16" relative="1" as="geometry">
            <mxPoint x="-25" y="7" as="offset" />
          </mxGeometry>
        </mxCell>
        <mxCell id="BTB03IHmnFTw1apKpfme-16" value="" style="line;strokeWidth=1;fillColor=none;align=left;verticalAlign=middle;spacingTop=-1;spacingLeft=3;spacingRight=3;rotatable=0;labelPosition=right;points=[];portConstraint=eastwest;" parent="BTB03IHmnFTw1apKpfme-13" vertex="1">
          <mxGeometry y="60" width="120" height="8" as="geometry" />
        </mxCell>
        <mxCell id="BTB03IHmnFTw1apKpfme-17" value="." style="html=1;align=center;spacingLeft=4;verticalAlign=top;strokeColor=none;fillColor=none;" parent="BTB03IHmnFTw1apKpfme-13" vertex="1">
          <mxGeometry y="68" width="120" height="25" as="geometry" />
        </mxCell>
      </root>
    </mxGraphModel>
  </diagram>
  <diagram id="4Fcouh2BOil3m4Ah38D0" name="User">
    <mxGraphModel dx="1711" dy="741" grid="1" gridSize="10" guides="1" tooltips="1" connect="1" arrows="1" fold="1" page="1" pageScale="1" pageWidth="827" pageHeight="1169" math="0" shadow="0">
      <root>
        <mxCell id="CIMFs1MfGYt-mXThH3dG-0" />
        <mxCell id="CIMFs1MfGYt-mXThH3dG-1" parent="CIMFs1MfGYt-mXThH3dG-0" />
        <mxCell id="KprZA-LBd2Wsys3MRVgW-25" style="edgeStyle=none;rounded=0;orthogonalLoop=1;jettySize=auto;html=1;entryX=0;entryY=1;entryDx=0;entryDy=0;endArrow=open;endFill=0;exitX=1;exitY=0.25;exitDx=0;exitDy=0;" parent="CIMFs1MfGYt-mXThH3dG-1" source="KprZA-LBd2Wsys3MRVgW-0" target="KprZA-LBd2Wsys3MRVgW-2" edge="1">
          <mxGeometry relative="1" as="geometry" />
        </mxCell>
        <mxCell id="KprZA-LBd2Wsys3MRVgW-26" style="edgeStyle=none;rounded=0;orthogonalLoop=1;jettySize=auto;html=1;entryX=0;entryY=0.75;entryDx=0;entryDy=0;endArrow=open;endFill=0;exitX=1;exitY=0.5;exitDx=0;exitDy=0;" parent="CIMFs1MfGYt-mXThH3dG-1" source="KprZA-LBd2Wsys3MRVgW-0" target="KprZA-LBd2Wsys3MRVgW-33" edge="1">
          <mxGeometry relative="1" as="geometry" />
        </mxCell>
        <mxCell id="KprZA-LBd2Wsys3MRVgW-27" style="edgeStyle=none;rounded=0;orthogonalLoop=1;jettySize=auto;html=1;entryX=0;entryY=1;entryDx=0;entryDy=0;endArrow=open;endFill=0;exitX=1;exitY=0.75;exitDx=0;exitDy=0;" parent="CIMFs1MfGYt-mXThH3dG-1" source="KprZA-LBd2Wsys3MRVgW-0" target="KprZA-LBd2Wsys3MRVgW-16" edge="1">
          <mxGeometry relative="1" as="geometry" />
        </mxCell>
        <mxCell id="KprZA-LBd2Wsys3MRVgW-37" style="edgeStyle=none;rounded=0;orthogonalLoop=1;jettySize=auto;html=1;entryX=0;entryY=1;entryDx=0;entryDy=0;endArrow=open;endFill=0;exitX=1;exitY=0.75;exitDx=0;exitDy=0;" parent="CIMFs1MfGYt-mXThH3dG-1" source="KprZA-LBd2Wsys3MRVgW-0" target="KprZA-LBd2Wsys3MRVgW-11" edge="1">
          <mxGeometry relative="1" as="geometry" />
        </mxCell>
        <mxCell id="KprZA-LBd2Wsys3MRVgW-0" value="&lt;p style=&quot;line-height: 100%&quot;&gt;&amp;lt;&amp;lt;actor&amp;gt;&amp;gt;&lt;br&gt;&lt;br&gt;&lt;b&gt;Authenticated&lt;br&gt;User&lt;br&gt;&lt;br&gt;&lt;/b&gt;&lt;/p&gt;" style="text;html=1;align=center;verticalAlign=middle;dashed=0;strokeColor=#000000;strokeWidth=2;" parent="CIMFs1MfGYt-mXThH3dG-1" vertex="1">
          <mxGeometry x="120" y="160" width="80" height="77" as="geometry" />
        </mxCell>
        <mxCell id="KprZA-LBd2Wsys3MRVgW-1" value="" style="fontStyle=1;align=center;verticalAlign=top;childLayout=stackLayout;horizontal=1;horizontalStack=0;resizeParent=1;resizeParentMax=0;resizeLast=0;marginBottom=0;strokeColor=#82b366;strokeWidth=2;fillColor=none;" parent="CIMFs1MfGYt-mXThH3dG-1" vertex="1">
          <mxGeometry x="240" y="160" width="110" height="63" as="geometry" />
        </mxCell>
        <mxCell id="KprZA-LBd2Wsys3MRVgW-2" value="List SummaryItem&lt;br&gt;of Group Members" style="html=1;align=left;spacingLeft=4;verticalAlign=middle;strokeColor=none;fillColor=none;fontStyle=1" parent="KprZA-LBd2Wsys3MRVgW-1" vertex="1">
          <mxGeometry width="110" height="30" as="geometry" />
        </mxCell>
        <mxCell id="KprZA-LBd2Wsys3MRVgW-3" value="" style="shape=ellipse;" parent="KprZA-LBd2Wsys3MRVgW-2" vertex="1">
          <mxGeometry x="1" width="10" height="16" relative="1" as="geometry">
            <mxPoint x="-25" y="7" as="offset" />
          </mxGeometry>
        </mxCell>
        <mxCell id="KprZA-LBd2Wsys3MRVgW-4" value="" style="line;strokeWidth=1;fillColor=none;align=left;verticalAlign=middle;spacingTop=-1;spacingLeft=3;spacingRight=3;rotatable=0;labelPosition=right;points=[];portConstraint=eastwest;" parent="KprZA-LBd2Wsys3MRVgW-1" vertex="1">
          <mxGeometry y="30" width="110" height="8" as="geometry" />
        </mxCell>
        <mxCell id="KprZA-LBd2Wsys3MRVgW-5" value="." style="html=1;align=center;spacingLeft=4;verticalAlign=top;strokeColor=none;fillColor=none;" parent="KprZA-LBd2Wsys3MRVgW-1" vertex="1">
          <mxGeometry y="38" width="110" height="25" as="geometry" />
        </mxCell>
        <mxCell id="KprZA-LBd2Wsys3MRVgW-10" value="" style="fontStyle=1;align=center;verticalAlign=top;childLayout=stackLayout;horizontal=1;horizontalStack=0;resizeParent=1;resizeParentMax=0;resizeLast=0;marginBottom=0;strokeColor=#82b366;strokeWidth=2;fillColor=none;" parent="CIMFs1MfGYt-mXThH3dG-1" vertex="1">
          <mxGeometry x="240" y="300" width="110" height="63" as="geometry" />
        </mxCell>
        <mxCell id="KprZA-LBd2Wsys3MRVgW-11" value="View Self" style="html=1;align=left;spacingLeft=4;verticalAlign=middle;strokeColor=none;fillColor=none;fontStyle=1" parent="KprZA-LBd2Wsys3MRVgW-10" vertex="1">
          <mxGeometry width="110" height="30" as="geometry" />
        </mxCell>
        <mxCell id="KprZA-LBd2Wsys3MRVgW-12" value="" style="shape=ellipse;" parent="KprZA-LBd2Wsys3MRVgW-11" vertex="1">
          <mxGeometry x="1" width="10" height="16" relative="1" as="geometry">
            <mxPoint x="-25" y="7" as="offset" />
          </mxGeometry>
        </mxCell>
        <mxCell id="KprZA-LBd2Wsys3MRVgW-13" value="" style="line;strokeWidth=1;fillColor=none;align=left;verticalAlign=middle;spacingTop=-1;spacingLeft=3;spacingRight=3;rotatable=0;labelPosition=right;points=[];portConstraint=eastwest;" parent="KprZA-LBd2Wsys3MRVgW-10" vertex="1">
          <mxGeometry y="30" width="110" height="8" as="geometry" />
        </mxCell>
        <mxCell id="KprZA-LBd2Wsys3MRVgW-14" value="." style="html=1;align=center;spacingLeft=4;verticalAlign=top;strokeColor=none;fillColor=none;" parent="KprZA-LBd2Wsys3MRVgW-10" vertex="1">
          <mxGeometry y="38" width="110" height="25" as="geometry" />
        </mxCell>
        <mxCell id="KprZA-LBd2Wsys3MRVgW-15" value="" style="fontStyle=1;align=center;verticalAlign=top;childLayout=stackLayout;horizontal=1;horizontalStack=0;resizeParent=1;resizeParentMax=0;resizeLast=0;marginBottom=0;strokeColor=#82b366;strokeWidth=2;fillColor=none;" parent="CIMFs1MfGYt-mXThH3dG-1" vertex="1">
          <mxGeometry x="240" y="370" width="110" height="63" as="geometry" />
        </mxCell>
        <mxCell id="KprZA-LBd2Wsys3MRVgW-16" value="Update &lt;br&gt;Self" style="html=1;align=left;spacingLeft=4;verticalAlign=middle;strokeColor=none;fillColor=none;fontStyle=1" parent="KprZA-LBd2Wsys3MRVgW-15" vertex="1">
          <mxGeometry width="110" height="30" as="geometry" />
        </mxCell>
        <mxCell id="KprZA-LBd2Wsys3MRVgW-17" value="" style="shape=ellipse;" parent="KprZA-LBd2Wsys3MRVgW-16" vertex="1">
          <mxGeometry x="1" width="10" height="16" relative="1" as="geometry">
            <mxPoint x="-25" y="7" as="offset" />
          </mxGeometry>
        </mxCell>
        <mxCell id="KprZA-LBd2Wsys3MRVgW-18" value="" style="line;strokeWidth=1;fillColor=none;align=left;verticalAlign=middle;spacingTop=-1;spacingLeft=3;spacingRight=3;rotatable=0;labelPosition=right;points=[];portConstraint=eastwest;" parent="KprZA-LBd2Wsys3MRVgW-15" vertex="1">
          <mxGeometry y="30" width="110" height="8" as="geometry" />
        </mxCell>
        <mxCell id="KprZA-LBd2Wsys3MRVgW-19" value="." style="html=1;align=center;spacingLeft=4;verticalAlign=top;strokeColor=none;fillColor=none;" parent="KprZA-LBd2Wsys3MRVgW-15" vertex="1">
          <mxGeometry y="38" width="110" height="25" as="geometry" />
        </mxCell>
        <mxCell id="KprZA-LBd2Wsys3MRVgW-20" value="" style="fontStyle=1;align=center;verticalAlign=top;childLayout=stackLayout;horizontal=1;horizontalStack=0;resizeParent=1;resizeParentMax=0;resizeLast=0;marginBottom=0;strokeColor=#82b366;strokeWidth=2;fillColor=none;" parent="CIMFs1MfGYt-mXThH3dG-1" vertex="1">
          <mxGeometry x="240" y="440" width="110" height="63" as="geometry" />
        </mxCell>
        <mxCell id="KprZA-LBd2Wsys3MRVgW-21" value="Change State&lt;br&gt;Of Member" style="html=1;align=left;spacingLeft=4;verticalAlign=middle;strokeColor=none;fillColor=none;fontStyle=1" parent="KprZA-LBd2Wsys3MRVgW-20" vertex="1">
          <mxGeometry width="110" height="30" as="geometry" />
        </mxCell>
        <mxCell id="KprZA-LBd2Wsys3MRVgW-22" value="" style="shape=ellipse;" parent="KprZA-LBd2Wsys3MRVgW-21" vertex="1">
          <mxGeometry x="1" width="10" height="16" relative="1" as="geometry">
            <mxPoint x="-25" y="7" as="offset" />
          </mxGeometry>
        </mxCell>
        <mxCell id="KprZA-LBd2Wsys3MRVgW-23" value="" style="line;strokeWidth=1;fillColor=none;align=left;verticalAlign=middle;spacingTop=-1;spacingLeft=3;spacingRight=3;rotatable=0;labelPosition=right;points=[];portConstraint=eastwest;" parent="KprZA-LBd2Wsys3MRVgW-20" vertex="1">
          <mxGeometry y="30" width="110" height="8" as="geometry" />
        </mxCell>
        <mxCell id="KprZA-LBd2Wsys3MRVgW-24" value="." style="html=1;align=center;spacingLeft=4;verticalAlign=top;strokeColor=none;fillColor=none;" parent="KprZA-LBd2Wsys3MRVgW-20" vertex="1">
          <mxGeometry y="38" width="110" height="25" as="geometry" />
        </mxCell>
        <mxCell id="KprZA-LBd2Wsys3MRVgW-31" style="edgeStyle=none;rounded=0;orthogonalLoop=1;jettySize=auto;html=1;entryX=0;entryY=1;entryDx=0;entryDy=0;endArrow=open;endFill=0;exitX=1;exitY=0.5;exitDx=0;exitDy=0;" parent="CIMFs1MfGYt-mXThH3dG-1" source="KprZA-LBd2Wsys3MRVgW-28" target="KprZA-LBd2Wsys3MRVgW-21" edge="1">
          <mxGeometry relative="1" as="geometry" />
        </mxCell>
        <mxCell id="KprZA-LBd2Wsys3MRVgW-28" value="&lt;p style=&quot;line-height: 100%&quot;&gt;&amp;lt;&amp;lt;actor&amp;gt;&amp;gt;&lt;br&gt;&lt;br&gt;&lt;b&gt;SysAdmin&lt;/b&gt;&lt;/p&gt;" style="text;html=1;align=center;verticalAlign=middle;dashed=0;strokeColor=#000000;strokeWidth=2;" parent="CIMFs1MfGYt-mXThH3dG-1" vertex="1">
          <mxGeometry x="120" y="252" width="80" height="77" as="geometry" />
        </mxCell>
        <mxCell id="KprZA-LBd2Wsys3MRVgW-30" style="edgeStyle=none;rounded=0;orthogonalLoop=1;jettySize=auto;html=1;entryX=-0.001;entryY=-0.317;entryDx=0;entryDy=0;entryPerimeter=0;endArrow=open;endFill=0;exitX=1;exitY=0.5;exitDx=0;exitDy=0;" parent="CIMFs1MfGYt-mXThH3dG-1" source="KprZA-LBd2Wsys3MRVgW-29" target="KprZA-LBd2Wsys3MRVgW-23" edge="1">
          <mxGeometry relative="1" as="geometry" />
        </mxCell>
        <mxCell id="KprZA-LBd2Wsys3MRVgW-29" value="&lt;p style=&quot;line-height: 100%&quot;&gt;&amp;lt;&amp;lt;actor&amp;gt;&amp;gt;&lt;br&gt;&lt;br&gt;&lt;b&gt;Daemon&lt;/b&gt;&lt;/p&gt;" style="text;html=1;align=center;verticalAlign=middle;dashed=0;strokeColor=#000000;strokeWidth=2;" parent="CIMFs1MfGYt-mXThH3dG-1" vertex="1">
          <mxGeometry x="120" y="340" width="80" height="77" as="geometry" />
        </mxCell>
        <mxCell id="KprZA-LBd2Wsys3MRVgW-32" value="" style="fontStyle=1;align=center;verticalAlign=top;childLayout=stackLayout;horizontal=1;horizontalStack=0;resizeParent=1;resizeParentMax=0;resizeLast=0;marginBottom=0;strokeColor=#82b366;strokeWidth=2;fillColor=none;" parent="CIMFs1MfGYt-mXThH3dG-1" vertex="1">
          <mxGeometry x="240" y="230" width="110" height="63" as="geometry" />
        </mxCell>
        <mxCell id="KprZA-LBd2Wsys3MRVgW-33" value="View Group&lt;br&gt;Member Summary" style="html=1;align=left;spacingLeft=4;verticalAlign=middle;strokeColor=none;fillColor=none;fontStyle=1" parent="KprZA-LBd2Wsys3MRVgW-32" vertex="1">
          <mxGeometry width="110" height="30" as="geometry" />
        </mxCell>
        <mxCell id="KprZA-LBd2Wsys3MRVgW-34" value="" style="shape=ellipse;" parent="KprZA-LBd2Wsys3MRVgW-33" vertex="1">
          <mxGeometry x="1" width="10" height="16" relative="1" as="geometry">
            <mxPoint x="-25" y="7" as="offset" />
          </mxGeometry>
        </mxCell>
        <mxCell id="KprZA-LBd2Wsys3MRVgW-35" value="" style="line;strokeWidth=1;fillColor=none;align=left;verticalAlign=middle;spacingTop=-1;spacingLeft=3;spacingRight=3;rotatable=0;labelPosition=right;points=[];portConstraint=eastwest;" parent="KprZA-LBd2Wsys3MRVgW-32" vertex="1">
          <mxGeometry y="30" width="110" height="8" as="geometry" />
        </mxCell>
        <mxCell id="KprZA-LBd2Wsys3MRVgW-36" value="." style="html=1;align=center;spacingLeft=4;verticalAlign=top;strokeColor=none;fillColor=none;" parent="KprZA-LBd2Wsys3MRVgW-32" vertex="1">
          <mxGeometry y="38" width="110" height="25" as="geometry" />
        </mxCell>
        <mxCell id="KprZA-LBd2Wsys3MRVgW-39" value="Users &lt;br&gt;see a Public (PII safe) view&amp;nbsp;&lt;br&gt;of other Users, but the full view of themselves." style="shape=note;size=20;whiteSpace=wrap;html=1;strokeWidth=1;fillColor=none;verticalAlign=top;" parent="CIMFs1MfGYt-mXThH3dG-1" vertex="1">
          <mxGeometry x="400" y="160" width="100" height="100" as="geometry" />
        </mxCell>
        <mxCell id="KprZA-LBd2Wsys3MRVgW-40" value="State of &lt;br&gt;Users&lt;br&gt;is updated based on Subscription or other similar data points." style="shape=note;size=20;whiteSpace=wrap;html=1;strokeWidth=1;fillColor=none;verticalAlign=top;" parent="CIMFs1MfGYt-mXThH3dG-1" vertex="1">
          <mxGeometry x="400" y="403" width="100" height="100" as="geometry" />
        </mxCell>
        <mxCell id="KprZA-LBd2Wsys3MRVgW-42" style="edgeStyle=none;rounded=0;orthogonalLoop=1;jettySize=auto;html=1;endArrow=open;endFill=0;exitX=1;exitY=0.5;exitDx=0;exitDy=0;" parent="CIMFs1MfGYt-mXThH3dG-1" source="KprZA-LBd2Wsys3MRVgW-41" edge="1">
          <mxGeometry relative="1" as="geometry">
            <mxPoint x="240" y="470" as="targetPoint" />
          </mxGeometry>
        </mxCell>
        <mxCell id="KprZA-LBd2Wsys3MRVgW-41" value="&lt;p style=&quot;line-height: 100%&quot;&gt;&amp;lt;&amp;lt;actor&amp;gt;&amp;gt;&lt;br&gt;&lt;br&gt;&lt;b&gt;Monitoring&amp;nbsp;&lt;/b&gt;&lt;/p&gt;&lt;p style=&quot;line-height: 100%&quot;&gt;&lt;b&gt;Specialist&lt;/b&gt;&lt;/p&gt;" style="text;html=1;align=center;verticalAlign=middle;dashed=0;strokeColor=#000000;strokeWidth=2;" parent="CIMFs1MfGYt-mXThH3dG-1" vertex="1">
          <mxGeometry x="120" y="430" width="80" height="77" as="geometry" />
        </mxCell>
      </root>
    </mxGraphModel>
  </diagram>
  <diagram id="o49DG4Oq8SQpZfKKDETI" name="Groups">
    <mxGraphModel dx="1711" dy="741" grid="1" gridSize="10" guides="1" tooltips="1" connect="1" arrows="1" fold="1" page="1" pageScale="1" pageWidth="827" pageHeight="1169" math="0" shadow="0">
      <root>
        <mxCell id="j6knT0nZRkXW4mcYXSD3-0" />
        <mxCell id="j6knT0nZRkXW4mcYXSD3-1" parent="j6knT0nZRkXW4mcYXSD3-0" />
        <mxCell id="Thl9Aeuy8pRD7U4l8nj3-15" value="&lt;font style=&quot;font-size: 12px&quot;&gt;&lt;span style=&quot;font-size: 12px&quot;&gt;Diagram: Base System Logical Module -&amp;nbsp;&lt;/span&gt;&lt;span style=&quot;font-size: 12px&quot;&gt;Functionality -&amp;nbsp;&lt;/span&gt;Groups&lt;/font&gt;" style="text;strokeColor=none;fillColor=none;html=1;fontSize=12;fontStyle=2;verticalAlign=middle;align=left;shadow=0;glass=0;comic=0;opacity=30;fontColor=#808080;" parent="j6knT0nZRkXW4mcYXSD3-1" vertex="1">
          <mxGeometry x="120" y="640" width="520" height="40" as="geometry" />
        </mxCell>
        <mxCell id="6PIFf8ajAKC9fmQvCD9o-0" value="" style="fontStyle=1;align=center;verticalAlign=top;childLayout=stackLayout;horizontal=1;horizontalStack=0;resizeParent=1;resizeParentMax=0;resizeLast=0;marginBottom=0;strokeColor=#82b366;strokeWidth=2;fillColor=none;" parent="j6knT0nZRkXW4mcYXSD3-1" vertex="1">
          <mxGeometry x="440" y="220" width="110" height="63" as="geometry" />
        </mxCell>
        <mxCell id="6PIFf8ajAKC9fmQvCD9o-1" value="Define Group as&amp;nbsp;&lt;br&gt;Organisation" style="html=1;align=left;spacingLeft=4;verticalAlign=middle;strokeColor=none;fillColor=none;fontStyle=1" parent="6PIFf8ajAKC9fmQvCD9o-0" vertex="1">
          <mxGeometry width="110" height="30" as="geometry" />
        </mxCell>
        <mxCell id="6PIFf8ajAKC9fmQvCD9o-2" value="" style="shape=ellipse;" parent="6PIFf8ajAKC9fmQvCD9o-1" vertex="1">
          <mxGeometry x="1" width="10" height="16" relative="1" as="geometry">
            <mxPoint x="-25" y="7" as="offset" />
          </mxGeometry>
        </mxCell>
        <mxCell id="6PIFf8ajAKC9fmQvCD9o-3" value="" style="line;strokeWidth=1;fillColor=none;align=left;verticalAlign=middle;spacingTop=-1;spacingLeft=3;spacingRight=3;rotatable=0;labelPosition=right;points=[];portConstraint=eastwest;" parent="6PIFf8ajAKC9fmQvCD9o-0" vertex="1">
          <mxGeometry y="30" width="110" height="8" as="geometry" />
        </mxCell>
        <mxCell id="6PIFf8ajAKC9fmQvCD9o-4" value="." style="html=1;align=center;spacingLeft=4;verticalAlign=top;strokeColor=none;fillColor=none;" parent="6PIFf8ajAKC9fmQvCD9o-0" vertex="1">
          <mxGeometry y="38" width="110" height="25" as="geometry" />
        </mxCell>
        <mxCell id="6PIFf8ajAKC9fmQvCD9o-8" style="edgeStyle=none;rounded=0;orthogonalLoop=1;jettySize=auto;html=1;entryX=1;entryY=0.5;entryDx=0;entryDy=0;endArrow=block;endFill=0;" parent="j6knT0nZRkXW4mcYXSD3-1" source="6PIFf8ajAKC9fmQvCD9o-5" target="6PIFf8ajAKC9fmQvCD9o-6" edge="1">
          <mxGeometry relative="1" as="geometry" />
        </mxCell>
        <mxCell id="6PIFf8ajAKC9fmQvCD9o-16" style="edgeStyle=none;rounded=0;orthogonalLoop=1;jettySize=auto;html=1;entryX=0;entryY=0.5;entryDx=0;entryDy=0;endArrow=open;endFill=0;" parent="j6knT0nZRkXW4mcYXSD3-1" source="6PIFf8ajAKC9fmQvCD9o-5" target="6PIFf8ajAKC9fmQvCD9o-11" edge="1">
          <mxGeometry relative="1" as="geometry" />
        </mxCell>
        <mxCell id="5Is_r8HkHz4zZijzst__-0" style="edgeStyle=none;rounded=0;orthogonalLoop=1;jettySize=auto;html=1;entryX=0;entryY=0.5;entryDx=0;entryDy=0;endArrow=open;endFill=0;" parent="j6knT0nZRkXW4mcYXSD3-1" source="6PIFf8ajAKC9fmQvCD9o-5" target="6PIFf8ajAKC9fmQvCD9o-19" edge="1">
          <mxGeometry relative="1" as="geometry" />
        </mxCell>
        <mxCell id="6PIFf8ajAKC9fmQvCD9o-5" value="&lt;p style=&quot;line-height: 100%&quot;&gt;&amp;lt;&amp;lt;actor&amp;gt;&amp;gt;&lt;br&gt;&lt;br&gt;&lt;b&gt;Authenticated&lt;br&gt;User&lt;br&gt;(Group&lt;br&gt;Accountable)&lt;/b&gt;&lt;/p&gt;" style="text;html=1;align=center;verticalAlign=middle;dashed=0;strokeColor=#000000;strokeWidth=2;" parent="j6knT0nZRkXW4mcYXSD3-1" vertex="1">
          <mxGeometry x="220" y="293" width="80" height="77" as="geometry" />
        </mxCell>
        <mxCell id="6PIFf8ajAKC9fmQvCD9o-6" value="&lt;p style=&quot;line-height: 100%&quot;&gt;&amp;lt;&amp;lt;actor&amp;gt;&amp;gt;&lt;br&gt;&lt;br&gt;&lt;b&gt;Authenticated&lt;br&gt;User&lt;/b&gt;&lt;/p&gt;" style="text;html=1;align=center;verticalAlign=middle;dashed=0;strokeColor=#000000;strokeWidth=2;" parent="j6knT0nZRkXW4mcYXSD3-1" vertex="1">
          <mxGeometry x="120" y="293" width="80" height="77" as="geometry" />
        </mxCell>
        <mxCell id="6PIFf8ajAKC9fmQvCD9o-11" value="" style="fontStyle=1;align=center;verticalAlign=top;childLayout=stackLayout;horizontal=1;horizontalStack=0;resizeParent=1;resizeParentMax=0;resizeLast=0;marginBottom=0;strokeColor=#82b366;strokeWidth=2;fillColor=none;" parent="j6knT0nZRkXW4mcYXSD3-1" vertex="1">
          <mxGeometry x="320" y="310" width="110" height="63" as="geometry" />
        </mxCell>
        <mxCell id="6PIFf8ajAKC9fmQvCD9o-12" value="Edit Group&lt;br&gt;Profile" style="html=1;align=left;spacingLeft=4;verticalAlign=middle;strokeColor=none;fillColor=none;fontStyle=1" parent="6PIFf8ajAKC9fmQvCD9o-11" vertex="1">
          <mxGeometry width="110" height="30" as="geometry" />
        </mxCell>
        <mxCell id="6PIFf8ajAKC9fmQvCD9o-13" value="" style="shape=ellipse;" parent="6PIFf8ajAKC9fmQvCD9o-12" vertex="1">
          <mxGeometry x="1" width="10" height="16" relative="1" as="geometry">
            <mxPoint x="-25" y="7" as="offset" />
          </mxGeometry>
        </mxCell>
        <mxCell id="6PIFf8ajAKC9fmQvCD9o-14" value="" style="line;strokeWidth=1;fillColor=none;align=left;verticalAlign=middle;spacingTop=-1;spacingLeft=3;spacingRight=3;rotatable=0;labelPosition=right;points=[];portConstraint=eastwest;" parent="6PIFf8ajAKC9fmQvCD9o-11" vertex="1">
          <mxGeometry y="30" width="110" height="8" as="geometry" />
        </mxCell>
        <mxCell id="6PIFf8ajAKC9fmQvCD9o-15" value="." style="html=1;align=center;spacingLeft=4;verticalAlign=top;strokeColor=none;fillColor=none;" parent="6PIFf8ajAKC9fmQvCD9o-11" vertex="1">
          <mxGeometry y="38" width="110" height="25" as="geometry" />
        </mxCell>
        <mxCell id="6PIFf8ajAKC9fmQvCD9o-18" value="" style="fontStyle=1;align=center;verticalAlign=top;childLayout=stackLayout;horizontal=1;horizontalStack=0;resizeParent=1;resizeParentMax=0;resizeLast=0;marginBottom=0;strokeColor=#82b366;strokeWidth=2;fillColor=none;" parent="j6knT0nZRkXW4mcYXSD3-1" vertex="1">
          <mxGeometry x="320" y="409" width="110" height="63" as="geometry" />
        </mxCell>
        <mxCell id="6PIFf8ajAKC9fmQvCD9o-19" value="Retire &lt;br&gt;Group" style="html=1;align=left;spacingLeft=4;verticalAlign=middle;strokeColor=none;fillColor=none;fontStyle=1" parent="6PIFf8ajAKC9fmQvCD9o-18" vertex="1">
          <mxGeometry width="110" height="30" as="geometry" />
        </mxCell>
        <mxCell id="6PIFf8ajAKC9fmQvCD9o-20" value="" style="shape=ellipse;" parent="6PIFf8ajAKC9fmQvCD9o-19" vertex="1">
          <mxGeometry x="1" width="10" height="16" relative="1" as="geometry">
            <mxPoint x="-25" y="7" as="offset" />
          </mxGeometry>
        </mxCell>
        <mxCell id="6PIFf8ajAKC9fmQvCD9o-21" value="" style="line;strokeWidth=1;fillColor=none;align=left;verticalAlign=middle;spacingTop=-1;spacingLeft=3;spacingRight=3;rotatable=0;labelPosition=right;points=[];portConstraint=eastwest;" parent="6PIFf8ajAKC9fmQvCD9o-18" vertex="1">
          <mxGeometry y="30" width="110" height="8" as="geometry" />
        </mxCell>
        <mxCell id="6PIFf8ajAKC9fmQvCD9o-22" value="." style="html=1;align=center;spacingLeft=4;verticalAlign=top;strokeColor=none;fillColor=none;" parent="6PIFf8ajAKC9fmQvCD9o-18" vertex="1">
          <mxGeometry y="38" width="110" height="25" as="geometry" />
        </mxCell>
        <mxCell id="6PIFf8ajAKC9fmQvCD9o-24" style="edgeStyle=none;rounded=0;orthogonalLoop=1;jettySize=auto;html=1;entryX=0.015;entryY=-0.299;entryDx=0;entryDy=0;entryPerimeter=0;endArrow=open;endFill=0;" parent="j6knT0nZRkXW4mcYXSD3-1" source="6PIFf8ajAKC9fmQvCD9o-23" target="6PIFf8ajAKC9fmQvCD9o-22" edge="1">
          <mxGeometry relative="1" as="geometry" />
        </mxCell>
        <mxCell id="6PIFf8ajAKC9fmQvCD9o-25" style="edgeStyle=none;rounded=0;orthogonalLoop=1;jettySize=auto;html=1;entryX=1;entryY=1;entryDx=0;entryDy=0;endArrow=block;endFill=0;" parent="j6knT0nZRkXW4mcYXSD3-1" source="6PIFf8ajAKC9fmQvCD9o-23" target="6PIFf8ajAKC9fmQvCD9o-6" edge="1">
          <mxGeometry relative="1" as="geometry" />
        </mxCell>
        <mxCell id="6PIFf8ajAKC9fmQvCD9o-23" value="&lt;p style=&quot;line-height: 100%&quot;&gt;&amp;lt;&amp;lt;actor&amp;gt;&amp;gt;&lt;br&gt;&lt;br&gt;&lt;b&gt;Daemon&lt;/b&gt;&lt;/p&gt;" style="text;html=1;align=center;verticalAlign=middle;dashed=0;strokeColor=#000000;strokeWidth=2;" parent="j6knT0nZRkXW4mcYXSD3-1" vertex="1">
          <mxGeometry x="220" y="402" width="80" height="77" as="geometry" />
        </mxCell>
        <mxCell id="5Is_r8HkHz4zZijzst__-1" value="" style="fontStyle=1;align=center;verticalAlign=top;childLayout=stackLayout;horizontal=1;horizontalStack=0;resizeParent=1;resizeParentMax=0;resizeLast=0;marginBottom=0;strokeColor=#82b366;strokeWidth=2;fillColor=none;" parent="j6knT0nZRkXW4mcYXSD3-1" vertex="1">
          <mxGeometry x="320" y="220" width="110" height="63" as="geometry" />
        </mxCell>
        <mxCell id="5Is_r8HkHz4zZijzst__-2" value="Create Group" style="html=1;align=left;spacingLeft=4;verticalAlign=middle;strokeColor=none;fillColor=none;fontStyle=1" parent="5Is_r8HkHz4zZijzst__-1" vertex="1">
          <mxGeometry width="110" height="30" as="geometry" />
        </mxCell>
        <mxCell id="5Is_r8HkHz4zZijzst__-3" value="" style="shape=ellipse;" parent="5Is_r8HkHz4zZijzst__-2" vertex="1">
          <mxGeometry x="1" width="10" height="16" relative="1" as="geometry">
            <mxPoint x="-25" y="7" as="offset" />
          </mxGeometry>
        </mxCell>
        <mxCell id="5Is_r8HkHz4zZijzst__-4" value="" style="line;strokeWidth=1;fillColor=none;align=left;verticalAlign=middle;spacingTop=-1;spacingLeft=3;spacingRight=3;rotatable=0;labelPosition=right;points=[];portConstraint=eastwest;" parent="5Is_r8HkHz4zZijzst__-1" vertex="1">
          <mxGeometry y="30" width="110" height="8" as="geometry" />
        </mxCell>
        <mxCell id="5Is_r8HkHz4zZijzst__-5" value="." style="html=1;align=center;spacingLeft=4;verticalAlign=top;strokeColor=none;fillColor=none;" parent="5Is_r8HkHz4zZijzst__-1" vertex="1">
          <mxGeometry y="38" width="110" height="25" as="geometry" />
        </mxCell>
        <mxCell id="5Is_r8HkHz4zZijzst__-7" style="edgeStyle=none;rounded=0;orthogonalLoop=1;jettySize=auto;html=1;entryX=0;entryY=1;entryDx=0;entryDy=0;endArrow=open;endFill=0;" parent="j6knT0nZRkXW4mcYXSD3-1" source="5Is_r8HkHz4zZijzst__-6" target="5Is_r8HkHz4zZijzst__-2" edge="1">
          <mxGeometry relative="1" as="geometry" />
        </mxCell>
        <mxCell id="NPYv3bGWpOgvneqY6akO-35" style="edgeStyle=none;rounded=0;orthogonalLoop=1;jettySize=auto;html=1;entryX=0;entryY=0.75;entryDx=0;entryDy=0;endArrow=open;endFill=0;" parent="j6knT0nZRkXW4mcYXSD3-1" source="5Is_r8HkHz4zZijzst__-6" target="NPYv3bGWpOgvneqY6akO-6" edge="1">
          <mxGeometry relative="1" as="geometry" />
        </mxCell>
        <mxCell id="5Is_r8HkHz4zZijzst__-6" value="&lt;p style=&quot;line-height: 100%&quot;&gt;&amp;lt;&amp;lt;actor&amp;gt;&amp;gt;&lt;br&gt;&lt;br&gt;&lt;b&gt;Authenticated&lt;br&gt;User&lt;br&gt;&lt;br&gt;&lt;/b&gt;&lt;/p&gt;" style="text;html=1;align=center;verticalAlign=middle;dashed=0;strokeColor=#000000;strokeWidth=2;" parent="j6knT0nZRkXW4mcYXSD3-1" vertex="1">
          <mxGeometry x="220" y="160" width="80" height="77" as="geometry" />
        </mxCell>
        <mxCell id="5Is_r8HkHz4zZijzst__-8" style="edgeStyle=none;rounded=0;orthogonalLoop=1;jettySize=auto;html=1;entryX=0.5;entryY=1;entryDx=0;entryDy=0;endArrow=block;endFill=0;exitX=0.5;exitY=0;exitDx=0;exitDy=0;" parent="j6knT0nZRkXW4mcYXSD3-1" source="6PIFf8ajAKC9fmQvCD9o-5" target="5Is_r8HkHz4zZijzst__-6" edge="1">
          <mxGeometry relative="1" as="geometry">
            <mxPoint x="230" y="341.5" as="sourcePoint" />
            <mxPoint x="190" y="341.5" as="targetPoint" />
          </mxGeometry>
        </mxCell>
        <mxCell id="5Is_r8HkHz4zZijzst__-9" value="" style="fontStyle=1;align=center;verticalAlign=top;childLayout=stackLayout;horizontal=1;horizontalStack=0;resizeParent=1;resizeParentMax=0;resizeLast=0;marginBottom=0;strokeColor=#82b366;strokeWidth=2;fillColor=none;" parent="j6knT0nZRkXW4mcYXSD3-1" vertex="1">
          <mxGeometry x="560" y="220" width="110" height="63" as="geometry" />
        </mxCell>
        <mxCell id="5Is_r8HkHz4zZijzst__-10" value="Define Organisation&lt;br&gt;&amp;nbsp;as&amp;nbsp;Tenant" style="html=1;align=left;spacingLeft=4;verticalAlign=middle;strokeColor=none;fillColor=none;fontStyle=1" parent="5Is_r8HkHz4zZijzst__-9" vertex="1">
          <mxGeometry width="110" height="30" as="geometry" />
        </mxCell>
        <mxCell id="5Is_r8HkHz4zZijzst__-11" value="" style="shape=ellipse;" parent="5Is_r8HkHz4zZijzst__-10" vertex="1">
          <mxGeometry x="1" width="10" height="16" relative="1" as="geometry">
            <mxPoint x="-25" y="7" as="offset" />
          </mxGeometry>
        </mxCell>
        <mxCell id="5Is_r8HkHz4zZijzst__-12" value="" style="line;strokeWidth=1;fillColor=none;align=left;verticalAlign=middle;spacingTop=-1;spacingLeft=3;spacingRight=3;rotatable=0;labelPosition=right;points=[];portConstraint=eastwest;" parent="5Is_r8HkHz4zZijzst__-9" vertex="1">
          <mxGeometry y="30" width="110" height="8" as="geometry" />
        </mxCell>
        <mxCell id="5Is_r8HkHz4zZijzst__-13" value="." style="html=1;align=center;spacingLeft=4;verticalAlign=top;strokeColor=none;fillColor=none;" parent="5Is_r8HkHz4zZijzst__-9" vertex="1">
          <mxGeometry y="38" width="110" height="25" as="geometry" />
        </mxCell>
        <mxCell id="5Is_r8HkHz4zZijzst__-15" value="" style="fontStyle=1;align=center;verticalAlign=top;childLayout=stackLayout;horizontal=1;horizontalStack=0;resizeParent=1;resizeParentMax=0;resizeLast=0;marginBottom=0;strokeColor=#82b366;strokeWidth=2;fillColor=none;" parent="j6knT0nZRkXW4mcYXSD3-1" vertex="1">
          <mxGeometry x="440" y="310" width="110" height="63" as="geometry" />
        </mxCell>
        <mxCell id="5Is_r8HkHz4zZijzst__-16" value="Edit Organisation&lt;br&gt;Profile" style="html=1;align=left;spacingLeft=4;verticalAlign=middle;strokeColor=none;fillColor=none;fontStyle=1" parent="5Is_r8HkHz4zZijzst__-15" vertex="1">
          <mxGeometry width="110" height="30" as="geometry" />
        </mxCell>
        <mxCell id="5Is_r8HkHz4zZijzst__-17" value="" style="shape=ellipse;" parent="5Is_r8HkHz4zZijzst__-16" vertex="1">
          <mxGeometry x="1" width="10" height="16" relative="1" as="geometry">
            <mxPoint x="-25" y="7" as="offset" />
          </mxGeometry>
        </mxCell>
        <mxCell id="5Is_r8HkHz4zZijzst__-18" value="" style="line;strokeWidth=1;fillColor=none;align=left;verticalAlign=middle;spacingTop=-1;spacingLeft=3;spacingRight=3;rotatable=0;labelPosition=right;points=[];portConstraint=eastwest;" parent="5Is_r8HkHz4zZijzst__-15" vertex="1">
          <mxGeometry y="30" width="110" height="8" as="geometry" />
        </mxCell>
        <mxCell id="5Is_r8HkHz4zZijzst__-19" value="." style="html=1;align=center;spacingLeft=4;verticalAlign=top;strokeColor=none;fillColor=none;" parent="5Is_r8HkHz4zZijzst__-15" vertex="1">
          <mxGeometry y="38" width="110" height="25" as="geometry" />
        </mxCell>
        <mxCell id="5Is_r8HkHz4zZijzst__-25" value="" style="fontStyle=1;align=center;verticalAlign=top;childLayout=stackLayout;horizontal=1;horizontalStack=0;resizeParent=1;resizeParentMax=0;resizeLast=0;marginBottom=0;strokeColor=#82b366;strokeWidth=2;fillColor=none;" parent="j6knT0nZRkXW4mcYXSD3-1" vertex="1">
          <mxGeometry x="560" y="310" width="110" height="63" as="geometry" />
        </mxCell>
        <mxCell id="5Is_r8HkHz4zZijzst__-26" value="Edit Tenancy&lt;br&gt;Profile" style="html=1;align=left;spacingLeft=4;verticalAlign=middle;strokeColor=none;fillColor=none;fontStyle=1" parent="5Is_r8HkHz4zZijzst__-25" vertex="1">
          <mxGeometry width="110" height="30" as="geometry" />
        </mxCell>
        <mxCell id="5Is_r8HkHz4zZijzst__-27" value="" style="shape=ellipse;" parent="5Is_r8HkHz4zZijzst__-26" vertex="1">
          <mxGeometry x="1" width="10" height="16" relative="1" as="geometry">
            <mxPoint x="-25" y="7" as="offset" />
          </mxGeometry>
        </mxCell>
        <mxCell id="5Is_r8HkHz4zZijzst__-28" value="" style="line;strokeWidth=1;fillColor=none;align=left;verticalAlign=middle;spacingTop=-1;spacingLeft=3;spacingRight=3;rotatable=0;labelPosition=right;points=[];portConstraint=eastwest;" parent="5Is_r8HkHz4zZijzst__-25" vertex="1">
          <mxGeometry y="30" width="110" height="8" as="geometry" />
        </mxCell>
        <mxCell id="5Is_r8HkHz4zZijzst__-29" value="." style="html=1;align=center;spacingLeft=4;verticalAlign=top;strokeColor=none;fillColor=none;" parent="5Is_r8HkHz4zZijzst__-25" vertex="1">
          <mxGeometry y="38" width="110" height="25" as="geometry" />
        </mxCell>
        <mxCell id="NPYv3bGWpOgvneqY6akO-5" value="" style="fontStyle=1;align=center;verticalAlign=top;childLayout=stackLayout;horizontal=1;horizontalStack=0;resizeParent=1;resizeParentMax=0;resizeLast=0;marginBottom=0;strokeColor=#82b366;strokeWidth=2;fillColor=none;" parent="j6knT0nZRkXW4mcYXSD3-1" vertex="1">
          <mxGeometry x="320" y="150" width="110" height="63" as="geometry" />
        </mxCell>
        <mxCell id="NPYv3bGWpOgvneqY6akO-6" value="List SummarItem&lt;br&gt;of Groups" style="html=1;align=left;spacingLeft=4;verticalAlign=middle;strokeColor=none;fillColor=none;fontStyle=1" parent="NPYv3bGWpOgvneqY6akO-5" vertex="1">
          <mxGeometry width="110" height="30" as="geometry" />
        </mxCell>
        <mxCell id="NPYv3bGWpOgvneqY6akO-7" value="" style="shape=ellipse;" parent="NPYv3bGWpOgvneqY6akO-6" vertex="1">
          <mxGeometry x="1" width="10" height="16" relative="1" as="geometry">
            <mxPoint x="-25" y="7" as="offset" />
          </mxGeometry>
        </mxCell>
        <mxCell id="NPYv3bGWpOgvneqY6akO-8" value="" style="line;strokeWidth=1;fillColor=none;align=left;verticalAlign=middle;spacingTop=-1;spacingLeft=3;spacingRight=3;rotatable=0;labelPosition=right;points=[];portConstraint=eastwest;" parent="NPYv3bGWpOgvneqY6akO-5" vertex="1">
          <mxGeometry y="30" width="110" height="8" as="geometry" />
        </mxCell>
        <mxCell id="NPYv3bGWpOgvneqY6akO-9" value="." style="html=1;align=center;spacingLeft=4;verticalAlign=top;strokeColor=none;fillColor=none;" parent="NPYv3bGWpOgvneqY6akO-5" vertex="1">
          <mxGeometry y="38" width="110" height="25" as="geometry" />
        </mxCell>
        <mxCell id="NPYv3bGWpOgvneqY6akO-10" value="" style="fontStyle=1;align=center;verticalAlign=top;childLayout=stackLayout;horizontal=1;horizontalStack=0;resizeParent=1;resizeParentMax=0;resizeLast=0;marginBottom=0;strokeColor=#82b366;strokeWidth=2;fillColor=none;" parent="j6knT0nZRkXW4mcYXSD3-1" vertex="1">
          <mxGeometry x="440" y="150" width="110" height="63" as="geometry" />
        </mxCell>
        <mxCell id="NPYv3bGWpOgvneqY6akO-11" value="List SummarItem&lt;br&gt;of Organisations" style="html=1;align=left;spacingLeft=4;verticalAlign=middle;strokeColor=none;fillColor=none;fontStyle=1" parent="NPYv3bGWpOgvneqY6akO-10" vertex="1">
          <mxGeometry width="110" height="30" as="geometry" />
        </mxCell>
        <mxCell id="NPYv3bGWpOgvneqY6akO-12" value="" style="shape=ellipse;" parent="NPYv3bGWpOgvneqY6akO-11" vertex="1">
          <mxGeometry x="1" width="10" height="16" relative="1" as="geometry">
            <mxPoint x="-25" y="7" as="offset" />
          </mxGeometry>
        </mxCell>
        <mxCell id="NPYv3bGWpOgvneqY6akO-13" value="" style="line;strokeWidth=1;fillColor=none;align=left;verticalAlign=middle;spacingTop=-1;spacingLeft=3;spacingRight=3;rotatable=0;labelPosition=right;points=[];portConstraint=eastwest;" parent="NPYv3bGWpOgvneqY6akO-10" vertex="1">
          <mxGeometry y="30" width="110" height="8" as="geometry" />
        </mxCell>
        <mxCell id="NPYv3bGWpOgvneqY6akO-14" value="." style="html=1;align=center;spacingLeft=4;verticalAlign=top;strokeColor=none;fillColor=none;" parent="NPYv3bGWpOgvneqY6akO-10" vertex="1">
          <mxGeometry y="38" width="110" height="25" as="geometry" />
        </mxCell>
        <mxCell id="NPYv3bGWpOgvneqY6akO-15" value="" style="fontStyle=1;align=center;verticalAlign=top;childLayout=stackLayout;horizontal=1;horizontalStack=0;resizeParent=1;resizeParentMax=0;resizeLast=0;marginBottom=0;strokeColor=#82b366;strokeWidth=2;fillColor=none;" parent="j6knT0nZRkXW4mcYXSD3-1" vertex="1">
          <mxGeometry x="560" y="150" width="110" height="63" as="geometry" />
        </mxCell>
        <mxCell id="NPYv3bGWpOgvneqY6akO-16" value="List SummarItem&lt;br&gt;of Tenancies" style="html=1;align=left;spacingLeft=4;verticalAlign=middle;strokeColor=none;fillColor=none;fontStyle=1" parent="NPYv3bGWpOgvneqY6akO-15" vertex="1">
          <mxGeometry width="110" height="30" as="geometry" />
        </mxCell>
        <mxCell id="NPYv3bGWpOgvneqY6akO-17" value="" style="shape=ellipse;" parent="NPYv3bGWpOgvneqY6akO-16" vertex="1">
          <mxGeometry x="1" width="10" height="16" relative="1" as="geometry">
            <mxPoint x="-25" y="7" as="offset" />
          </mxGeometry>
        </mxCell>
        <mxCell id="NPYv3bGWpOgvneqY6akO-18" value="" style="line;strokeWidth=1;fillColor=none;align=left;verticalAlign=middle;spacingTop=-1;spacingLeft=3;spacingRight=3;rotatable=0;labelPosition=right;points=[];portConstraint=eastwest;" parent="NPYv3bGWpOgvneqY6akO-15" vertex="1">
          <mxGeometry y="30" width="110" height="8" as="geometry" />
        </mxCell>
        <mxCell id="NPYv3bGWpOgvneqY6akO-19" value="." style="html=1;align=center;spacingLeft=4;verticalAlign=top;strokeColor=none;fillColor=none;" parent="NPYv3bGWpOgvneqY6akO-15" vertex="1">
          <mxGeometry y="38" width="110" height="25" as="geometry" />
        </mxCell>
      </root>
    </mxGraphModel>
  </diagram>
  <diagram id="_paZvpOYSD2itmKFvVEi" name="Grp Role">
    <mxGraphModel dx="1711" dy="741" grid="1" gridSize="10" guides="1" tooltips="1" connect="1" arrows="1" fold="1" page="1" pageScale="1" pageWidth="827" pageHeight="1169" math="0" shadow="0">
      <root>
        <mxCell id="jJMDsLOJsHRA9ecIZqBr-0" />
        <mxCell id="jJMDsLOJsHRA9ecIZqBr-1" parent="jJMDsLOJsHRA9ecIZqBr-0" />
        <mxCell id="BW_KTFOAbpTylYArNgOf-20" value="Merging Users is difficult to undo, and&amp;nbsp;can release private information. Hence, Authenticated User requests merge with second identity associated to self, which sends of email, with link to trigger Acceptance of request. Hence safe." style="shape=note;whiteSpace=wrap;html=1;size=14;verticalAlign=top;align=left;spacingTop=-6;" parent="jJMDsLOJsHRA9ecIZqBr-1" vertex="1">
          <mxGeometry x="500" y="460" width="160" height="140" as="geometry" />
        </mxCell>
        <mxCell id="BW_KTFOAbpTylYArNgOf-21" value="&lt;font style=&quot;font-size: 12px ; font-weight: normal&quot;&gt;&lt;i&gt;&lt;span style=&quot;font-size: 12px&quot;&gt;Diagram: Base System Logical Module -&amp;nbsp;&lt;/span&gt;&lt;span style=&quot;font-size: 12px&quot;&gt;Functionality -&amp;nbsp;&lt;/span&gt;System Users&lt;/i&gt;&lt;/font&gt;" style="text;strokeColor=none;fillColor=none;html=1;fontSize=12;fontStyle=1;verticalAlign=middle;align=left;shadow=0;glass=0;comic=0;opacity=30;fontColor=#808080;" parent="jJMDsLOJsHRA9ecIZqBr-1" vertex="1">
          <mxGeometry x="120" y="800" width="560" height="40" as="geometry" />
        </mxCell>
        <mxCell id="3Mk5R_yZO1PZWtC-fWX1-0" value="" style="fontStyle=1;align=center;verticalAlign=top;childLayout=stackLayout;horizontal=1;horizontalStack=0;resizeParent=1;resizeParentMax=0;resizeLast=0;marginBottom=0;strokeColor=#82b366;strokeWidth=2;fillColor=none;" parent="jJMDsLOJsHRA9ecIZqBr-1" vertex="1">
          <mxGeometry x="360" y="160" width="120" height="63" as="geometry" />
        </mxCell>
        <mxCell id="3Mk5R_yZO1PZWtC-fWX1-1" value="Accept Invitation &lt;br&gt;and Terms&amp;nbsp;to &lt;br&gt;Role in Group" style="html=1;align=left;spacingLeft=4;verticalAlign=middle;strokeColor=none;fillColor=none;fontStyle=1" parent="3Mk5R_yZO1PZWtC-fWX1-0" vertex="1">
          <mxGeometry width="120" height="30" as="geometry" />
        </mxCell>
        <mxCell id="3Mk5R_yZO1PZWtC-fWX1-2" value="" style="shape=ellipse;" parent="3Mk5R_yZO1PZWtC-fWX1-1" vertex="1">
          <mxGeometry x="1" width="10" height="16" relative="1" as="geometry">
            <mxPoint x="-25" y="7" as="offset" />
          </mxGeometry>
        </mxCell>
        <mxCell id="3Mk5R_yZO1PZWtC-fWX1-3" value="" style="line;strokeWidth=1;fillColor=none;align=left;verticalAlign=middle;spacingTop=-1;spacingLeft=3;spacingRight=3;rotatable=0;labelPosition=right;points=[];portConstraint=eastwest;" parent="3Mk5R_yZO1PZWtC-fWX1-0" vertex="1">
          <mxGeometry y="30" width="120" height="8" as="geometry" />
        </mxCell>
        <mxCell id="3Mk5R_yZO1PZWtC-fWX1-4" value="." style="html=1;align=center;spacingLeft=4;verticalAlign=top;strokeColor=none;fillColor=none;" parent="3Mk5R_yZO1PZWtC-fWX1-0" vertex="1">
          <mxGeometry y="38" width="120" height="25" as="geometry" />
        </mxCell>
        <mxCell id="3Mk5R_yZO1PZWtC-fWX1-10" value="" style="fontStyle=1;align=center;verticalAlign=top;childLayout=stackLayout;horizontal=1;horizontalStack=0;resizeParent=1;resizeParentMax=0;resizeLast=0;marginBottom=0;strokeColor=#82b366;strokeWidth=2;fillColor=none;" parent="jJMDsLOJsHRA9ecIZqBr-1" vertex="1">
          <mxGeometry x="360" y="257" width="120" height="63" as="geometry" />
        </mxCell>
        <mxCell id="3Mk5R_yZO1PZWtC-fWX1-11" value="Update&lt;br&gt;Group Relation&lt;br&gt;Profile &amp;amp; Name" style="html=1;align=left;spacingLeft=4;verticalAlign=middle;strokeColor=none;fillColor=none;fontStyle=1" parent="3Mk5R_yZO1PZWtC-fWX1-10" vertex="1">
          <mxGeometry width="120" height="30" as="geometry" />
        </mxCell>
        <mxCell id="3Mk5R_yZO1PZWtC-fWX1-12" value="" style="shape=ellipse;" parent="3Mk5R_yZO1PZWtC-fWX1-11" vertex="1">
          <mxGeometry x="1" width="10" height="16" relative="1" as="geometry">
            <mxPoint x="-25" y="7" as="offset" />
          </mxGeometry>
        </mxCell>
        <mxCell id="3Mk5R_yZO1PZWtC-fWX1-13" value="" style="line;strokeWidth=1;fillColor=none;align=left;verticalAlign=middle;spacingTop=-1;spacingLeft=3;spacingRight=3;rotatable=0;labelPosition=right;points=[];portConstraint=eastwest;" parent="3Mk5R_yZO1PZWtC-fWX1-10" vertex="1">
          <mxGeometry y="30" width="120" height="8" as="geometry" />
        </mxCell>
        <mxCell id="3Mk5R_yZO1PZWtC-fWX1-14" value="." style="html=1;align=center;spacingLeft=4;verticalAlign=top;strokeColor=none;fillColor=none;" parent="3Mk5R_yZO1PZWtC-fWX1-10" vertex="1">
          <mxGeometry y="38" width="120" height="25" as="geometry" />
        </mxCell>
        <mxCell id="3Mk5R_yZO1PZWtC-fWX1-20" value="" style="fontStyle=1;align=center;verticalAlign=top;childLayout=stackLayout;horizontal=1;horizontalStack=0;resizeParent=1;resizeParentMax=0;resizeLast=0;marginBottom=0;strokeColor=#82b366;strokeWidth=2;fillColor=none;" parent="jJMDsLOJsHRA9ecIZqBr-1" vertex="1">
          <mxGeometry x="360" y="348.5" width="120" height="63" as="geometry" />
        </mxCell>
        <mxCell id="3Mk5R_yZO1PZWtC-fWX1-21" value="Request User&lt;br&gt;Merge" style="html=1;align=left;spacingLeft=4;verticalAlign=middle;strokeColor=none;fillColor=none;fontStyle=1" parent="3Mk5R_yZO1PZWtC-fWX1-20" vertex="1">
          <mxGeometry width="120" height="30" as="geometry" />
        </mxCell>
        <mxCell id="3Mk5R_yZO1PZWtC-fWX1-22" value="" style="shape=ellipse;" parent="3Mk5R_yZO1PZWtC-fWX1-21" vertex="1">
          <mxGeometry x="1" width="10" height="16" relative="1" as="geometry">
            <mxPoint x="-25" y="7" as="offset" />
          </mxGeometry>
        </mxCell>
        <mxCell id="3Mk5R_yZO1PZWtC-fWX1-23" value="" style="line;strokeWidth=1;fillColor=none;align=left;verticalAlign=middle;spacingTop=-1;spacingLeft=3;spacingRight=3;rotatable=0;labelPosition=right;points=[];portConstraint=eastwest;" parent="3Mk5R_yZO1PZWtC-fWX1-20" vertex="1">
          <mxGeometry y="30" width="120" height="8" as="geometry" />
        </mxCell>
        <mxCell id="3Mk5R_yZO1PZWtC-fWX1-24" value="." style="html=1;align=center;spacingLeft=4;verticalAlign=top;strokeColor=none;fillColor=none;" parent="3Mk5R_yZO1PZWtC-fWX1-20" vertex="1">
          <mxGeometry y="38" width="120" height="25" as="geometry" />
        </mxCell>
        <mxCell id="sVHChG9KCjbjKHvtkaMJ-3" style="edgeStyle=none;rounded=0;orthogonalLoop=1;jettySize=auto;html=1;entryX=1;entryY=0.5;entryDx=0;entryDy=0;endArrow=block;endFill=0;" parent="jJMDsLOJsHRA9ecIZqBr-1" source="sVHChG9KCjbjKHvtkaMJ-0" target="sVHChG9KCjbjKHvtkaMJ-1" edge="1">
          <mxGeometry relative="1" as="geometry" />
        </mxCell>
        <mxCell id="sVHChG9KCjbjKHvtkaMJ-4" style="edgeStyle=none;rounded=0;orthogonalLoop=1;jettySize=auto;html=1;entryX=0;entryY=1;entryDx=0;entryDy=0;endArrow=open;endFill=0;exitX=1;exitY=0;exitDx=0;exitDy=0;" parent="jJMDsLOJsHRA9ecIZqBr-1" source="sVHChG9KCjbjKHvtkaMJ-0" target="3Mk5R_yZO1PZWtC-fWX1-11" edge="1">
          <mxGeometry relative="1" as="geometry" />
        </mxCell>
        <mxCell id="sVHChG9KCjbjKHvtkaMJ-5" style="edgeStyle=none;rounded=0;orthogonalLoop=1;jettySize=auto;html=1;endArrow=open;endFill=0;exitX=1;exitY=0.5;exitDx=0;exitDy=0;" parent="jJMDsLOJsHRA9ecIZqBr-1" source="sVHChG9KCjbjKHvtkaMJ-0" edge="1">
          <mxGeometry relative="1" as="geometry">
            <mxPoint x="360" y="380" as="targetPoint" />
          </mxGeometry>
        </mxCell>
        <mxCell id="sVHChG9KCjbjKHvtkaMJ-11" style="edgeStyle=none;rounded=0;orthogonalLoop=1;jettySize=auto;html=1;entryX=0;entryY=0.75;entryDx=0;entryDy=0;endArrow=open;endFill=0;" parent="jJMDsLOJsHRA9ecIZqBr-1" source="sVHChG9KCjbjKHvtkaMJ-0" target="sVHChG9KCjbjKHvtkaMJ-7" edge="1">
          <mxGeometry relative="1" as="geometry" />
        </mxCell>
        <mxCell id="sVHChG9KCjbjKHvtkaMJ-0" value="&lt;p style=&quot;line-height: 100%&quot;&gt;&amp;lt;&amp;lt;actor&amp;gt;&amp;gt;&lt;br&gt;&lt;br&gt;&lt;b&gt;Authenticated&lt;br&gt;User&lt;/b&gt;&lt;/p&gt;" style="text;html=1;align=center;verticalAlign=middle;dashed=0;strokeColor=#000000;strokeWidth=2;" parent="jJMDsLOJsHRA9ecIZqBr-1" vertex="1">
          <mxGeometry x="240" y="341.5" width="80" height="77" as="geometry" />
        </mxCell>
        <mxCell id="sVHChG9KCjbjKHvtkaMJ-2" style="edgeStyle=none;rounded=0;orthogonalLoop=1;jettySize=auto;html=1;entryX=0;entryY=0.75;entryDx=0;entryDy=0;endArrow=open;endFill=0;" parent="jJMDsLOJsHRA9ecIZqBr-1" source="sVHChG9KCjbjKHvtkaMJ-1" target="3Mk5R_yZO1PZWtC-fWX1-1" edge="1">
          <mxGeometry relative="1" as="geometry" />
        </mxCell>
        <mxCell id="sVHChG9KCjbjKHvtkaMJ-1" value="&lt;p style=&quot;line-height: 100%&quot;&gt;&amp;lt;&amp;lt;actor&amp;gt;&amp;gt;&lt;br&gt;&lt;br&gt;&lt;b&gt;UnAuthenticated&lt;br&gt;Public User&lt;/b&gt;&lt;/p&gt;" style="text;html=1;align=center;verticalAlign=middle;dashed=0;strokeColor=#000000;strokeWidth=2;" parent="jJMDsLOJsHRA9ecIZqBr-1" vertex="1">
          <mxGeometry x="120" y="341.5" width="80" height="77" as="geometry" />
        </mxCell>
        <mxCell id="sVHChG9KCjbjKHvtkaMJ-6" value="" style="fontStyle=1;align=center;verticalAlign=top;childLayout=stackLayout;horizontal=1;horizontalStack=0;resizeParent=1;resizeParentMax=0;resizeLast=0;marginBottom=0;strokeColor=#82b366;strokeWidth=2;fillColor=none;" parent="jJMDsLOJsHRA9ecIZqBr-1" vertex="1">
          <mxGeometry x="360" y="437" width="120" height="63" as="geometry" />
        </mxCell>
        <mxCell id="sVHChG9KCjbjKHvtkaMJ-7" value="Accept User&lt;br&gt;Merge" style="html=1;align=left;spacingLeft=4;verticalAlign=middle;strokeColor=none;fillColor=none;fontStyle=1" parent="sVHChG9KCjbjKHvtkaMJ-6" vertex="1">
          <mxGeometry width="120" height="30" as="geometry" />
        </mxCell>
        <mxCell id="sVHChG9KCjbjKHvtkaMJ-8" value="" style="shape=ellipse;" parent="sVHChG9KCjbjKHvtkaMJ-7" vertex="1">
          <mxGeometry x="1" width="10" height="16" relative="1" as="geometry">
            <mxPoint x="-25" y="7" as="offset" />
          </mxGeometry>
        </mxCell>
        <mxCell id="sVHChG9KCjbjKHvtkaMJ-9" value="" style="line;strokeWidth=1;fillColor=none;align=left;verticalAlign=middle;spacingTop=-1;spacingLeft=3;spacingRight=3;rotatable=0;labelPosition=right;points=[];portConstraint=eastwest;" parent="sVHChG9KCjbjKHvtkaMJ-6" vertex="1">
          <mxGeometry y="30" width="120" height="8" as="geometry" />
        </mxCell>
        <mxCell id="sVHChG9KCjbjKHvtkaMJ-10" value="." style="html=1;align=center;spacingLeft=4;verticalAlign=top;strokeColor=none;fillColor=none;" parent="sVHChG9KCjbjKHvtkaMJ-6" vertex="1">
          <mxGeometry y="38" width="120" height="25" as="geometry" />
        </mxCell>
        <mxCell id="sVHChG9KCjbjKHvtkaMJ-12" value="" style="fontStyle=1;align=center;verticalAlign=top;childLayout=stackLayout;horizontal=1;horizontalStack=0;resizeParent=1;resizeParentMax=0;resizeLast=0;marginBottom=0;strokeColor=#82b366;strokeWidth=2;fillColor=none;" parent="jJMDsLOJsHRA9ecIZqBr-1" vertex="1">
          <mxGeometry x="360" y="530" width="120" height="63" as="geometry" />
        </mxCell>
        <mxCell id="sVHChG9KCjbjKHvtkaMJ-13" value="Merge Users" style="html=1;align=left;spacingLeft=4;verticalAlign=middle;strokeColor=none;fillColor=none;fontStyle=1" parent="sVHChG9KCjbjKHvtkaMJ-12" vertex="1">
          <mxGeometry width="120" height="30" as="geometry" />
        </mxCell>
        <mxCell id="sVHChG9KCjbjKHvtkaMJ-14" value="" style="shape=ellipse;" parent="sVHChG9KCjbjKHvtkaMJ-13" vertex="1">
          <mxGeometry x="1" width="10" height="16" relative="1" as="geometry">
            <mxPoint x="-25" y="7" as="offset" />
          </mxGeometry>
        </mxCell>
        <mxCell id="sVHChG9KCjbjKHvtkaMJ-15" value="" style="line;strokeWidth=1;fillColor=none;align=left;verticalAlign=middle;spacingTop=-1;spacingLeft=3;spacingRight=3;rotatable=0;labelPosition=right;points=[];portConstraint=eastwest;" parent="sVHChG9KCjbjKHvtkaMJ-12" vertex="1">
          <mxGeometry y="30" width="120" height="8" as="geometry" />
        </mxCell>
        <mxCell id="sVHChG9KCjbjKHvtkaMJ-16" value="." style="html=1;align=center;spacingLeft=4;verticalAlign=top;strokeColor=none;fillColor=none;" parent="sVHChG9KCjbjKHvtkaMJ-12" vertex="1">
          <mxGeometry y="38" width="120" height="25" as="geometry" />
        </mxCell>
        <mxCell id="sVHChG9KCjbjKHvtkaMJ-18" style="edgeStyle=none;rounded=0;orthogonalLoop=1;jettySize=auto;html=1;entryX=0;entryY=1;entryDx=0;entryDy=0;endArrow=open;endFill=0;" parent="jJMDsLOJsHRA9ecIZqBr-1" source="sVHChG9KCjbjKHvtkaMJ-17" target="sVHChG9KCjbjKHvtkaMJ-13" edge="1">
          <mxGeometry relative="1" as="geometry" />
        </mxCell>
        <mxCell id="sVHChG9KCjbjKHvtkaMJ-19" style="edgeStyle=none;rounded=0;orthogonalLoop=1;jettySize=auto;html=1;entryX=0.5;entryY=1;entryDx=0;entryDy=0;endArrow=block;endFill=0;" parent="jJMDsLOJsHRA9ecIZqBr-1" source="sVHChG9KCjbjKHvtkaMJ-17" target="sVHChG9KCjbjKHvtkaMJ-1" edge="1">
          <mxGeometry relative="1" as="geometry">
            <Array as="points">
              <mxPoint x="160" y="562" />
            </Array>
          </mxGeometry>
        </mxCell>
        <mxCell id="sVHChG9KCjbjKHvtkaMJ-17" value="&lt;p style=&quot;line-height: 100%&quot;&gt;&amp;lt;&amp;lt;actor&amp;gt;&amp;gt;&lt;br&gt;&lt;br&gt;&lt;b&gt;System&lt;br&gt;Daemon&lt;/b&gt;&lt;/p&gt;" style="text;html=1;align=center;verticalAlign=middle;dashed=0;strokeColor=#000000;strokeWidth=2;" parent="jJMDsLOJsHRA9ecIZqBr-1" vertex="1">
          <mxGeometry x="240" y="523" width="80" height="77" as="geometry" />
        </mxCell>
        <mxCell id="2Mfwxpr1ShzDx-wQTVwy-0" value="Roles are Group specific, and cascade down to child Groups.&amp;nbsp;&lt;br&gt;" style="shape=note;whiteSpace=wrap;html=1;size=14;verticalAlign=top;align=left;spacingTop=-6;" parent="jJMDsLOJsHRA9ecIZqBr-1" vertex="1">
          <mxGeometry x="500" y="160" width="160" height="50" as="geometry" />
        </mxCell>
        <mxCell id="2Mfwxpr1ShzDx-wQTVwy-1" value="Groups in turn own Assets&lt;br&gt;to which Users are assigned&amp;nbsp;&lt;br&gt;&lt;i&gt;&lt;b&gt;Resource Roles&lt;/b&gt;&lt;/i&gt; (Creator, Contributor, Reviewer, Publisher, etc.)" style="shape=note;whiteSpace=wrap;html=1;size=14;verticalAlign=top;align=left;spacingTop=-6;" parent="jJMDsLOJsHRA9ecIZqBr-1" vertex="1">
          <mxGeometry x="500" y="348.5" width="160" height="70" as="geometry" />
        </mxCell>
        <mxCell id="2Mfwxpr1ShzDx-wQTVwy-2" value="&lt;b&gt;&lt;i&gt;Group Roles&lt;/i&gt;&lt;/b&gt; often reflect RASCI responsibilities (Accountable/Owner, Responsible/Managing, Group Contact Person (shielding Owner), Members, Guests, Consultants, Informed users." style="shape=note;whiteSpace=wrap;html=1;size=14;verticalAlign=top;align=left;spacingTop=-6;" parent="jJMDsLOJsHRA9ecIZqBr-1" vertex="1">
          <mxGeometry x="500" y="223" width="160" height="110" as="geometry" />
        </mxCell>
      </root>
    </mxGraphModel>
  </diagram>
  <diagram id="XQF8JAbR9p_stVk4NLC5" name="Delegations">
    <mxGraphModel dx="1711" dy="741" grid="1" gridSize="10" guides="1" tooltips="1" connect="1" arrows="1" fold="1" page="1" pageScale="1" pageWidth="827" pageHeight="1169" math="0" shadow="0">
      <root>
        <mxCell id="cA6EnfzxyFlunogTbF0R-0" />
        <mxCell id="cA6EnfzxyFlunogTbF0R-1" parent="cA6EnfzxyFlunogTbF0R-0" />
        <mxCell id="UTAbv-rFCOtuhFzEheP9-9" value="&lt;font style=&quot;font-size: 12px&quot;&gt;&lt;span style=&quot;font-size: 12px&quot;&gt;Diagram: Base System Logical Module -&amp;nbsp;&lt;/span&gt;&lt;span style=&quot;font-size: 12px&quot;&gt;Functionality -&amp;nbsp;&lt;/span&gt;Users - Delegation&lt;/font&gt;" style="text;strokeColor=none;fillColor=none;html=1;fontSize=12;fontStyle=2;verticalAlign=middle;align=left;shadow=0;glass=0;comic=0;opacity=30;fontColor=#808080;" parent="cA6EnfzxyFlunogTbF0R-1" vertex="1">
          <mxGeometry x="120" y="440" width="520" height="40" as="geometry" />
        </mxCell>
        <mxCell id="c6N3yrrMn20inAgfai3b-18" style="edgeStyle=none;rounded=0;orthogonalLoop=1;jettySize=auto;html=1;entryX=0;entryY=0;entryDx=0;entryDy=0;endArrow=open;endFill=0;" parent="cA6EnfzxyFlunogTbF0R-1" source="c6N3yrrMn20inAgfai3b-0" target="c6N3yrrMn20inAgfai3b-5" edge="1">
          <mxGeometry relative="1" as="geometry" />
        </mxCell>
        <mxCell id="c6N3yrrMn20inAgfai3b-19" style="edgeStyle=none;rounded=0;orthogonalLoop=1;jettySize=auto;html=1;entryX=0;entryY=1;entryDx=0;entryDy=0;endArrow=open;endFill=0;" parent="cA6EnfzxyFlunogTbF0R-1" source="c6N3yrrMn20inAgfai3b-0" target="c6N3yrrMn20inAgfai3b-14" edge="1">
          <mxGeometry relative="1" as="geometry" />
        </mxCell>
        <mxCell id="c6N3yrrMn20inAgfai3b-20" style="edgeStyle=none;rounded=0;orthogonalLoop=1;jettySize=auto;html=1;entryX=0;entryY=0.75;entryDx=0;entryDy=0;endArrow=open;endFill=0;" parent="cA6EnfzxyFlunogTbF0R-1" source="c6N3yrrMn20inAgfai3b-0" target="c6N3yrrMn20inAgfai3b-9" edge="1">
          <mxGeometry relative="1" as="geometry" />
        </mxCell>
        <mxCell id="c6N3yrrMn20inAgfai3b-27" style="edgeStyle=none;rounded=0;orthogonalLoop=1;jettySize=auto;html=1;entryX=0;entryY=1;entryDx=0;entryDy=0;endArrow=open;endFill=0;" parent="cA6EnfzxyFlunogTbF0R-1" source="c6N3yrrMn20inAgfai3b-0" target="c6N3yrrMn20inAgfai3b-23" edge="1">
          <mxGeometry relative="1" as="geometry" />
        </mxCell>
        <mxCell id="c6N3yrrMn20inAgfai3b-0" value="&lt;p style=&quot;line-height: 100%&quot;&gt;&amp;lt;&amp;lt;actor&amp;gt;&amp;gt;&lt;b&gt;&lt;br&gt;Authenticated&lt;br&gt;User&lt;/b&gt;&lt;br&gt;&lt;/p&gt;" style="text;html=1;align=center;verticalAlign=middle;dashed=0;strokeColor=#000000;strokeWidth=2;" parent="cA6EnfzxyFlunogTbF0R-1" vertex="1">
          <mxGeometry x="120" y="240" width="80" height="60" as="geometry" />
        </mxCell>
        <mxCell id="c6N3yrrMn20inAgfai3b-1" value="" style="fontStyle=1;align=center;verticalAlign=top;childLayout=stackLayout;horizontal=1;horizontalStack=0;resizeParent=1;resizeParentMax=0;resizeLast=0;marginBottom=0;strokeColor=#82b366;strokeWidth=2;fillColor=none;" parent="cA6EnfzxyFlunogTbF0R-1" vertex="1">
          <mxGeometry x="240" y="120" width="120" height="63" as="geometry" />
        </mxCell>
        <mxCell id="c6N3yrrMn20inAgfai3b-2" value="Invite User&amp;nbsp;&lt;br&gt;as Group Role&lt;br&gt;Delegate" style="html=1;align=left;spacingLeft=4;verticalAlign=middle;strokeColor=none;fillColor=none;fontStyle=1" parent="c6N3yrrMn20inAgfai3b-1" vertex="1">
          <mxGeometry width="120" height="30" as="geometry" />
        </mxCell>
        <mxCell id="c6N3yrrMn20inAgfai3b-3" value="" style="shape=ellipse;" parent="c6N3yrrMn20inAgfai3b-2" vertex="1">
          <mxGeometry x="1" width="10" height="16" relative="1" as="geometry">
            <mxPoint x="-25" y="7" as="offset" />
          </mxGeometry>
        </mxCell>
        <mxCell id="c6N3yrrMn20inAgfai3b-4" value="" style="line;strokeWidth=1;fillColor=none;align=left;verticalAlign=middle;spacingTop=-1;spacingLeft=3;spacingRight=3;rotatable=0;labelPosition=right;points=[];portConstraint=eastwest;" parent="c6N3yrrMn20inAgfai3b-1" vertex="1">
          <mxGeometry y="30" width="120" height="8" as="geometry" />
        </mxCell>
        <mxCell id="c6N3yrrMn20inAgfai3b-5" value="." style="html=1;align=center;spacingLeft=4;verticalAlign=top;strokeColor=none;fillColor=none;" parent="c6N3yrrMn20inAgfai3b-1" vertex="1">
          <mxGeometry y="38" width="120" height="25" as="geometry" />
        </mxCell>
        <mxCell id="c6N3yrrMn20inAgfai3b-8" value="" style="fontStyle=1;align=center;verticalAlign=top;childLayout=stackLayout;horizontal=1;horizontalStack=0;resizeParent=1;resizeParentMax=0;resizeLast=0;marginBottom=0;strokeColor=#82b366;strokeWidth=2;fillColor=none;" parent="cA6EnfzxyFlunogTbF0R-1" vertex="1">
          <mxGeometry x="240" y="350" width="120" height="63" as="geometry" />
        </mxCell>
        <mxCell id="c6N3yrrMn20inAgfai3b-9" value="Remove Group &lt;br&gt;Role Delegation" style="html=1;align=left;spacingLeft=4;verticalAlign=middle;strokeColor=none;fillColor=none;fontStyle=1" parent="c6N3yrrMn20inAgfai3b-8" vertex="1">
          <mxGeometry width="120" height="30" as="geometry" />
        </mxCell>
        <mxCell id="c6N3yrrMn20inAgfai3b-10" value="" style="shape=ellipse;" parent="c6N3yrrMn20inAgfai3b-9" vertex="1">
          <mxGeometry x="1" width="10" height="16" relative="1" as="geometry">
            <mxPoint x="-25" y="7" as="offset" />
          </mxGeometry>
        </mxCell>
        <mxCell id="c6N3yrrMn20inAgfai3b-11" value="" style="line;strokeWidth=1;fillColor=none;align=left;verticalAlign=middle;spacingTop=-1;spacingLeft=3;spacingRight=3;rotatable=0;labelPosition=right;points=[];portConstraint=eastwest;" parent="c6N3yrrMn20inAgfai3b-8" vertex="1">
          <mxGeometry y="30" width="120" height="8" as="geometry" />
        </mxCell>
        <mxCell id="c6N3yrrMn20inAgfai3b-12" value="." style="html=1;align=center;spacingLeft=4;verticalAlign=top;strokeColor=none;fillColor=none;" parent="c6N3yrrMn20inAgfai3b-8" vertex="1">
          <mxGeometry y="38" width="120" height="25" as="geometry" />
        </mxCell>
        <mxCell id="c6N3yrrMn20inAgfai3b-13" value="" style="fontStyle=1;align=center;verticalAlign=top;childLayout=stackLayout;horizontal=1;horizontalStack=0;resizeParent=1;resizeParentMax=0;resizeLast=0;marginBottom=0;strokeColor=#82b366;strokeWidth=2;fillColor=none;" parent="cA6EnfzxyFlunogTbF0R-1" vertex="1">
          <mxGeometry x="240" y="280" width="120" height="63" as="geometry" />
        </mxCell>
        <mxCell id="c6N3yrrMn20inAgfai3b-14" value="Revoke Single&lt;br&gt;Permissions&lt;br&gt;from Delegation" style="html=1;align=left;spacingLeft=4;verticalAlign=middle;strokeColor=none;fillColor=none;fontStyle=1" parent="c6N3yrrMn20inAgfai3b-13" vertex="1">
          <mxGeometry width="120" height="30" as="geometry" />
        </mxCell>
        <mxCell id="c6N3yrrMn20inAgfai3b-15" value="" style="shape=ellipse;" parent="c6N3yrrMn20inAgfai3b-14" vertex="1">
          <mxGeometry x="1" width="10" height="16" relative="1" as="geometry">
            <mxPoint x="-25" y="7" as="offset" />
          </mxGeometry>
        </mxCell>
        <mxCell id="c6N3yrrMn20inAgfai3b-16" value="" style="line;strokeWidth=1;fillColor=none;align=left;verticalAlign=middle;spacingTop=-1;spacingLeft=3;spacingRight=3;rotatable=0;labelPosition=right;points=[];portConstraint=eastwest;" parent="c6N3yrrMn20inAgfai3b-13" vertex="1">
          <mxGeometry y="30" width="120" height="8" as="geometry" />
        </mxCell>
        <mxCell id="c6N3yrrMn20inAgfai3b-17" value="." style="html=1;align=center;spacingLeft=4;verticalAlign=top;strokeColor=none;fillColor=none;" parent="c6N3yrrMn20inAgfai3b-13" vertex="1">
          <mxGeometry y="38" width="120" height="25" as="geometry" />
        </mxCell>
        <mxCell id="c6N3yrrMn20inAgfai3b-21" value="Delegation&lt;br&gt;is limited to parent &lt;br&gt;Delegation Root Group (can be Tenancy).&lt;br&gt;&lt;br&gt;Or Support Specialists.&lt;br&gt;&lt;br&gt;Delegations always have a Max Duration.&lt;br&gt;&lt;br&gt;Delegations Invitations must be Accepted." style="shape=note;size=20;whiteSpace=wrap;html=1;dashed=1;strokeWidth=1;fillColor=none;verticalAlign=top;" parent="cA6EnfzxyFlunogTbF0R-1" vertex="1">
          <mxGeometry x="440" y="200" width="120" height="220" as="geometry" />
        </mxCell>
        <mxCell id="c6N3yrrMn20inAgfai3b-22" value="" style="fontStyle=1;align=center;verticalAlign=top;childLayout=stackLayout;horizontal=1;horizontalStack=0;resizeParent=1;resizeParentMax=0;resizeLast=0;marginBottom=0;strokeColor=#82b366;strokeWidth=2;fillColor=none;" parent="cA6EnfzxyFlunogTbF0R-1" vertex="1">
          <mxGeometry x="240" y="200" width="120" height="63" as="geometry" />
        </mxCell>
        <mxCell id="c6N3yrrMn20inAgfai3b-23" value="Accept Group &lt;br&gt;Role Delegation" style="html=1;align=left;spacingLeft=4;verticalAlign=middle;strokeColor=none;fillColor=none;fontStyle=1" parent="c6N3yrrMn20inAgfai3b-22" vertex="1">
          <mxGeometry width="120" height="30" as="geometry" />
        </mxCell>
        <mxCell id="c6N3yrrMn20inAgfai3b-24" value="" style="shape=ellipse;" parent="c6N3yrrMn20inAgfai3b-23" vertex="1">
          <mxGeometry x="1" width="10" height="16" relative="1" as="geometry">
            <mxPoint x="-25" y="7" as="offset" />
          </mxGeometry>
        </mxCell>
        <mxCell id="c6N3yrrMn20inAgfai3b-25" value="" style="line;strokeWidth=1;fillColor=none;align=left;verticalAlign=middle;spacingTop=-1;spacingLeft=3;spacingRight=3;rotatable=0;labelPosition=right;points=[];portConstraint=eastwest;" parent="c6N3yrrMn20inAgfai3b-22" vertex="1">
          <mxGeometry y="30" width="120" height="8" as="geometry" />
        </mxCell>
        <mxCell id="c6N3yrrMn20inAgfai3b-26" value="." style="html=1;align=center;spacingLeft=4;verticalAlign=top;strokeColor=none;fillColor=none;" parent="c6N3yrrMn20inAgfai3b-22" vertex="1">
          <mxGeometry y="38" width="120" height="25" as="geometry" />
        </mxCell>
      </root>
    </mxGraphModel>
  </diagram>
  <diagram id="FZIw7umQj6EEWO0zANgz" name="Tags">
    <mxGraphModel dx="1711" dy="741" grid="1" gridSize="10" guides="1" tooltips="1" connect="1" arrows="1" fold="1" page="1" pageScale="1" pageWidth="827" pageHeight="1169" math="0" shadow="0">
      <root>
        <mxCell id="I90MQL6RxVj9hhBw1dbk-0" />
        <mxCell id="I90MQL6RxVj9hhBw1dbk-1" parent="I90MQL6RxVj9hhBw1dbk-0" />
        <mxCell id="1rFRM2pLISEZPAcxCDYn-6" value="Tag Management includes creation of Aliases&amp;nbsp; (&quot;Mgmt&quot; for &quot;Management&quot;)" style="shape=note;whiteSpace=wrap;html=1;size=14;verticalAlign=top;align=left;spacingTop=-6;strokeColor=#999999;strokeWidth=1;fillColor=none;fontFamily=Helvetica;fontSize=12;fontColor=#000000;" parent="I90MQL6RxVj9hhBw1dbk-1" vertex="1">
          <mxGeometry x="400" y="351.5" width="160" height="40" as="geometry" />
        </mxCell>
        <mxCell id="1rFRM2pLISEZPAcxCDYn-11" value="&lt;font style=&quot;font-size: 12px&quot;&gt;&lt;span style=&quot;font-size: 12px&quot;&gt;Diagram: Base System Logical Module -&amp;nbsp;&lt;/span&gt;&lt;span style=&quot;font-size: 12px&quot;&gt;Functionality -&amp;nbsp;&lt;/span&gt;Organisation Tags&lt;/font&gt;" style="text;strokeColor=none;fillColor=none;html=1;fontSize=12;fontStyle=2;verticalAlign=middle;align=left;shadow=0;glass=0;comic=0;opacity=30;fontColor=#808080;" parent="I90MQL6RxVj9hhBw1dbk-1" vertex="1">
          <mxGeometry x="120" y="460" width="560" height="20" as="geometry" />
        </mxCell>
        <mxCell id="rmRqgsZCKtMQFMqzM6kI-0" value="" style="fontStyle=1;align=center;verticalAlign=top;childLayout=stackLayout;horizontal=1;horizontalStack=0;resizeParent=1;resizeParentMax=0;resizeLast=0;marginBottom=0;strokeColor=#82b366;strokeWidth=2;fillColor=none;" parent="I90MQL6RxVj9hhBw1dbk-1" vertex="1">
          <mxGeometry x="240" y="240" width="120" height="63" as="geometry" />
        </mxCell>
        <mxCell id="rmRqgsZCKtMQFMqzM6kI-1" value="Tag an Item" style="html=1;align=left;spacingLeft=4;verticalAlign=middle;strokeColor=none;fillColor=none;fontStyle=1" parent="rmRqgsZCKtMQFMqzM6kI-0" vertex="1">
          <mxGeometry width="120" height="30" as="geometry" />
        </mxCell>
        <mxCell id="rmRqgsZCKtMQFMqzM6kI-2" value="" style="shape=ellipse;" parent="rmRqgsZCKtMQFMqzM6kI-1" vertex="1">
          <mxGeometry x="1" width="10" height="16" relative="1" as="geometry">
            <mxPoint x="-25" y="7" as="offset" />
          </mxGeometry>
        </mxCell>
        <mxCell id="rmRqgsZCKtMQFMqzM6kI-3" value="" style="line;strokeWidth=1;fillColor=none;align=left;verticalAlign=middle;spacingTop=-1;spacingLeft=3;spacingRight=3;rotatable=0;labelPosition=right;points=[];portConstraint=eastwest;" parent="rmRqgsZCKtMQFMqzM6kI-0" vertex="1">
          <mxGeometry y="30" width="120" height="8" as="geometry" />
        </mxCell>
        <mxCell id="rmRqgsZCKtMQFMqzM6kI-4" value="." style="html=1;align=center;spacingLeft=4;verticalAlign=top;strokeColor=none;fillColor=none;" parent="rmRqgsZCKtMQFMqzM6kI-0" vertex="1">
          <mxGeometry y="38" width="120" height="25" as="geometry" />
        </mxCell>
        <mxCell id="rmRqgsZCKtMQFMqzM6kI-18" style="edgeStyle=none;rounded=0;orthogonalLoop=1;jettySize=auto;html=1;entryX=0.5;entryY=1;entryDx=0;entryDy=0;endArrow=block;endFill=0;" parent="I90MQL6RxVj9hhBw1dbk-1" source="rmRqgsZCKtMQFMqzM6kI-5" target="rmRqgsZCKtMQFMqzM6kI-16" edge="1">
          <mxGeometry relative="1" as="geometry" />
        </mxCell>
        <mxCell id="rmRqgsZCKtMQFMqzM6kI-20" style="edgeStyle=none;rounded=0;orthogonalLoop=1;jettySize=auto;html=1;entryX=0;entryY=0;entryDx=0;entryDy=0;entryPerimeter=0;endArrow=open;endFill=0;" parent="I90MQL6RxVj9hhBw1dbk-1" source="rmRqgsZCKtMQFMqzM6kI-5" target="rmRqgsZCKtMQFMqzM6kI-9" edge="1">
          <mxGeometry relative="1" as="geometry" />
        </mxCell>
        <mxCell id="rmRqgsZCKtMQFMqzM6kI-5" value="&lt;p style=&quot;line-height: 100%&quot;&gt;&amp;lt;&amp;lt;actor&amp;gt;&amp;gt;&lt;br&gt;&lt;br&gt;&lt;b&gt;Group Tag&lt;br&gt;Admin&lt;/b&gt;&lt;/p&gt;" style="text;html=1;align=center;verticalAlign=middle;dashed=0;strokeColor=#000000;strokeWidth=2;" parent="I90MQL6RxVj9hhBw1dbk-1" vertex="1">
          <mxGeometry x="120" y="350" width="80" height="60" as="geometry" />
        </mxCell>
        <mxCell id="rmRqgsZCKtMQFMqzM6kI-6" value="" style="fontStyle=1;align=center;verticalAlign=top;childLayout=stackLayout;horizontal=1;horizontalStack=0;resizeParent=1;resizeParentMax=0;resizeLast=0;marginBottom=0;strokeColor=#82b366;strokeWidth=2;fillColor=none;" parent="I90MQL6RxVj9hhBw1dbk-1" vertex="1">
          <mxGeometry x="240" y="350" width="120" height="63" as="geometry" />
        </mxCell>
        <mxCell id="rmRqgsZCKtMQFMqzM6kI-7" value="Tag &lt;br&gt;Management" style="html=1;align=left;spacingLeft=4;verticalAlign=middle;strokeColor=none;fillColor=none;fontStyle=1" parent="rmRqgsZCKtMQFMqzM6kI-6" vertex="1">
          <mxGeometry width="120" height="30" as="geometry" />
        </mxCell>
        <mxCell id="rmRqgsZCKtMQFMqzM6kI-8" value="" style="shape=ellipse;" parent="rmRqgsZCKtMQFMqzM6kI-7" vertex="1">
          <mxGeometry x="1" width="10" height="16" relative="1" as="geometry">
            <mxPoint x="-25" y="7" as="offset" />
          </mxGeometry>
        </mxCell>
        <mxCell id="rmRqgsZCKtMQFMqzM6kI-9" value="" style="line;strokeWidth=1;fillColor=none;align=left;verticalAlign=middle;spacingTop=-1;spacingLeft=3;spacingRight=3;rotatable=0;labelPosition=right;points=[];portConstraint=eastwest;" parent="rmRqgsZCKtMQFMqzM6kI-6" vertex="1">
          <mxGeometry y="30" width="120" height="8" as="geometry" />
        </mxCell>
        <mxCell id="rmRqgsZCKtMQFMqzM6kI-10" value="." style="html=1;align=center;spacingLeft=4;verticalAlign=top;strokeColor=none;fillColor=none;" parent="rmRqgsZCKtMQFMqzM6kI-6" vertex="1">
          <mxGeometry y="38" width="120" height="25" as="geometry" />
        </mxCell>
        <mxCell id="rmRqgsZCKtMQFMqzM6kI-19" style="edgeStyle=none;rounded=0;orthogonalLoop=1;jettySize=auto;html=1;entryX=0;entryY=0;entryDx=0;entryDy=0;endArrow=open;endFill=0;" parent="I90MQL6RxVj9hhBw1dbk-1" source="rmRqgsZCKtMQFMqzM6kI-16" target="rmRqgsZCKtMQFMqzM6kI-4" edge="1">
          <mxGeometry relative="1" as="geometry" />
        </mxCell>
        <mxCell id="rmRqgsZCKtMQFMqzM6kI-16" value="&lt;p style=&quot;line-height: 100%&quot;&gt;&amp;lt;&amp;lt;actor&amp;gt;&amp;gt;&lt;br&gt;&lt;br&gt;&lt;b&gt;Group&lt;br&gt;Member&lt;/b&gt;&lt;/p&gt;" style="text;html=1;align=center;verticalAlign=middle;dashed=0;strokeColor=#000000;strokeWidth=2;" parent="I90MQL6RxVj9hhBw1dbk-1" vertex="1">
          <mxGeometry x="120" y="243" width="80" height="60" as="geometry" />
        </mxCell>
        <mxCell id="rmRqgsZCKtMQFMqzM6kI-21" value="As Groups, Tags are enheritable - but can be&amp;nbsp; duplicated as well (they&#39;re just pre-agreed search terms after all). Note that Tags are not easily Localisable.." style="shape=note;whiteSpace=wrap;html=1;size=14;verticalAlign=top;align=left;spacingTop=-6;strokeColor=#999999;strokeWidth=1;fillColor=none;fontFamily=Helvetica;fontSize=12;fontColor=#000000;" parent="I90MQL6RxVj9hhBw1dbk-1" vertex="1">
          <mxGeometry x="400" y="240" width="160" height="90" as="geometry" />
        </mxCell>
      </root>
    </mxGraphModel>
  </diagram>
  <diagram id="2RXM7sX38PiaDnUr8v_C" name="Notification Management">
    <mxGraphModel dx="1711" dy="741" grid="1" gridSize="10" guides="1" tooltips="1" connect="1" arrows="1" fold="1" page="1" pageScale="1" pageWidth="827" pageHeight="1169" math="0" shadow="0">
      <root>
        <mxCell id="NxLrh54Sxkp_m2qRzysd-0" />
        <mxCell id="NxLrh54Sxkp_m2qRzysd-1" parent="NxLrh54Sxkp_m2qRzysd-0" />
        <mxCell id="Fi4_HFDYUnXGCg3XtQyT-13" value="&lt;font style=&quot;font-size: 12px&quot;&gt;&lt;span style=&quot;font-size: 12px&quot;&gt;Diagram: Base System Logical Module -&amp;nbsp;&lt;/span&gt;&lt;span style=&quot;font-size: 12px&quot;&gt;Functionality -&amp;nbsp;&lt;/span&gt;Organisation Notification&lt;/font&gt;" style="text;strokeColor=none;fillColor=none;html=1;fontSize=12;fontStyle=2;verticalAlign=middle;align=left;shadow=0;glass=0;comic=0;opacity=30;fontColor=#808080;" parent="NxLrh54Sxkp_m2qRzysd-1" vertex="1">
          <mxGeometry x="120" y="480" width="520" height="40" as="geometry" />
        </mxCell>
        <mxCell id="U1BWp0Xp3KbdW19bl_f6-0" value="" style="fontStyle=1;align=center;verticalAlign=top;childLayout=stackLayout;horizontal=1;horizontalStack=0;resizeParent=1;resizeParentMax=0;resizeLast=0;marginBottom=0;strokeColor=#82b366;strokeWidth=2;fillColor=none;" parent="NxLrh54Sxkp_m2qRzysd-1" vertex="1">
          <mxGeometry x="120" y="200" width="120" height="63" as="geometry" />
        </mxCell>
        <mxCell id="U1BWp0Xp3KbdW19bl_f6-1" value="List SummaryItems&lt;br&gt;of Notifications" style="html=1;align=left;spacingLeft=4;verticalAlign=middle;strokeColor=none;fillColor=none;fontStyle=1" parent="U1BWp0Xp3KbdW19bl_f6-0" vertex="1">
          <mxGeometry width="120" height="30" as="geometry" />
        </mxCell>
        <mxCell id="U1BWp0Xp3KbdW19bl_f6-2" value="" style="shape=ellipse;" parent="U1BWp0Xp3KbdW19bl_f6-1" vertex="1">
          <mxGeometry x="1" width="10" height="16" relative="1" as="geometry">
            <mxPoint x="-25" y="7" as="offset" />
          </mxGeometry>
        </mxCell>
        <mxCell id="U1BWp0Xp3KbdW19bl_f6-3" value="" style="line;strokeWidth=1;fillColor=none;align=left;verticalAlign=middle;spacingTop=-1;spacingLeft=3;spacingRight=3;rotatable=0;labelPosition=right;points=[];portConstraint=eastwest;" parent="U1BWp0Xp3KbdW19bl_f6-0" vertex="1">
          <mxGeometry y="30" width="120" height="8" as="geometry" />
        </mxCell>
        <mxCell id="U1BWp0Xp3KbdW19bl_f6-4" value="." style="html=1;align=center;spacingLeft=4;verticalAlign=top;strokeColor=none;fillColor=none;" parent="U1BWp0Xp3KbdW19bl_f6-0" vertex="1">
          <mxGeometry y="38" width="120" height="25" as="geometry" />
        </mxCell>
        <mxCell id="U1BWp0Xp3KbdW19bl_f6-8" value="" style="fontStyle=1;align=center;verticalAlign=top;childLayout=stackLayout;horizontal=1;horizontalStack=0;resizeParent=1;resizeParentMax=0;resizeLast=0;marginBottom=0;strokeColor=#82b366;strokeWidth=2;fillColor=none;" parent="NxLrh54Sxkp_m2qRzysd-1" vertex="1">
          <mxGeometry x="120" y="270" width="120" height="63" as="geometry" />
        </mxCell>
        <mxCell id="U1BWp0Xp3KbdW19bl_f6-9" value="Retrieve Single&lt;br&gt;Notification" style="html=1;align=left;spacingLeft=4;verticalAlign=middle;strokeColor=none;fillColor=none;fontStyle=1" parent="U1BWp0Xp3KbdW19bl_f6-8" vertex="1">
          <mxGeometry width="120" height="30" as="geometry" />
        </mxCell>
        <mxCell id="U1BWp0Xp3KbdW19bl_f6-10" value="" style="shape=ellipse;" parent="U1BWp0Xp3KbdW19bl_f6-9" vertex="1">
          <mxGeometry x="1" width="10" height="16" relative="1" as="geometry">
            <mxPoint x="-25" y="7" as="offset" />
          </mxGeometry>
        </mxCell>
        <mxCell id="U1BWp0Xp3KbdW19bl_f6-11" value="" style="line;strokeWidth=1;fillColor=none;align=left;verticalAlign=middle;spacingTop=-1;spacingLeft=3;spacingRight=3;rotatable=0;labelPosition=right;points=[];portConstraint=eastwest;" parent="U1BWp0Xp3KbdW19bl_f6-8" vertex="1">
          <mxGeometry y="30" width="120" height="8" as="geometry" />
        </mxCell>
        <mxCell id="U1BWp0Xp3KbdW19bl_f6-12" value="." style="html=1;align=center;spacingLeft=4;verticalAlign=top;strokeColor=none;fillColor=none;" parent="U1BWp0Xp3KbdW19bl_f6-8" vertex="1">
          <mxGeometry y="38" width="120" height="25" as="geometry" />
        </mxCell>
        <mxCell id="U1BWp0Xp3KbdW19bl_f6-13" style="edgeStyle=none;rounded=0;orthogonalLoop=1;jettySize=auto;html=1;entryX=0.999;entryY=-0.349;entryDx=0;entryDy=0;endArrow=open;endFill=0;entryPerimeter=0;exitX=0;exitY=0.25;exitDx=0;exitDy=0;" parent="NxLrh54Sxkp_m2qRzysd-1" source="U1BWp0Xp3KbdW19bl_f6-14" target="U1BWp0Xp3KbdW19bl_f6-4" edge="1">
          <mxGeometry relative="1" as="geometry" />
        </mxCell>
        <mxCell id="U1BWp0Xp3KbdW19bl_f6-40" style="edgeStyle=none;rounded=0;orthogonalLoop=1;jettySize=auto;html=1;entryX=1;entryY=1;entryDx=0;entryDy=0;endArrow=open;endFill=0;" parent="NxLrh54Sxkp_m2qRzysd-1" source="U1BWp0Xp3KbdW19bl_f6-14" target="U1BWp0Xp3KbdW19bl_f6-9" edge="1">
          <mxGeometry relative="1" as="geometry" />
        </mxCell>
        <mxCell id="U1BWp0Xp3KbdW19bl_f6-41" style="edgeStyle=none;rounded=0;orthogonalLoop=1;jettySize=auto;html=1;entryX=1;entryY=0.75;entryDx=0;entryDy=0;endArrow=open;endFill=0;" parent="NxLrh54Sxkp_m2qRzysd-1" source="U1BWp0Xp3KbdW19bl_f6-14" target="U1BWp0Xp3KbdW19bl_f6-16" edge="1">
          <mxGeometry relative="1" as="geometry" />
        </mxCell>
        <mxCell id="U1BWp0Xp3KbdW19bl_f6-42" style="edgeStyle=none;rounded=0;orthogonalLoop=1;jettySize=auto;html=1;entryX=0;entryY=0.75;entryDx=0;entryDy=0;endArrow=open;endFill=0;exitX=1;exitY=0.25;exitDx=0;exitDy=0;" parent="NxLrh54Sxkp_m2qRzysd-1" source="U1BWp0Xp3KbdW19bl_f6-14" target="U1BWp0Xp3KbdW19bl_f6-21" edge="1">
          <mxGeometry relative="1" as="geometry" />
        </mxCell>
        <mxCell id="U1BWp0Xp3KbdW19bl_f6-43" style="edgeStyle=none;rounded=0;orthogonalLoop=1;jettySize=auto;html=1;entryX=0;entryY=0.75;entryDx=0;entryDy=0;endArrow=open;endFill=0;exitX=1;exitY=0.75;exitDx=0;exitDy=0;" parent="NxLrh54Sxkp_m2qRzysd-1" source="U1BWp0Xp3KbdW19bl_f6-14" target="U1BWp0Xp3KbdW19bl_f6-31" edge="1">
          <mxGeometry relative="1" as="geometry" />
        </mxCell>
        <mxCell id="U1BWp0Xp3KbdW19bl_f6-14" value="&lt;p style=&quot;line-height: 100%&quot;&gt;&amp;lt;&amp;lt;actor&amp;gt;&amp;gt;&lt;br&gt;&lt;b&gt;Authenticated&lt;br&gt;User&lt;/b&gt;&lt;br&gt;&lt;/p&gt;" style="text;html=1;align=center;verticalAlign=middle;dashed=0;strokeColor=#000000;strokeWidth=2;" parent="NxLrh54Sxkp_m2qRzysd-1" vertex="1">
          <mxGeometry x="280" y="280" width="80" height="60" as="geometry" />
        </mxCell>
        <mxCell id="U1BWp0Xp3KbdW19bl_f6-15" value="" style="fontStyle=1;align=center;verticalAlign=top;childLayout=stackLayout;horizontal=1;horizontalStack=0;resizeParent=1;resizeParentMax=0;resizeLast=0;marginBottom=0;strokeColor=#82b366;strokeWidth=2;fillColor=none;" parent="NxLrh54Sxkp_m2qRzysd-1" vertex="1">
          <mxGeometry x="120" y="340" width="120" height="63" as="geometry" />
        </mxCell>
        <mxCell id="U1BWp0Xp3KbdW19bl_f6-16" value="Change State/ &lt;br&gt;Mark as Read" style="html=1;align=left;spacingLeft=4;verticalAlign=middle;strokeColor=none;fillColor=none;fontStyle=1" parent="U1BWp0Xp3KbdW19bl_f6-15" vertex="1">
          <mxGeometry width="120" height="30" as="geometry" />
        </mxCell>
        <mxCell id="U1BWp0Xp3KbdW19bl_f6-17" value="" style="shape=ellipse;" parent="U1BWp0Xp3KbdW19bl_f6-16" vertex="1">
          <mxGeometry x="1" width="10" height="16" relative="1" as="geometry">
            <mxPoint x="-25" y="7" as="offset" />
          </mxGeometry>
        </mxCell>
        <mxCell id="U1BWp0Xp3KbdW19bl_f6-18" value="" style="line;strokeWidth=1;fillColor=none;align=left;verticalAlign=middle;spacingTop=-1;spacingLeft=3;spacingRight=3;rotatable=0;labelPosition=right;points=[];portConstraint=eastwest;" parent="U1BWp0Xp3KbdW19bl_f6-15" vertex="1">
          <mxGeometry y="30" width="120" height="8" as="geometry" />
        </mxCell>
        <mxCell id="U1BWp0Xp3KbdW19bl_f6-19" value="." style="html=1;align=center;spacingLeft=4;verticalAlign=top;strokeColor=none;fillColor=none;" parent="U1BWp0Xp3KbdW19bl_f6-15" vertex="1">
          <mxGeometry y="38" width="120" height="25" as="geometry" />
        </mxCell>
        <mxCell id="U1BWp0Xp3KbdW19bl_f6-20" value="" style="fontStyle=1;align=center;verticalAlign=top;childLayout=stackLayout;horizontal=1;horizontalStack=0;resizeParent=1;resizeParentMax=0;resizeLast=0;marginBottom=0;strokeColor=#82b366;strokeWidth=2;fillColor=none;" parent="NxLrh54Sxkp_m2qRzysd-1" vertex="1">
          <mxGeometry x="400" y="200" width="120" height="63" as="geometry" />
        </mxCell>
        <mxCell id="U1BWp0Xp3KbdW19bl_f6-21" value="Create &lt;br&gt;Notification" style="html=1;align=left;spacingLeft=4;verticalAlign=middle;strokeColor=none;fillColor=none;fontStyle=1" parent="U1BWp0Xp3KbdW19bl_f6-20" vertex="1">
          <mxGeometry width="120" height="30" as="geometry" />
        </mxCell>
        <mxCell id="U1BWp0Xp3KbdW19bl_f6-22" value="" style="shape=ellipse;" parent="U1BWp0Xp3KbdW19bl_f6-21" vertex="1">
          <mxGeometry x="1" width="10" height="16" relative="1" as="geometry">
            <mxPoint x="-25" y="7" as="offset" />
          </mxGeometry>
        </mxCell>
        <mxCell id="U1BWp0Xp3KbdW19bl_f6-23" value="" style="line;strokeWidth=1;fillColor=none;align=left;verticalAlign=middle;spacingTop=-1;spacingLeft=3;spacingRight=3;rotatable=0;labelPosition=right;points=[];portConstraint=eastwest;" parent="U1BWp0Xp3KbdW19bl_f6-20" vertex="1">
          <mxGeometry y="30" width="120" height="8" as="geometry" />
        </mxCell>
        <mxCell id="U1BWp0Xp3KbdW19bl_f6-24" value="." style="html=1;align=center;spacingLeft=4;verticalAlign=top;strokeColor=none;fillColor=none;" parent="U1BWp0Xp3KbdW19bl_f6-20" vertex="1">
          <mxGeometry y="38" width="120" height="25" as="geometry" />
        </mxCell>
        <mxCell id="U1BWp0Xp3KbdW19bl_f6-30" value="" style="fontStyle=1;align=center;verticalAlign=top;childLayout=stackLayout;horizontal=1;horizontalStack=0;resizeParent=1;resizeParentMax=0;resizeLast=0;marginBottom=0;strokeColor=#82b366;strokeWidth=2;fillColor=none;" parent="NxLrh54Sxkp_m2qRzysd-1" vertex="1">
          <mxGeometry x="400" y="340" width="120" height="63" as="geometry" />
        </mxCell>
        <mxCell id="U1BWp0Xp3KbdW19bl_f6-31" value="Change State/&lt;br&gt;Soft Delete/Restore&lt;br&gt;Notification" style="html=1;align=left;spacingLeft=4;verticalAlign=middle;strokeColor=none;fillColor=none;fontStyle=1" parent="U1BWp0Xp3KbdW19bl_f6-30" vertex="1">
          <mxGeometry width="120" height="30" as="geometry" />
        </mxCell>
        <mxCell id="U1BWp0Xp3KbdW19bl_f6-32" value="" style="shape=ellipse;" parent="U1BWp0Xp3KbdW19bl_f6-31" vertex="1">
          <mxGeometry x="1" width="10" height="16" relative="1" as="geometry">
            <mxPoint x="-25" y="7" as="offset" />
          </mxGeometry>
        </mxCell>
        <mxCell id="U1BWp0Xp3KbdW19bl_f6-33" value="" style="line;strokeWidth=1;fillColor=none;align=left;verticalAlign=middle;spacingTop=-1;spacingLeft=3;spacingRight=3;rotatable=0;labelPosition=right;points=[];portConstraint=eastwest;" parent="U1BWp0Xp3KbdW19bl_f6-30" vertex="1">
          <mxGeometry y="30" width="120" height="8" as="geometry" />
        </mxCell>
        <mxCell id="U1BWp0Xp3KbdW19bl_f6-34" value="." style="html=1;align=center;spacingLeft=4;verticalAlign=top;strokeColor=none;fillColor=none;" parent="U1BWp0Xp3KbdW19bl_f6-30" vertex="1">
          <mxGeometry y="38" width="120" height="25" as="geometry" />
        </mxCell>
      </root>
    </mxGraphModel>
  </diagram>
  <diagram id="HYzF73KgEnye3sPiTIXc" name="Dashboard">
    <mxGraphModel dx="1711" dy="741" grid="1" gridSize="10" guides="1" tooltips="1" connect="1" arrows="1" fold="1" page="1" pageScale="1" pageWidth="827" pageHeight="1169" math="0" shadow="0">
      <root>
        <mxCell id="U306Htc3g1HH8Dd8mSrG-0" />
        <mxCell id="U306Htc3g1HH8Dd8mSrG-1" parent="U306Htc3g1HH8Dd8mSrG-0" />
        <mxCell id="l57STPvQWjNYZPw2Y4dd-9" value="&lt;font style=&quot;font-size: 12px ; font-weight: normal&quot;&gt;&lt;i&gt;&lt;span&gt;Diagram: Base System Logical Module -&amp;nbsp;&lt;/span&gt;&lt;span&gt;Functionality -&amp;nbsp;&lt;/span&gt;Dashboard Items&lt;/i&gt;&lt;/font&gt;" style="text;strokeColor=none;fillColor=none;html=1;fontSize=10;fontStyle=1;verticalAlign=middle;align=left;shadow=0;glass=0;comic=0;opacity=30;fontColor=#808080;" parent="U306Htc3g1HH8Dd8mSrG-1" vertex="1">
          <mxGeometry x="120" y="440" width="520" height="40" as="geometry" />
        </mxCell>
        <mxCell id="tnz5LCsHIrxU88MOOZeP-22" style="edgeStyle=none;rounded=0;orthogonalLoop=1;jettySize=auto;html=1;entryX=0;entryY=0;entryDx=0;entryDy=0;entryPerimeter=0;endArrow=open;endFill=0;" parent="U306Htc3g1HH8Dd8mSrG-1" source="tnz5LCsHIrxU88MOOZeP-0" target="tnz5LCsHIrxU88MOOZeP-4" edge="1">
          <mxGeometry relative="1" as="geometry" />
        </mxCell>
        <mxCell id="tnz5LCsHIrxU88MOOZeP-23" style="edgeStyle=none;rounded=0;orthogonalLoop=1;jettySize=auto;html=1;entryX=0;entryY=0;entryDx=0;entryDy=0;endArrow=open;endFill=0;" parent="U306Htc3g1HH8Dd8mSrG-1" source="tnz5LCsHIrxU88MOOZeP-0" target="tnz5LCsHIrxU88MOOZeP-15" edge="1">
          <mxGeometry relative="1" as="geometry" />
        </mxCell>
        <mxCell id="tnz5LCsHIrxU88MOOZeP-24" style="edgeStyle=none;rounded=0;orthogonalLoop=1;jettySize=auto;html=1;entryX=0;entryY=0.75;entryDx=0;entryDy=0;endArrow=open;endFill=0;" parent="U306Htc3g1HH8Dd8mSrG-1" source="tnz5LCsHIrxU88MOOZeP-0" target="tnz5LCsHIrxU88MOOZeP-7" edge="1">
          <mxGeometry relative="1" as="geometry" />
        </mxCell>
        <mxCell id="tnz5LCsHIrxU88MOOZeP-25" style="edgeStyle=none;rounded=0;orthogonalLoop=1;jettySize=auto;html=1;entryX=0;entryY=1;entryDx=0;entryDy=0;endArrow=open;endFill=0;" parent="U306Htc3g1HH8Dd8mSrG-1" source="tnz5LCsHIrxU88MOOZeP-0" target="tnz5LCsHIrxU88MOOZeP-18" edge="1">
          <mxGeometry relative="1" as="geometry" />
        </mxCell>
        <mxCell id="tnz5LCsHIrxU88MOOZeP-0" value="&lt;p style=&quot;line-height: 100%&quot;&gt;&amp;lt;&amp;lt;actor&amp;gt;&amp;gt;&lt;br&gt;&lt;b&gt;Tenant &lt;br&gt;Authenticated&lt;br&gt;User&lt;/b&gt;&lt;br&gt;&lt;/p&gt;" style="text;html=1;align=center;verticalAlign=middle;dashed=0;strokeColor=#000000;strokeWidth=2;" parent="U306Htc3g1HH8Dd8mSrG-1" vertex="1">
          <mxGeometry x="120" y="230" width="80" height="60" as="geometry" />
        </mxCell>
        <mxCell id="tnz5LCsHIrxU88MOOZeP-1" value="" style="fontStyle=1;align=center;verticalAlign=top;childLayout=stackLayout;horizontal=1;horizontalStack=0;resizeParent=1;resizeParentMax=0;resizeLast=0;marginBottom=0;strokeColor=#82b366;strokeWidth=2;fillColor=none;" parent="U306Htc3g1HH8Dd8mSrG-1" vertex="1">
          <mxGeometry x="240" y="120" width="120" height="63" as="geometry" />
        </mxCell>
        <mxCell id="tnz5LCsHIrxU88MOOZeP-2" value="Retrieve/View&lt;br&gt;Dashboard&lt;br&gt;Items" style="html=1;align=left;spacingLeft=4;verticalAlign=middle;strokeColor=none;fillColor=none;fontStyle=1" parent="tnz5LCsHIrxU88MOOZeP-1" vertex="1">
          <mxGeometry width="120" height="30" as="geometry" />
        </mxCell>
        <mxCell id="tnz5LCsHIrxU88MOOZeP-3" value="" style="shape=ellipse;" parent="tnz5LCsHIrxU88MOOZeP-2" vertex="1">
          <mxGeometry x="1" width="10" height="16" relative="1" as="geometry">
            <mxPoint x="-25" y="7" as="offset" />
          </mxGeometry>
        </mxCell>
        <mxCell id="tnz5LCsHIrxU88MOOZeP-4" value="" style="line;strokeWidth=1;fillColor=none;align=left;verticalAlign=middle;spacingTop=-1;spacingLeft=3;spacingRight=3;rotatable=0;labelPosition=right;points=[];portConstraint=eastwest;" parent="tnz5LCsHIrxU88MOOZeP-1" vertex="1">
          <mxGeometry y="30" width="120" height="8" as="geometry" />
        </mxCell>
        <mxCell id="tnz5LCsHIrxU88MOOZeP-5" value="." style="html=1;align=center;spacingLeft=4;verticalAlign=top;strokeColor=none;fillColor=none;" parent="tnz5LCsHIrxU88MOOZeP-1" vertex="1">
          <mxGeometry y="38" width="120" height="25" as="geometry" />
        </mxCell>
        <mxCell id="tnz5LCsHIrxU88MOOZeP-6" value="" style="fontStyle=1;align=center;verticalAlign=top;childLayout=stackLayout;horizontal=1;horizontalStack=0;resizeParent=1;resizeParentMax=0;resizeLast=0;marginBottom=0;strokeColor=#82b366;strokeWidth=2;fillColor=none;" parent="U306Htc3g1HH8Dd8mSrG-1" vertex="1">
          <mxGeometry x="240" y="260" width="120" height="63" as="geometry" />
        </mxCell>
        <mxCell id="tnz5LCsHIrxU88MOOZeP-7" value="Add&amp;nbsp;&lt;br&gt;Available &lt;br&gt;Dashboard Items" style="html=1;align=left;spacingLeft=4;verticalAlign=middle;strokeColor=none;fillColor=none;fontStyle=1" parent="tnz5LCsHIrxU88MOOZeP-6" vertex="1">
          <mxGeometry width="120" height="30" as="geometry" />
        </mxCell>
        <mxCell id="tnz5LCsHIrxU88MOOZeP-8" value="" style="shape=ellipse;" parent="tnz5LCsHIrxU88MOOZeP-7" vertex="1">
          <mxGeometry x="1" width="10" height="16" relative="1" as="geometry">
            <mxPoint x="-25" y="7" as="offset" />
          </mxGeometry>
        </mxCell>
        <mxCell id="tnz5LCsHIrxU88MOOZeP-9" value="" style="line;strokeWidth=1;fillColor=none;align=left;verticalAlign=middle;spacingTop=-1;spacingLeft=3;spacingRight=3;rotatable=0;labelPosition=right;points=[];portConstraint=eastwest;" parent="tnz5LCsHIrxU88MOOZeP-6" vertex="1">
          <mxGeometry y="30" width="120" height="8" as="geometry" />
        </mxCell>
        <mxCell id="tnz5LCsHIrxU88MOOZeP-10" value="." style="html=1;align=center;spacingLeft=4;verticalAlign=top;strokeColor=none;fillColor=none;" parent="tnz5LCsHIrxU88MOOZeP-6" vertex="1">
          <mxGeometry y="38" width="120" height="25" as="geometry" />
        </mxCell>
        <mxCell id="tnz5LCsHIrxU88MOOZeP-11" value="" style="fontStyle=1;align=center;verticalAlign=top;childLayout=stackLayout;horizontal=1;horizontalStack=0;resizeParent=1;resizeParentMax=0;resizeLast=0;marginBottom=0;strokeColor=#82b366;strokeWidth=2;fillColor=none;" parent="U306Htc3g1HH8Dd8mSrG-1" vertex="1">
          <mxGeometry x="240" y="190" width="120" height="63" as="geometry" />
        </mxCell>
        <mxCell id="tnz5LCsHIrxU88MOOZeP-12" value="Change Dashboard &lt;br&gt;widget Order" style="html=1;align=left;spacingLeft=4;verticalAlign=middle;strokeColor=none;fillColor=none;fontStyle=1" parent="tnz5LCsHIrxU88MOOZeP-11" vertex="1">
          <mxGeometry width="120" height="30" as="geometry" />
        </mxCell>
        <mxCell id="tnz5LCsHIrxU88MOOZeP-13" value="" style="shape=ellipse;" parent="tnz5LCsHIrxU88MOOZeP-12" vertex="1">
          <mxGeometry x="1" width="10" height="16" relative="1" as="geometry">
            <mxPoint x="-25" y="7" as="offset" />
          </mxGeometry>
        </mxCell>
        <mxCell id="tnz5LCsHIrxU88MOOZeP-14" value="" style="line;strokeWidth=1;fillColor=none;align=left;verticalAlign=middle;spacingTop=-1;spacingLeft=3;spacingRight=3;rotatable=0;labelPosition=right;points=[];portConstraint=eastwest;" parent="tnz5LCsHIrxU88MOOZeP-11" vertex="1">
          <mxGeometry y="30" width="120" height="8" as="geometry" />
        </mxCell>
        <mxCell id="tnz5LCsHIrxU88MOOZeP-15" value="." style="html=1;align=center;spacingLeft=4;verticalAlign=top;strokeColor=none;fillColor=none;" parent="tnz5LCsHIrxU88MOOZeP-11" vertex="1">
          <mxGeometry y="38" width="120" height="25" as="geometry" />
        </mxCell>
        <mxCell id="tnz5LCsHIrxU88MOOZeP-17" value="" style="fontStyle=1;align=center;verticalAlign=top;childLayout=stackLayout;horizontal=1;horizontalStack=0;resizeParent=1;resizeParentMax=0;resizeLast=0;marginBottom=0;strokeColor=#82b366;strokeWidth=2;fillColor=none;" parent="U306Htc3g1HH8Dd8mSrG-1" vertex="1">
          <mxGeometry x="239" y="330" width="120" height="63" as="geometry" />
        </mxCell>
        <mxCell id="tnz5LCsHIrxU88MOOZeP-18" value="Edit/Customize&lt;br&gt;Dashboard Items" style="html=1;align=left;spacingLeft=4;verticalAlign=middle;strokeColor=none;fillColor=none;fontStyle=1" parent="tnz5LCsHIrxU88MOOZeP-17" vertex="1">
          <mxGeometry width="120" height="30" as="geometry" />
        </mxCell>
        <mxCell id="tnz5LCsHIrxU88MOOZeP-19" value="" style="shape=ellipse;" parent="tnz5LCsHIrxU88MOOZeP-18" vertex="1">
          <mxGeometry x="1" width="10" height="16" relative="1" as="geometry">
            <mxPoint x="-25" y="7" as="offset" />
          </mxGeometry>
        </mxCell>
        <mxCell id="tnz5LCsHIrxU88MOOZeP-20" value="" style="line;strokeWidth=1;fillColor=none;align=left;verticalAlign=middle;spacingTop=-1;spacingLeft=3;spacingRight=3;rotatable=0;labelPosition=right;points=[];portConstraint=eastwest;" parent="tnz5LCsHIrxU88MOOZeP-17" vertex="1">
          <mxGeometry y="30" width="120" height="8" as="geometry" />
        </mxCell>
        <mxCell id="tnz5LCsHIrxU88MOOZeP-21" value="." style="html=1;align=center;spacingLeft=4;verticalAlign=top;strokeColor=none;fillColor=none;" parent="tnz5LCsHIrxU88MOOZeP-17" vertex="1">
          <mxGeometry y="38" width="120" height="25" as="geometry" />
        </mxCell>
      </root>
    </mxGraphModel>
  </diagram>
  <diagram id="7ScY4IrW6RV8RgZtd0sR" name="Page-23">
    <mxGraphModel dx="1711" dy="741" grid="1" gridSize="10" guides="1" tooltips="1" connect="1" arrows="1" fold="1" page="1" pageScale="1" pageWidth="827" pageHeight="1169" math="0" shadow="0">
      <root>
        <mxCell id="7mreGmS57jcJe03FjBQ_-0" />
        <mxCell id="7mreGmS57jcJe03FjBQ_-1" parent="7mreGmS57jcJe03FjBQ_-0" />
      </root>
    </mxGraphModel>
  </diagram>
  <diagram id="SUlloviLEK3GCr1z7qYn" name="Scheduling">
    <mxGraphModel dx="1711" dy="741" grid="1" gridSize="10" guides="1" tooltips="1" connect="1" arrows="1" fold="1" page="1" pageScale="1" pageWidth="827" pageHeight="1169" math="0" shadow="0">
      <root>
        <mxCell id="c33PYlKowwjvGiEupuyr-0" />
        <mxCell id="c33PYlKowwjvGiEupuyr-1" parent="c33PYlKowwjvGiEupuyr-0" />
        <mxCell id="FQO2_twcLr-UXP7qnLfA-0" value="&lt;font style=&quot;font-size: 12px ; font-weight: normal&quot;&gt;&lt;i&gt;&lt;span style=&quot;font-size: 12px&quot;&gt;Diagram: Base System Logical Module -&amp;nbsp;&lt;/span&gt;&lt;span style=&quot;font-size: 12px&quot;&gt;Functionality -&amp;nbsp;&lt;/span&gt;Scheduling&lt;/i&gt;&lt;/font&gt;" style="text;strokeColor=none;fillColor=none;html=1;fontSize=12;fontStyle=1;verticalAlign=middle;align=left;shadow=0;glass=0;comic=0;opacity=30;fontColor=#808080;" parent="c33PYlKowwjvGiEupuyr-1" vertex="1">
          <mxGeometry x="120" y="610" width="520" height="20" as="geometry" />
        </mxCell>
        <UserObject label="" tooltip="" id="FQO2_twcLr-UXP7qnLfA-22">
          <mxCell style="shape=image;html=1;verticalAlign=top;verticalLabelPosition=bottom;labelBackgroundColor=#ffffff;imageAspect=0;aspect=fixed;image=https://cdn1.iconfinder.com/data/icons/hawcons/32/699014-icon-28-information-128.png;shadow=0;dashed=0;fontFamily=Helvetica;fontSize=12;fontColor=#000000;align=center;strokeColor=#000000;fillColor=#505050;dashPattern=1 1;" parent="c33PYlKowwjvGiEupuyr-1" vertex="1">
            <mxGeometry x="330" y="410" width="20" height="20" as="geometry" />
          </mxCell>
        </UserObject>
        <mxCell id="wdtPpUS4_MztBkoxUnBw-32" style="edgeStyle=none;rounded=0;orthogonalLoop=1;jettySize=auto;html=1;entryX=0;entryY=1;entryDx=0;entryDy=0;endArrow=open;endFill=0;" parent="c33PYlKowwjvGiEupuyr-1" source="wdtPpUS4_MztBkoxUnBw-0" target="wdtPpUS4_MztBkoxUnBw-2" edge="1">
          <mxGeometry relative="1" as="geometry" />
        </mxCell>
        <mxCell id="wdtPpUS4_MztBkoxUnBw-33" style="edgeStyle=none;rounded=0;orthogonalLoop=1;jettySize=auto;html=1;entryX=0;entryY=0.75;entryDx=0;entryDy=0;endArrow=open;endFill=0;" parent="c33PYlKowwjvGiEupuyr-1" source="wdtPpUS4_MztBkoxUnBw-0" target="wdtPpUS4_MztBkoxUnBw-7" edge="1">
          <mxGeometry relative="1" as="geometry" />
        </mxCell>
        <mxCell id="wdtPpUS4_MztBkoxUnBw-34" style="edgeStyle=none;rounded=0;orthogonalLoop=1;jettySize=auto;html=1;entryX=0;entryY=0.75;entryDx=0;entryDy=0;endArrow=open;endFill=0;" parent="c33PYlKowwjvGiEupuyr-1" source="wdtPpUS4_MztBkoxUnBw-0" target="wdtPpUS4_MztBkoxUnBw-12" edge="1">
          <mxGeometry relative="1" as="geometry" />
        </mxCell>
        <mxCell id="wdtPpUS4_MztBkoxUnBw-35" style="edgeStyle=none;rounded=0;orthogonalLoop=1;jettySize=auto;html=1;entryX=0;entryY=1;entryDx=0;entryDy=0;endArrow=open;endFill=0;" parent="c33PYlKowwjvGiEupuyr-1" source="wdtPpUS4_MztBkoxUnBw-0" target="wdtPpUS4_MztBkoxUnBw-17" edge="1">
          <mxGeometry relative="1" as="geometry" />
        </mxCell>
        <mxCell id="wdtPpUS4_MztBkoxUnBw-36" style="edgeStyle=none;rounded=0;orthogonalLoop=1;jettySize=auto;html=1;entryX=0;entryY=0.75;entryDx=0;entryDy=0;endArrow=open;endFill=0;" parent="c33PYlKowwjvGiEupuyr-1" source="wdtPpUS4_MztBkoxUnBw-0" target="wdtPpUS4_MztBkoxUnBw-22" edge="1">
          <mxGeometry relative="1" as="geometry" />
        </mxCell>
        <mxCell id="wdtPpUS4_MztBkoxUnBw-0" value="&lt;p style=&quot;line-height: 100%&quot;&gt;&amp;lt;&amp;lt;actor&amp;gt;&amp;gt;&lt;br&gt;&lt;b&gt;Authenticated&lt;br&gt;User&lt;/b&gt;&lt;br&gt;&lt;/p&gt;" style="text;html=1;align=center;verticalAlign=middle;dashed=0;strokeColor=#000000;strokeWidth=2;" parent="c33PYlKowwjvGiEupuyr-1" vertex="1">
          <mxGeometry x="120" y="200" width="80" height="60" as="geometry" />
        </mxCell>
        <mxCell id="wdtPpUS4_MztBkoxUnBw-1" value="" style="fontStyle=1;align=center;verticalAlign=top;childLayout=stackLayout;horizontal=1;horizontalStack=0;resizeParent=1;resizeParentMax=0;resizeLast=0;marginBottom=0;strokeColor=#82b366;strokeWidth=2;fillColor=none;" parent="c33PYlKowwjvGiEupuyr-1" vertex="1">
          <mxGeometry x="240" y="120" width="120" height="63" as="geometry" />
        </mxCell>
        <mxCell id="wdtPpUS4_MztBkoxUnBw-2" value="List SummaryItems &lt;br&gt;of Scheduled Tasks" style="html=1;align=left;spacingLeft=4;verticalAlign=middle;strokeColor=none;fillColor=none;fontStyle=1" parent="wdtPpUS4_MztBkoxUnBw-1" vertex="1">
          <mxGeometry width="120" height="30" as="geometry" />
        </mxCell>
        <mxCell id="wdtPpUS4_MztBkoxUnBw-3" value="" style="shape=ellipse;" parent="wdtPpUS4_MztBkoxUnBw-2" vertex="1">
          <mxGeometry x="1" width="10" height="16" relative="1" as="geometry">
            <mxPoint x="-25" y="7" as="offset" />
          </mxGeometry>
        </mxCell>
        <mxCell id="wdtPpUS4_MztBkoxUnBw-4" value="" style="line;strokeWidth=1;fillColor=none;align=left;verticalAlign=middle;spacingTop=-1;spacingLeft=3;spacingRight=3;rotatable=0;labelPosition=right;points=[];portConstraint=eastwest;" parent="wdtPpUS4_MztBkoxUnBw-1" vertex="1">
          <mxGeometry y="30" width="120" height="8" as="geometry" />
        </mxCell>
        <mxCell id="wdtPpUS4_MztBkoxUnBw-5" value="." style="html=1;align=center;spacingLeft=4;verticalAlign=top;strokeColor=none;fillColor=none;" parent="wdtPpUS4_MztBkoxUnBw-1" vertex="1">
          <mxGeometry y="38" width="120" height="25" as="geometry" />
        </mxCell>
        <mxCell id="wdtPpUS4_MztBkoxUnBw-6" value="" style="fontStyle=1;align=center;verticalAlign=top;childLayout=stackLayout;horizontal=1;horizontalStack=0;resizeParent=1;resizeParentMax=0;resizeLast=0;marginBottom=0;strokeColor=#82b366;strokeWidth=2;fillColor=none;" parent="c33PYlKowwjvGiEupuyr-1" vertex="1">
          <mxGeometry x="240" y="190" width="120" height="63" as="geometry" />
        </mxCell>
        <mxCell id="wdtPpUS4_MztBkoxUnBw-7" value="View a&lt;br&gt;Scheduled Task" style="html=1;align=left;spacingLeft=4;verticalAlign=middle;strokeColor=none;fillColor=none;fontStyle=1" parent="wdtPpUS4_MztBkoxUnBw-6" vertex="1">
          <mxGeometry width="120" height="30" as="geometry" />
        </mxCell>
        <mxCell id="wdtPpUS4_MztBkoxUnBw-8" value="" style="shape=ellipse;" parent="wdtPpUS4_MztBkoxUnBw-7" vertex="1">
          <mxGeometry x="1" width="10" height="16" relative="1" as="geometry">
            <mxPoint x="-25" y="7" as="offset" />
          </mxGeometry>
        </mxCell>
        <mxCell id="wdtPpUS4_MztBkoxUnBw-9" value="" style="line;strokeWidth=1;fillColor=none;align=left;verticalAlign=middle;spacingTop=-1;spacingLeft=3;spacingRight=3;rotatable=0;labelPosition=right;points=[];portConstraint=eastwest;" parent="wdtPpUS4_MztBkoxUnBw-6" vertex="1">
          <mxGeometry y="30" width="120" height="8" as="geometry" />
        </mxCell>
        <mxCell id="wdtPpUS4_MztBkoxUnBw-10" value="." style="html=1;align=center;spacingLeft=4;verticalAlign=top;strokeColor=none;fillColor=none;" parent="wdtPpUS4_MztBkoxUnBw-6" vertex="1">
          <mxGeometry y="38" width="120" height="25" as="geometry" />
        </mxCell>
        <mxCell id="wdtPpUS4_MztBkoxUnBw-11" value="" style="fontStyle=1;align=center;verticalAlign=top;childLayout=stackLayout;horizontal=1;horizontalStack=0;resizeParent=1;resizeParentMax=0;resizeLast=0;marginBottom=0;strokeColor=#82b366;strokeWidth=2;fillColor=none;" parent="c33PYlKowwjvGiEupuyr-1" vertex="1">
          <mxGeometry x="240" y="260" width="120" height="63" as="geometry" />
        </mxCell>
        <mxCell id="wdtPpUS4_MztBkoxUnBw-12" value="Create a&lt;br&gt;Scheduled Task" style="html=1;align=left;spacingLeft=4;verticalAlign=middle;strokeColor=none;fillColor=none;fontStyle=1" parent="wdtPpUS4_MztBkoxUnBw-11" vertex="1">
          <mxGeometry width="120" height="30" as="geometry" />
        </mxCell>
        <mxCell id="wdtPpUS4_MztBkoxUnBw-13" value="" style="shape=ellipse;" parent="wdtPpUS4_MztBkoxUnBw-12" vertex="1">
          <mxGeometry x="1" width="10" height="16" relative="1" as="geometry">
            <mxPoint x="-25" y="7" as="offset" />
          </mxGeometry>
        </mxCell>
        <mxCell id="wdtPpUS4_MztBkoxUnBw-14" value="" style="line;strokeWidth=1;fillColor=none;align=left;verticalAlign=middle;spacingTop=-1;spacingLeft=3;spacingRight=3;rotatable=0;labelPosition=right;points=[];portConstraint=eastwest;" parent="wdtPpUS4_MztBkoxUnBw-11" vertex="1">
          <mxGeometry y="30" width="120" height="8" as="geometry" />
        </mxCell>
        <mxCell id="wdtPpUS4_MztBkoxUnBw-15" value="." style="html=1;align=center;spacingLeft=4;verticalAlign=top;strokeColor=none;fillColor=none;" parent="wdtPpUS4_MztBkoxUnBw-11" vertex="1">
          <mxGeometry y="38" width="120" height="25" as="geometry" />
        </mxCell>
        <mxCell id="wdtPpUS4_MztBkoxUnBw-16" value="" style="fontStyle=1;align=center;verticalAlign=top;childLayout=stackLayout;horizontal=1;horizontalStack=0;resizeParent=1;resizeParentMax=0;resizeLast=0;marginBottom=0;strokeColor=#82b366;strokeWidth=2;fillColor=none;" parent="c33PYlKowwjvGiEupuyr-1" vertex="1">
          <mxGeometry x="240" y="330" width="120" height="63" as="geometry" />
        </mxCell>
        <mxCell id="wdtPpUS4_MztBkoxUnBw-17" value="Update a&lt;br&gt;Scheduled Task" style="html=1;align=left;spacingLeft=4;verticalAlign=middle;strokeColor=none;fillColor=none;fontStyle=1" parent="wdtPpUS4_MztBkoxUnBw-16" vertex="1">
          <mxGeometry width="120" height="30" as="geometry" />
        </mxCell>
        <mxCell id="wdtPpUS4_MztBkoxUnBw-18" value="" style="shape=ellipse;" parent="wdtPpUS4_MztBkoxUnBw-17" vertex="1">
          <mxGeometry x="1" width="10" height="16" relative="1" as="geometry">
            <mxPoint x="-25" y="7" as="offset" />
          </mxGeometry>
        </mxCell>
        <mxCell id="wdtPpUS4_MztBkoxUnBw-19" value="" style="line;strokeWidth=1;fillColor=none;align=left;verticalAlign=middle;spacingTop=-1;spacingLeft=3;spacingRight=3;rotatable=0;labelPosition=right;points=[];portConstraint=eastwest;" parent="wdtPpUS4_MztBkoxUnBw-16" vertex="1">
          <mxGeometry y="30" width="120" height="8" as="geometry" />
        </mxCell>
        <mxCell id="wdtPpUS4_MztBkoxUnBw-20" value="." style="html=1;align=center;spacingLeft=4;verticalAlign=top;strokeColor=none;fillColor=none;" parent="wdtPpUS4_MztBkoxUnBw-16" vertex="1">
          <mxGeometry y="38" width="120" height="25" as="geometry" />
        </mxCell>
        <mxCell id="wdtPpUS4_MztBkoxUnBw-21" value="" style="fontStyle=1;align=center;verticalAlign=top;childLayout=stackLayout;horizontal=1;horizontalStack=0;resizeParent=1;resizeParentMax=0;resizeLast=0;marginBottom=0;strokeColor=#82b366;strokeWidth=2;fillColor=none;" parent="c33PYlKowwjvGiEupuyr-1" vertex="1">
          <mxGeometry x="240" y="400" width="120" height="63" as="geometry" />
        </mxCell>
        <mxCell id="wdtPpUS4_MztBkoxUnBw-22" value="Change State of a&lt;br&gt;Scheduled Task" style="html=1;align=left;spacingLeft=4;verticalAlign=middle;strokeColor=none;fillColor=none;fontStyle=1" parent="wdtPpUS4_MztBkoxUnBw-21" vertex="1">
          <mxGeometry width="120" height="30" as="geometry" />
        </mxCell>
        <mxCell id="wdtPpUS4_MztBkoxUnBw-23" value="" style="shape=ellipse;" parent="wdtPpUS4_MztBkoxUnBw-22" vertex="1">
          <mxGeometry x="1" width="10" height="16" relative="1" as="geometry">
            <mxPoint x="-25" y="7" as="offset" />
          </mxGeometry>
        </mxCell>
        <mxCell id="wdtPpUS4_MztBkoxUnBw-24" value="" style="line;strokeWidth=1;fillColor=none;align=left;verticalAlign=middle;spacingTop=-1;spacingLeft=3;spacingRight=3;rotatable=0;labelPosition=right;points=[];portConstraint=eastwest;" parent="wdtPpUS4_MztBkoxUnBw-21" vertex="1">
          <mxGeometry y="30" width="120" height="8" as="geometry" />
        </mxCell>
        <mxCell id="wdtPpUS4_MztBkoxUnBw-25" value="Pause/Continue/Delete" style="html=1;align=center;spacingLeft=4;verticalAlign=top;strokeColor=none;fillColor=none;" parent="wdtPpUS4_MztBkoxUnBw-21" vertex="1">
          <mxGeometry y="38" width="120" height="25" as="geometry" />
        </mxCell>
        <mxCell id="wdtPpUS4_MztBkoxUnBw-47" style="edgeStyle=none;rounded=0;orthogonalLoop=1;jettySize=auto;html=1;entryX=0;entryY=0.75;entryDx=0;entryDy=0;endArrow=open;endFill=0;" parent="c33PYlKowwjvGiEupuyr-1" source="wdtPpUS4_MztBkoxUnBw-31" target="wdtPpUS4_MztBkoxUnBw-43" edge="1">
          <mxGeometry relative="1" as="geometry" />
        </mxCell>
        <mxCell id="wdtPpUS4_MztBkoxUnBw-31" value="&lt;p style=&quot;line-height: 100%&quot;&gt;&amp;lt;&amp;lt;actor&amp;gt;&amp;gt;&lt;br&gt;&lt;b&gt;Daemon&lt;/b&gt;&lt;/p&gt;" style="text;html=1;align=center;verticalAlign=middle;dashed=0;strokeColor=#000000;strokeWidth=2;" parent="c33PYlKowwjvGiEupuyr-1" vertex="1">
          <mxGeometry x="120" y="527" width="80" height="60" as="geometry" />
        </mxCell>
        <mxCell id="wdtPpUS4_MztBkoxUnBw-42" value="" style="fontStyle=1;align=center;verticalAlign=top;childLayout=stackLayout;horizontal=1;horizontalStack=0;resizeParent=1;resizeParentMax=0;resizeLast=0;marginBottom=0;strokeColor=#82b366;strokeWidth=2;fillColor=none;" parent="c33PYlKowwjvGiEupuyr-1" vertex="1">
          <mxGeometry x="240" y="537" width="120" height="63" as="geometry" />
        </mxCell>
        <mxCell id="wdtPpUS4_MztBkoxUnBw-43" value="Run Scheduled&lt;br&gt;Tasks" style="html=1;align=left;spacingLeft=4;verticalAlign=middle;strokeColor=none;fillColor=none;fontStyle=1" parent="wdtPpUS4_MztBkoxUnBw-42" vertex="1">
          <mxGeometry width="120" height="30" as="geometry" />
        </mxCell>
        <mxCell id="wdtPpUS4_MztBkoxUnBw-44" value="" style="shape=ellipse;" parent="wdtPpUS4_MztBkoxUnBw-43" vertex="1">
          <mxGeometry x="1" width="10" height="16" relative="1" as="geometry">
            <mxPoint x="-25" y="7" as="offset" />
          </mxGeometry>
        </mxCell>
        <mxCell id="wdtPpUS4_MztBkoxUnBw-45" value="" style="line;strokeWidth=1;fillColor=none;align=left;verticalAlign=middle;spacingTop=-1;spacingLeft=3;spacingRight=3;rotatable=0;labelPosition=right;points=[];portConstraint=eastwest;" parent="wdtPpUS4_MztBkoxUnBw-42" vertex="1">
          <mxGeometry y="30" width="120" height="8" as="geometry" />
        </mxCell>
        <mxCell id="wdtPpUS4_MztBkoxUnBw-46" value="Pause/Continue/Delete" style="html=1;align=center;spacingLeft=4;verticalAlign=top;strokeColor=none;fillColor=none;" parent="wdtPpUS4_MztBkoxUnBw-42" vertex="1">
          <mxGeometry y="38" width="120" height="25" as="geometry" />
        </mxCell>
        <mxCell id="wdtPpUS4_MztBkoxUnBw-54" style="edgeStyle=none;rounded=0;orthogonalLoop=1;jettySize=auto;html=1;entryX=0;entryY=0.75;entryDx=0;entryDy=0;endArrow=open;endFill=0;" parent="c33PYlKowwjvGiEupuyr-1" source="wdtPpUS4_MztBkoxUnBw-48" target="wdtPpUS4_MztBkoxUnBw-50" edge="1">
          <mxGeometry relative="1" as="geometry" />
        </mxCell>
        <mxCell id="wdtPpUS4_MztBkoxUnBw-48" value="&lt;p style=&quot;line-height: 100%&quot;&gt;&amp;lt;&amp;lt;actor&amp;gt;&amp;gt;&lt;br&gt;&lt;b&gt;Sys&lt;br&gt;Admin&lt;/b&gt;&lt;/p&gt;" style="text;html=1;align=center;verticalAlign=middle;dashed=0;strokeColor=#000000;strokeWidth=2;" parent="c33PYlKowwjvGiEupuyr-1" vertex="1">
          <mxGeometry x="120" y="463" width="80" height="60" as="geometry" />
        </mxCell>
        <mxCell id="wdtPpUS4_MztBkoxUnBw-49" value="" style="fontStyle=1;align=center;verticalAlign=top;childLayout=stackLayout;horizontal=1;horizontalStack=0;resizeParent=1;resizeParentMax=0;resizeLast=0;marginBottom=0;strokeColor=#82b366;strokeWidth=2;fillColor=none;" parent="c33PYlKowwjvGiEupuyr-1" vertex="1">
          <mxGeometry x="240" y="470" width="120" height="63" as="geometry" />
        </mxCell>
        <mxCell id="wdtPpUS4_MztBkoxUnBw-50" value="Change State of&lt;br&gt;Task Engine" style="html=1;align=left;spacingLeft=4;verticalAlign=middle;strokeColor=none;fillColor=none;fontStyle=1" parent="wdtPpUS4_MztBkoxUnBw-49" vertex="1">
          <mxGeometry width="120" height="30" as="geometry" />
        </mxCell>
        <mxCell id="wdtPpUS4_MztBkoxUnBw-51" value="" style="shape=ellipse;" parent="wdtPpUS4_MztBkoxUnBw-50" vertex="1">
          <mxGeometry x="1" width="10" height="16" relative="1" as="geometry">
            <mxPoint x="-25" y="7" as="offset" />
          </mxGeometry>
        </mxCell>
        <mxCell id="wdtPpUS4_MztBkoxUnBw-52" value="" style="line;strokeWidth=1;fillColor=none;align=left;verticalAlign=middle;spacingTop=-1;spacingLeft=3;spacingRight=3;rotatable=0;labelPosition=right;points=[];portConstraint=eastwest;" parent="wdtPpUS4_MztBkoxUnBw-49" vertex="1">
          <mxGeometry y="30" width="120" height="8" as="geometry" />
        </mxCell>
        <mxCell id="wdtPpUS4_MztBkoxUnBw-53" value="Pause/Continue" style="html=1;align=center;spacingLeft=4;verticalAlign=top;strokeColor=none;fillColor=none;" parent="wdtPpUS4_MztBkoxUnBw-49" vertex="1">
          <mxGeometry y="38" width="120" height="25" as="geometry" />
        </mxCell>
        <mxCell id="m8XtCI1CGljEh2FDD2Vw-0" value="Depending on&amp;nbsp;&lt;br&gt;Permissions, Users can see their own tasks, or those of others (eg: Sys Admins)." style="shape=note;size=20;whiteSpace=wrap;html=1;strokeWidth=1;fillColor=none;verticalAlign=top;" parent="c33PYlKowwjvGiEupuyr-1" vertex="1">
          <mxGeometry x="440" y="120" width="100" height="100" as="geometry" />
        </mxCell>
        <mxCell id="m8XtCI1CGljEh2FDD2Vw-1" value="Depending on&amp;nbsp;&lt;br&gt;Permissions, most Users are limited to creating only a small number of short runningTasks." style="shape=note;size=20;whiteSpace=wrap;html=1;strokeWidth=1;fillColor=none;verticalAlign=top;" parent="c33PYlKowwjvGiEupuyr-1" vertex="1">
          <mxGeometry x="440" y="230" width="100" height="110" as="geometry" />
        </mxCell>
        <mxCell id="m8XtCI1CGljEh2FDD2Vw-2" value="Pausing the Engine&lt;br&gt;is a step in shutting down the system." style="shape=note;size=20;whiteSpace=wrap;html=1;strokeWidth=1;fillColor=none;verticalAlign=top;" parent="c33PYlKowwjvGiEupuyr-1" vertex="1">
          <mxGeometry x="440" y="490" width="100" height="110" as="geometry" />
        </mxCell>
      </root>
    </mxGraphModel>
  </diagram>
  <diagram id="UU4A3Z9uo3Rj8lSjhz4r" name="Workflows">
    <mxGraphModel dx="1711" dy="741" grid="1" gridSize="10" guides="1" tooltips="1" connect="1" arrows="1" fold="1" page="1" pageScale="1" pageWidth="827" pageHeight="1169" math="0" shadow="0">
      <root>
        <mxCell id="LgvOT38yp8BPmumaJpFH-0" />
        <mxCell id="LgvOT38yp8BPmumaJpFH-1" parent="LgvOT38yp8BPmumaJpFH-0" />
        <mxCell id="qKL6eza0Rr9l6BfAeis2-0" value="&lt;font style=&quot;font-size: 12px ; font-weight: normal&quot;&gt;&lt;i&gt;&lt;span style=&quot;font-size: 12px&quot;&gt;Diagram: Base System Logical Module -&amp;nbsp;&lt;/span&gt;&lt;span style=&quot;font-size: 12px&quot;&gt;Functionality -&amp;nbsp;&lt;/span&gt;Workflow Management&lt;/i&gt;&lt;/font&gt;" style="text;strokeColor=none;fillColor=none;html=1;fontSize=12;fontStyle=1;verticalAlign=middle;align=left;shadow=0;glass=0;comic=0;opacity=30;fontColor=#808080;" parent="LgvOT38yp8BPmumaJpFH-1" vertex="1">
          <mxGeometry x="119" y="440" width="520" height="20" as="geometry" />
        </mxCell>
        <mxCell id="3cwJru8-qFUgOf6ZfqIE-56" style="edgeStyle=none;rounded=0;orthogonalLoop=1;jettySize=auto;html=1;entryX=0.008;entryY=0.251;entryDx=0;entryDy=0;entryPerimeter=0;endArrow=open;endFill=0;" parent="LgvOT38yp8BPmumaJpFH-1" source="3cwJru8-qFUgOf6ZfqIE-0" target="3cwJru8-qFUgOf6ZfqIE-14" edge="1">
          <mxGeometry relative="1" as="geometry" />
        </mxCell>
        <mxCell id="3cwJru8-qFUgOf6ZfqIE-57" style="edgeStyle=none;rounded=0;orthogonalLoop=1;jettySize=auto;html=1;entryX=0;entryY=0.75;entryDx=0;entryDy=0;endArrow=open;endFill=0;" parent="LgvOT38yp8BPmumaJpFH-1" source="3cwJru8-qFUgOf6ZfqIE-0" target="3cwJru8-qFUgOf6ZfqIE-17" edge="1">
          <mxGeometry relative="1" as="geometry" />
        </mxCell>
        <mxCell id="3cwJru8-qFUgOf6ZfqIE-58" style="edgeStyle=none;rounded=0;orthogonalLoop=1;jettySize=auto;html=1;endArrow=open;endFill=0;" parent="LgvOT38yp8BPmumaJpFH-1" source="3cwJru8-qFUgOf6ZfqIE-0" edge="1">
          <mxGeometry relative="1" as="geometry">
            <mxPoint x="240" y="250" as="targetPoint" />
          </mxGeometry>
        </mxCell>
        <mxCell id="3cwJru8-qFUgOf6ZfqIE-0" value="&lt;p style=&quot;line-height: 100%&quot;&gt;&amp;lt;&amp;lt;actor&amp;gt;&amp;gt;&lt;br&gt;&lt;b&gt;Sys Admin&lt;/b&gt;&lt;/p&gt;" style="text;html=1;align=center;verticalAlign=middle;dashed=0;strokeColor=#000000;strokeWidth=2;" parent="LgvOT38yp8BPmumaJpFH-1" vertex="1">
          <mxGeometry x="120" y="151.5" width="80" height="60" as="geometry" />
        </mxCell>
        <mxCell id="3cwJru8-qFUgOf6ZfqIE-1" value="" style="fontStyle=1;align=center;verticalAlign=top;childLayout=stackLayout;horizontal=1;horizontalStack=0;resizeParent=1;resizeParentMax=0;resizeLast=0;marginBottom=0;strokeColor=#82b366;strokeWidth=2;fillColor=none;" parent="LgvOT38yp8BPmumaJpFH-1" vertex="1">
          <mxGeometry x="239" y="220" width="120" height="63" as="geometry" />
        </mxCell>
        <mxCell id="3cwJru8-qFUgOf6ZfqIE-2" value="List SummaryItems &lt;br&gt;of Worflows Definitions" style="html=1;align=left;spacingLeft=4;verticalAlign=middle;strokeColor=none;fillColor=none;fontStyle=1" parent="3cwJru8-qFUgOf6ZfqIE-1" vertex="1">
          <mxGeometry width="120" height="30" as="geometry" />
        </mxCell>
        <mxCell id="3cwJru8-qFUgOf6ZfqIE-3" value="" style="shape=ellipse;" parent="3cwJru8-qFUgOf6ZfqIE-2" vertex="1">
          <mxGeometry x="1" width="10" height="16" relative="1" as="geometry">
            <mxPoint x="-25" y="7" as="offset" />
          </mxGeometry>
        </mxCell>
        <mxCell id="3cwJru8-qFUgOf6ZfqIE-4" value="" style="line;strokeWidth=1;fillColor=none;align=left;verticalAlign=middle;spacingTop=-1;spacingLeft=3;spacingRight=3;rotatable=0;labelPosition=right;points=[];portConstraint=eastwest;" parent="3cwJru8-qFUgOf6ZfqIE-1" vertex="1">
          <mxGeometry y="30" width="120" height="8" as="geometry" />
        </mxCell>
        <mxCell id="3cwJru8-qFUgOf6ZfqIE-5" value="." style="html=1;align=center;spacingLeft=4;verticalAlign=top;strokeColor=none;fillColor=none;" parent="3cwJru8-qFUgOf6ZfqIE-1" vertex="1">
          <mxGeometry y="38" width="120" height="25" as="geometry" />
        </mxCell>
        <mxCell id="3cwJru8-qFUgOf6ZfqIE-6" value="" style="fontStyle=1;align=center;verticalAlign=top;childLayout=stackLayout;horizontal=1;horizontalStack=0;resizeParent=1;resizeParentMax=0;resizeLast=0;marginBottom=0;strokeColor=#82b366;strokeWidth=2;fillColor=none;" parent="LgvOT38yp8BPmumaJpFH-1" vertex="1">
          <mxGeometry x="240" y="290" width="120" height="63" as="geometry" />
        </mxCell>
        <mxCell id="3cwJru8-qFUgOf6ZfqIE-7" value="View a&amp;nbsp;&lt;br&gt;Worflow Definition" style="html=1;align=left;spacingLeft=4;verticalAlign=middle;strokeColor=none;fillColor=none;fontStyle=1" parent="3cwJru8-qFUgOf6ZfqIE-6" vertex="1">
          <mxGeometry width="120" height="30" as="geometry" />
        </mxCell>
        <mxCell id="3cwJru8-qFUgOf6ZfqIE-8" value="" style="shape=ellipse;" parent="3cwJru8-qFUgOf6ZfqIE-7" vertex="1">
          <mxGeometry x="1" width="10" height="16" relative="1" as="geometry">
            <mxPoint x="-25" y="7" as="offset" />
          </mxGeometry>
        </mxCell>
        <mxCell id="3cwJru8-qFUgOf6ZfqIE-9" value="" style="line;strokeWidth=1;fillColor=none;align=left;verticalAlign=middle;spacingTop=-1;spacingLeft=3;spacingRight=3;rotatable=0;labelPosition=right;points=[];portConstraint=eastwest;" parent="3cwJru8-qFUgOf6ZfqIE-6" vertex="1">
          <mxGeometry y="30" width="120" height="8" as="geometry" />
        </mxCell>
        <mxCell id="3cwJru8-qFUgOf6ZfqIE-10" value="." style="html=1;align=center;spacingLeft=4;verticalAlign=top;strokeColor=none;fillColor=none;" parent="3cwJru8-qFUgOf6ZfqIE-6" vertex="1">
          <mxGeometry y="38" width="120" height="25" as="geometry" />
        </mxCell>
        <mxCell id="3cwJru8-qFUgOf6ZfqIE-11" value="" style="fontStyle=1;align=center;verticalAlign=top;childLayout=stackLayout;horizontal=1;horizontalStack=0;resizeParent=1;resizeParentMax=0;resizeLast=0;marginBottom=0;strokeColor=#82b366;strokeWidth=2;fillColor=none;" parent="LgvOT38yp8BPmumaJpFH-1" vertex="1">
          <mxGeometry x="239" y="80" width="120" height="63" as="geometry" />
        </mxCell>
        <mxCell id="3cwJru8-qFUgOf6ZfqIE-12" value="Create a&amp;nbsp;&lt;br&gt;Worflow Definition" style="html=1;align=left;spacingLeft=4;verticalAlign=middle;strokeColor=none;fillColor=none;fontStyle=1" parent="3cwJru8-qFUgOf6ZfqIE-11" vertex="1">
          <mxGeometry width="120" height="30" as="geometry" />
        </mxCell>
        <mxCell id="3cwJru8-qFUgOf6ZfqIE-13" value="" style="shape=ellipse;" parent="3cwJru8-qFUgOf6ZfqIE-12" vertex="1">
          <mxGeometry x="1" width="10" height="16" relative="1" as="geometry">
            <mxPoint x="-25" y="7" as="offset" />
          </mxGeometry>
        </mxCell>
        <mxCell id="3cwJru8-qFUgOf6ZfqIE-14" value="" style="line;strokeWidth=1;fillColor=none;align=left;verticalAlign=middle;spacingTop=-1;spacingLeft=3;spacingRight=3;rotatable=0;labelPosition=right;points=[];portConstraint=eastwest;" parent="3cwJru8-qFUgOf6ZfqIE-11" vertex="1">
          <mxGeometry y="30" width="120" height="8" as="geometry" />
        </mxCell>
        <mxCell id="3cwJru8-qFUgOf6ZfqIE-15" value="." style="html=1;align=center;spacingLeft=4;verticalAlign=top;strokeColor=none;fillColor=none;" parent="3cwJru8-qFUgOf6ZfqIE-11" vertex="1">
          <mxGeometry y="38" width="120" height="25" as="geometry" />
        </mxCell>
        <mxCell id="3cwJru8-qFUgOf6ZfqIE-16" value="" style="fontStyle=1;align=center;verticalAlign=top;childLayout=stackLayout;horizontal=1;horizontalStack=0;resizeParent=1;resizeParentMax=0;resizeLast=0;marginBottom=0;strokeColor=#82b366;strokeWidth=2;fillColor=none;" parent="LgvOT38yp8BPmumaJpFH-1" vertex="1">
          <mxGeometry x="239" y="150" width="120" height="63" as="geometry" />
        </mxCell>
        <mxCell id="3cwJru8-qFUgOf6ZfqIE-17" value="Change State of&lt;br&gt;&amp;nbsp;a&amp;nbsp;Worflow Definition" style="html=1;align=left;spacingLeft=4;verticalAlign=middle;strokeColor=none;fillColor=none;fontStyle=1" parent="3cwJru8-qFUgOf6ZfqIE-16" vertex="1">
          <mxGeometry width="120" height="30" as="geometry" />
        </mxCell>
        <mxCell id="3cwJru8-qFUgOf6ZfqIE-18" value="" style="shape=ellipse;" parent="3cwJru8-qFUgOf6ZfqIE-17" vertex="1">
          <mxGeometry x="1" width="10" height="16" relative="1" as="geometry">
            <mxPoint x="-25" y="7" as="offset" />
          </mxGeometry>
        </mxCell>
        <mxCell id="3cwJru8-qFUgOf6ZfqIE-19" value="" style="line;strokeWidth=1;fillColor=none;align=left;verticalAlign=middle;spacingTop=-1;spacingLeft=3;spacingRight=3;rotatable=0;labelPosition=right;points=[];portConstraint=eastwest;" parent="3cwJru8-qFUgOf6ZfqIE-16" vertex="1">
          <mxGeometry y="30" width="120" height="8" as="geometry" />
        </mxCell>
        <mxCell id="3cwJru8-qFUgOf6ZfqIE-20" value="." style="html=1;align=center;spacingLeft=4;verticalAlign=top;strokeColor=none;fillColor=none;" parent="3cwJru8-qFUgOf6ZfqIE-16" vertex="1">
          <mxGeometry y="38" width="120" height="25" as="geometry" />
        </mxCell>
        <mxCell id="3cwJru8-qFUgOf6ZfqIE-21" value="" style="fontStyle=1;align=center;verticalAlign=top;childLayout=stackLayout;horizontal=1;horizontalStack=0;resizeParent=1;resizeParentMax=0;resizeLast=0;marginBottom=0;strokeColor=#82b366;strokeWidth=2;fillColor=none;" parent="LgvOT38yp8BPmumaJpFH-1" vertex="1">
          <mxGeometry x="519" y="152" width="120" height="63" as="geometry" />
        </mxCell>
        <mxCell id="3cwJru8-qFUgOf6ZfqIE-22" value="Create&amp;nbsp;a&lt;br&gt;&amp;nbsp;Worflow Instance" style="html=1;align=left;spacingLeft=4;verticalAlign=middle;strokeColor=none;fillColor=none;fontStyle=1" parent="3cwJru8-qFUgOf6ZfqIE-21" vertex="1">
          <mxGeometry width="120" height="30" as="geometry" />
        </mxCell>
        <mxCell id="3cwJru8-qFUgOf6ZfqIE-23" value="" style="shape=ellipse;" parent="3cwJru8-qFUgOf6ZfqIE-22" vertex="1">
          <mxGeometry x="1" width="10" height="16" relative="1" as="geometry">
            <mxPoint x="-25" y="7" as="offset" />
          </mxGeometry>
        </mxCell>
        <mxCell id="3cwJru8-qFUgOf6ZfqIE-24" value="" style="line;strokeWidth=1;fillColor=none;align=left;verticalAlign=middle;spacingTop=-1;spacingLeft=3;spacingRight=3;rotatable=0;labelPosition=right;points=[];portConstraint=eastwest;" parent="3cwJru8-qFUgOf6ZfqIE-21" vertex="1">
          <mxGeometry y="30" width="120" height="8" as="geometry" />
        </mxCell>
        <mxCell id="3cwJru8-qFUgOf6ZfqIE-25" value="." style="html=1;align=center;spacingLeft=4;verticalAlign=top;strokeColor=none;fillColor=none;" parent="3cwJru8-qFUgOf6ZfqIE-21" vertex="1">
          <mxGeometry y="38" width="120" height="25" as="geometry" />
        </mxCell>
        <mxCell id="3cwJru8-qFUgOf6ZfqIE-26" value="" style="fontStyle=1;align=center;verticalAlign=top;childLayout=stackLayout;horizontal=1;horizontalStack=0;resizeParent=1;resizeParentMax=0;resizeLast=0;marginBottom=0;strokeColor=#82b366;strokeWidth=2;fillColor=none;" parent="LgvOT38yp8BPmumaJpFH-1" vertex="1">
          <mxGeometry x="519" y="82" width="120" height="63" as="geometry" />
        </mxCell>
        <mxCell id="3cwJru8-qFUgOf6ZfqIE-27" value="List SummarItems&lt;br&gt;of&amp;nbsp;&amp;nbsp;&lt;br&gt;Worflow Instances" style="html=1;align=left;spacingLeft=4;verticalAlign=middle;strokeColor=none;fillColor=none;fontStyle=1" parent="3cwJru8-qFUgOf6ZfqIE-26" vertex="1">
          <mxGeometry width="120" height="30" as="geometry" />
        </mxCell>
        <mxCell id="3cwJru8-qFUgOf6ZfqIE-28" value="" style="shape=ellipse;" parent="3cwJru8-qFUgOf6ZfqIE-27" vertex="1">
          <mxGeometry x="1" width="10" height="16" relative="1" as="geometry">
            <mxPoint x="-25" y="7" as="offset" />
          </mxGeometry>
        </mxCell>
        <mxCell id="3cwJru8-qFUgOf6ZfqIE-29" value="" style="line;strokeWidth=1;fillColor=none;align=left;verticalAlign=middle;spacingTop=-1;spacingLeft=3;spacingRight=3;rotatable=0;labelPosition=right;points=[];portConstraint=eastwest;" parent="3cwJru8-qFUgOf6ZfqIE-26" vertex="1">
          <mxGeometry y="30" width="120" height="8" as="geometry" />
        </mxCell>
        <mxCell id="3cwJru8-qFUgOf6ZfqIE-30" value="." style="html=1;align=center;spacingLeft=4;verticalAlign=top;strokeColor=none;fillColor=none;" parent="3cwJru8-qFUgOf6ZfqIE-26" vertex="1">
          <mxGeometry y="38" width="120" height="25" as="geometry" />
        </mxCell>
        <mxCell id="3cwJru8-qFUgOf6ZfqIE-31" value="" style="fontStyle=1;align=center;verticalAlign=top;childLayout=stackLayout;horizontal=1;horizontalStack=0;resizeParent=1;resizeParentMax=0;resizeLast=0;marginBottom=0;strokeColor=#82b366;strokeWidth=2;fillColor=none;" parent="LgvOT38yp8BPmumaJpFH-1" vertex="1">
          <mxGeometry x="519" y="222" width="120" height="63" as="geometry" />
        </mxCell>
        <mxCell id="3cwJru8-qFUgOf6ZfqIE-32" value="View a&lt;br&gt;&amp;nbsp;Worflow Instance" style="html=1;align=left;spacingLeft=4;verticalAlign=middle;strokeColor=none;fillColor=none;fontStyle=1" parent="3cwJru8-qFUgOf6ZfqIE-31" vertex="1">
          <mxGeometry width="120" height="30" as="geometry" />
        </mxCell>
        <mxCell id="3cwJru8-qFUgOf6ZfqIE-33" value="" style="shape=ellipse;" parent="3cwJru8-qFUgOf6ZfqIE-32" vertex="1">
          <mxGeometry x="1" width="10" height="16" relative="1" as="geometry">
            <mxPoint x="-25" y="7" as="offset" />
          </mxGeometry>
        </mxCell>
        <mxCell id="3cwJru8-qFUgOf6ZfqIE-34" value="" style="line;strokeWidth=1;fillColor=none;align=left;verticalAlign=middle;spacingTop=-1;spacingLeft=3;spacingRight=3;rotatable=0;labelPosition=right;points=[];portConstraint=eastwest;" parent="3cwJru8-qFUgOf6ZfqIE-31" vertex="1">
          <mxGeometry y="30" width="120" height="8" as="geometry" />
        </mxCell>
        <mxCell id="3cwJru8-qFUgOf6ZfqIE-35" value="." style="html=1;align=center;spacingLeft=4;verticalAlign=top;strokeColor=none;fillColor=none;" parent="3cwJru8-qFUgOf6ZfqIE-31" vertex="1">
          <mxGeometry y="38" width="120" height="25" as="geometry" />
        </mxCell>
        <mxCell id="3cwJru8-qFUgOf6ZfqIE-36" value="" style="fontStyle=1;align=center;verticalAlign=top;childLayout=stackLayout;horizontal=1;horizontalStack=0;resizeParent=1;resizeParentMax=0;resizeLast=0;marginBottom=0;strokeColor=#82b366;strokeWidth=2;fillColor=none;" parent="LgvOT38yp8BPmumaJpFH-1" vertex="1">
          <mxGeometry x="519" y="292" width="120" height="63" as="geometry" />
        </mxCell>
        <mxCell id="3cwJru8-qFUgOf6ZfqIE-37" value="Execute&amp;nbsp;&lt;br&gt;&amp;nbsp;Worflow Instance" style="html=1;align=left;spacingLeft=4;verticalAlign=middle;strokeColor=none;fillColor=none;fontStyle=1" parent="3cwJru8-qFUgOf6ZfqIE-36" vertex="1">
          <mxGeometry width="120" height="30" as="geometry" />
        </mxCell>
        <mxCell id="3cwJru8-qFUgOf6ZfqIE-38" value="" style="shape=ellipse;" parent="3cwJru8-qFUgOf6ZfqIE-37" vertex="1">
          <mxGeometry x="1" width="10" height="16" relative="1" as="geometry">
            <mxPoint x="-25" y="7" as="offset" />
          </mxGeometry>
        </mxCell>
        <mxCell id="3cwJru8-qFUgOf6ZfqIE-39" value="" style="line;strokeWidth=1;fillColor=none;align=left;verticalAlign=middle;spacingTop=-1;spacingLeft=3;spacingRight=3;rotatable=0;labelPosition=right;points=[];portConstraint=eastwest;" parent="3cwJru8-qFUgOf6ZfqIE-36" vertex="1">
          <mxGeometry y="30" width="120" height="8" as="geometry" />
        </mxCell>
        <mxCell id="3cwJru8-qFUgOf6ZfqIE-40" value="." style="html=1;align=center;spacingLeft=4;verticalAlign=top;strokeColor=none;fillColor=none;" parent="3cwJru8-qFUgOf6ZfqIE-36" vertex="1">
          <mxGeometry y="38" width="120" height="25" as="geometry" />
        </mxCell>
        <mxCell id="3cwJru8-qFUgOf6ZfqIE-42" style="edgeStyle=none;rounded=0;orthogonalLoop=1;jettySize=auto;html=1;entryX=0.985;entryY=0.479;entryDx=0;entryDy=0;endArrow=open;endFill=0;entryPerimeter=0;" parent="LgvOT38yp8BPmumaJpFH-1" source="3cwJru8-qFUgOf6ZfqIE-41" target="3cwJru8-qFUgOf6ZfqIE-4" edge="1">
          <mxGeometry relative="1" as="geometry" />
        </mxCell>
        <mxCell id="3cwJru8-qFUgOf6ZfqIE-43" style="edgeStyle=none;rounded=0;orthogonalLoop=1;jettySize=auto;html=1;entryX=1;entryY=0.75;entryDx=0;entryDy=0;endArrow=open;endFill=0;" parent="LgvOT38yp8BPmumaJpFH-1" source="3cwJru8-qFUgOf6ZfqIE-41" target="3cwJru8-qFUgOf6ZfqIE-7" edge="1">
          <mxGeometry relative="1" as="geometry" />
        </mxCell>
        <mxCell id="3cwJru8-qFUgOf6ZfqIE-44" style="edgeStyle=none;rounded=0;orthogonalLoop=1;jettySize=auto;html=1;entryX=0;entryY=0.5;entryDx=0;entryDy=0;endArrow=open;endFill=0;" parent="LgvOT38yp8BPmumaJpFH-1" source="3cwJru8-qFUgOf6ZfqIE-41" target="3cwJru8-qFUgOf6ZfqIE-26" edge="1">
          <mxGeometry relative="1" as="geometry" />
        </mxCell>
        <mxCell id="3cwJru8-qFUgOf6ZfqIE-45" style="edgeStyle=none;rounded=0;orthogonalLoop=1;jettySize=auto;html=1;entryX=0;entryY=0.251;entryDx=0;entryDy=0;entryPerimeter=0;endArrow=open;endFill=0;" parent="LgvOT38yp8BPmumaJpFH-1" source="3cwJru8-qFUgOf6ZfqIE-41" target="3cwJru8-qFUgOf6ZfqIE-24" edge="1">
          <mxGeometry relative="1" as="geometry" />
        </mxCell>
        <mxCell id="3cwJru8-qFUgOf6ZfqIE-46" style="edgeStyle=none;rounded=0;orthogonalLoop=1;jettySize=auto;html=1;entryX=0;entryY=1;entryDx=0;entryDy=0;endArrow=open;endFill=0;" parent="LgvOT38yp8BPmumaJpFH-1" source="3cwJru8-qFUgOf6ZfqIE-41" target="3cwJru8-qFUgOf6ZfqIE-32" edge="1">
          <mxGeometry relative="1" as="geometry" />
        </mxCell>
        <mxCell id="3cwJru8-qFUgOf6ZfqIE-47" style="edgeStyle=none;rounded=0;orthogonalLoop=1;jettySize=auto;html=1;entryX=0;entryY=0.75;entryDx=0;entryDy=0;endArrow=open;endFill=0;" parent="LgvOT38yp8BPmumaJpFH-1" source="3cwJru8-qFUgOf6ZfqIE-41" target="3cwJru8-qFUgOf6ZfqIE-37" edge="1">
          <mxGeometry relative="1" as="geometry" />
        </mxCell>
        <mxCell id="3cwJru8-qFUgOf6ZfqIE-41" value="&lt;p style=&quot;line-height: 100%&quot;&gt;&amp;lt;&amp;lt;actor&amp;gt;&amp;gt;&lt;br&gt;&lt;b&gt;Authenticated&lt;br&gt;User&lt;/b&gt;&lt;br&gt;&lt;/p&gt;" style="text;html=1;align=center;verticalAlign=middle;dashed=0;strokeColor=#000000;strokeWidth=2;" parent="LgvOT38yp8BPmumaJpFH-1" vertex="1">
          <mxGeometry x="400" y="82" width="80" height="60" as="geometry" />
        </mxCell>
        <mxCell id="3cwJru8-qFUgOf6ZfqIE-48" value="" style="fontStyle=1;align=center;verticalAlign=top;childLayout=stackLayout;horizontal=1;horizontalStack=0;resizeParent=1;resizeParentMax=0;resizeLast=0;marginBottom=0;strokeColor=#82b366;strokeWidth=2;fillColor=none;" parent="LgvOT38yp8BPmumaJpFH-1" vertex="1">
          <mxGeometry x="519" y="362" width="120" height="63" as="geometry" />
        </mxCell>
        <mxCell id="3cwJru8-qFUgOf6ZfqIE-49" value="Change State of a&lt;br&gt;&amp;nbsp;Worflow Instance" style="html=1;align=left;spacingLeft=4;verticalAlign=middle;strokeColor=none;fillColor=none;fontStyle=1" parent="3cwJru8-qFUgOf6ZfqIE-48" vertex="1">
          <mxGeometry width="120" height="30" as="geometry" />
        </mxCell>
        <mxCell id="3cwJru8-qFUgOf6ZfqIE-50" value="" style="shape=ellipse;" parent="3cwJru8-qFUgOf6ZfqIE-49" vertex="1">
          <mxGeometry x="1" width="10" height="16" relative="1" as="geometry">
            <mxPoint x="-25" y="7" as="offset" />
          </mxGeometry>
        </mxCell>
        <mxCell id="3cwJru8-qFUgOf6ZfqIE-51" value="" style="line;strokeWidth=1;fillColor=none;align=left;verticalAlign=middle;spacingTop=-1;spacingLeft=3;spacingRight=3;rotatable=0;labelPosition=right;points=[];portConstraint=eastwest;" parent="3cwJru8-qFUgOf6ZfqIE-48" vertex="1">
          <mxGeometry y="30" width="120" height="8" as="geometry" />
        </mxCell>
        <mxCell id="3cwJru8-qFUgOf6ZfqIE-52" value="." style="html=1;align=center;spacingLeft=4;verticalAlign=top;strokeColor=none;fillColor=none;" parent="3cwJru8-qFUgOf6ZfqIE-48" vertex="1">
          <mxGeometry y="38" width="120" height="25" as="geometry" />
        </mxCell>
        <mxCell id="3cwJru8-qFUgOf6ZfqIE-54" style="edgeStyle=none;rounded=0;orthogonalLoop=1;jettySize=auto;html=1;endArrow=open;endFill=0;entryX=0.008;entryY=0;entryDx=0;entryDy=0;entryPerimeter=0;" parent="LgvOT38yp8BPmumaJpFH-1" source="3cwJru8-qFUgOf6ZfqIE-53" target="3cwJru8-qFUgOf6ZfqIE-40" edge="1">
          <mxGeometry relative="1" as="geometry">
            <mxPoint x="520" y="362" as="targetPoint" />
          </mxGeometry>
        </mxCell>
        <mxCell id="3cwJru8-qFUgOf6ZfqIE-55" style="edgeStyle=none;rounded=0;orthogonalLoop=1;jettySize=auto;html=1;entryX=0;entryY=1;entryDx=0;entryDy=0;endArrow=open;endFill=0;" parent="LgvOT38yp8BPmumaJpFH-1" source="3cwJru8-qFUgOf6ZfqIE-53" target="3cwJru8-qFUgOf6ZfqIE-49" edge="1">
          <mxGeometry relative="1" as="geometry" />
        </mxCell>
        <mxCell id="3cwJru8-qFUgOf6ZfqIE-53" value="&lt;p style=&quot;line-height: 100%&quot;&gt;&amp;lt;&amp;lt;actor&amp;gt;&amp;gt;&lt;br&gt;&lt;b&gt;Daemon&lt;/b&gt;&lt;/p&gt;" style="text;html=1;align=center;verticalAlign=middle;dashed=0;strokeColor=#000000;strokeWidth=2;" parent="LgvOT38yp8BPmumaJpFH-1" vertex="1">
          <mxGeometry x="400" y="332" width="80" height="60" as="geometry" />
        </mxCell>
      </root>
    </mxGraphModel>
  </diagram>
  <diagram id="mh38uU_SkPX1b3DODfRU" name="Page-26">
    <mxGraphModel dx="1711" dy="741" grid="1" gridSize="10" guides="1" tooltips="1" connect="1" arrows="1" fold="1" page="1" pageScale="1" pageWidth="827" pageHeight="1169" math="0" shadow="0">
      <root>
        <mxCell id="xaGrfaISxflhIDEgAq_A-0" />
        <mxCell id="xaGrfaISxflhIDEgAq_A-1" parent="xaGrfaISxflhIDEgAq_A-0" />
        <mxCell id="GvcIg3mkbWWIjRYz6Sk2-0" value="&lt;font style=&quot;font-size: 12px&quot;&gt;&lt;span style=&quot;font-size: 12px&quot;&gt;Diagram: Base System Logical Module -&amp;nbsp;&lt;/span&gt;&lt;span style=&quot;font-size: 12px&quot;&gt;Functionality -&amp;nbsp;&lt;/span&gt;Provisioning Users and Roles&lt;/font&gt;" style="text;strokeColor=none;fillColor=none;html=1;fontSize=12;fontStyle=2;verticalAlign=middle;align=left;shadow=0;glass=0;comic=0;opacity=30;fontColor=#808080;" parent="xaGrfaISxflhIDEgAq_A-1" vertex="1">
          <mxGeometry x="120" y="200" width="520" height="40" as="geometry" />
        </mxCell>
      </root>
    </mxGraphModel>
  </diagram>
</mxfile>
